<svg xmlns="http://www.w3.org/2000/svg" viewBox="0 0 158.3 30.46"><defs><style>.cls-1{fill:inherit;}.cls-2{fill:none;}</style></defs><path d="M337.25,313.29l-7.75,8a3.59,3.59,0,0,1-5.46-.45l-7.46-11a5.41,5.41,0,0,1-.95-3.05V304.9a4.16,4.16,0,0,1,3.4-4l19.47-4.2a1.21,1.21,0,0,0,1-1.44,1.3,1.3,0,0,0-1.55-.91l-22.2,4.79a6.38,6.38,0,0,1-2.75,0l-22.2-4.79a1.28,1.28,0,0,0-1.58,1.11,1.27,1.27,0,0,0,1.07,1.25l19.4,4.19a4.15,4.15,0,0,1,3.39,4v1.87a5.4,5.4,0,0,1-.94,3.05l-7.46,11a3.6,3.6,0,0,1-5.47.45l-7.75-8a1.35,1.35,0,0,0-1.82-.09,1.15,1.15,0,0,0-.09,1.7L297.4,323a6.14,6.14,0,0,0,9.33-.76l6.76-10a1,1,0,0,1,1.7,0l6.77,10a6.14,6.14,0,0,0,9.33.76l7.87-8.11a1.15,1.15,0,0,0-.08-1.7,1.37,1.37,0,0,0-1.83.09" transform="translate(-289.19 -294.34)"/><path d="M442.39,299.89v1.41h.88a1.81,1.81,0,0,0,.87-.17.63.63,0,0,0,.29-.58.56.56,0,0,0-.26-.5,1.28,1.28,0,0,0-.65-.16Zm-.78,4.27v-5h1.88c1.14,0,1.71.46,1.71,1.4a1.51,1.51,0,0,1-.1.6,1.09,1.09,0,0,1-.27.41,1.36,1.36,0,0,1-.41.26,2.51,2.51,0,0,1-.49.12l1.43,2.18h-.95L443,302h-.6v2.16Zm5-2.49a3.39,3.39,0,0,0-.27-1.35,3.69,3.69,0,0,0-.73-1.11,3.65,3.65,0,0,0-1.09-.75,3.29,3.29,0,0,0-1.33-.27,3.33,3.33,0,0,0-1.33.27,3.73,3.73,0,0,0-1.08.75,3.51,3.51,0,0,0-.73,1.11,3.39,3.39,0,0,0-.27,1.35,3.47,3.47,0,0,0,.27,1.36,3.63,3.63,0,0,0,.73,1.11,3.52,3.52,0,0,0,1.08.74,3.17,3.17,0,0,0,1.33.28,3.14,3.14,0,0,0,1.33-.28,3.45,3.45,0,0,0,1.09-.74,3.82,3.82,0,0,0,.73-1.11,3.47,3.47,0,0,0,.27-1.36m-7.68,0a4.28,4.28,0,0,1,1.25-3,4.25,4.25,0,0,1,1.35-.92,4.34,4.34,0,0,1,3.32,0,4.41,4.41,0,0,1,1.36.92,4.23,4.23,0,0,1,.91,1.35,4.22,4.22,0,0,1,0,3.32,4.21,4.21,0,0,1-2.27,2.27,4.22,4.22,0,0,1-3.32,0,4.23,4.23,0,0,1-2.26-2.27,4,4,0,0,1-.34-1.66" transform="translate(-289.19 -294.34)"/><path d="M396,312.9a6.5,6.5,0,1,0-13,0,6.5,6.5,0,1,0,13,0m2.49,0c0,5.29-3.73,8.84-9,8.84s-9-3.55-9-8.84,3.73-8.76,9-8.76,9,3.51,9,8.76" transform="translate(-289.19 -294.34)"/><path d="M410.84,321.17h-.35a1,1,0,0,1-1-1V305.81a1,1,0,0,1,1-1h.35a1,1,0,0,1,1,1v14.33a1,1,0,0,1-1,1" transform="translate(-289.19 -294.34)" /><path d="M435,304.87H423.26a1,1,0,0,0-1,1v.27a1,1,0,0,0,1,1h3.38a1,1,0,0,1,1,1v11.91a1,1,0,0,0,1,1h.52a1,1,0,0,0,1-1V308.23a1,1,0,0,1,1-1H435a1,1,0,0,0,1-1v-.27a1,1,0,0,0-1-1" transform="translate(-289.19 -294.34)" /><path d="M359.24,307.2h3.38a1,1,0,0,1,1,1v11.91a1,1,0,0,0,1,1h.52a1,1,0,0,0,1-1V308.23a1,1,0,0,1,1-1H371a1,1,0,0,0,1-1v-.27a1,1,0,0,0-1-1H359.24a1,1,0,0,0-1,1v.27a1,1,0,0,0,1,1" transform="translate(-289.19 -294.34)"/><rect width="156.3" height="30.46" style="fill:none"/></svg>