<svg width="133" height="24" viewBox="0 0 133 24" fill="none" xmlns="http://www.w3.org/2000/svg">
<path d="M99.7422 16.7031C99.7422 15.4062 100.049 14.3646 100.664 13.5781C101.279 12.7865 102.083 12.3906 103.078 12.3906C104.068 12.3906 104.852 12.7292 105.43 13.4062V9H106.875V21H105.547L105.477 20.0938C104.898 20.8021 104.094 21.1562 103.062 21.1562C102.083 21.1562 101.284 20.7552 100.664 19.9531C100.049 19.151 99.7422 18.1042 99.7422 16.8125V16.7031ZM101.188 16.8672C101.188 17.8255 101.385 18.5755 101.781 19.1172C102.177 19.6589 102.724 19.9297 103.422 19.9297C104.339 19.9297 105.008 19.5182 105.43 18.6953V14.8125C104.997 14.0156 104.333 13.6172 103.438 13.6172C102.729 13.6172 102.177 13.8906 101.781 14.4375C101.385 14.9844 101.188 15.7943 101.188 16.8672ZM108.742 16.6953C108.742 15.8672 108.904 15.1224 109.227 14.4609C109.555 13.7995 110.008 13.2891 110.586 12.9297C111.169 12.5703 111.833 12.3906 112.578 12.3906C113.729 12.3906 114.659 12.7891 115.367 13.5859C116.081 14.3828 116.438 15.4427 116.438 16.7656V16.8672C116.438 17.6901 116.279 18.4297 115.961 19.0859C115.648 19.737 115.198 20.2448 114.609 20.6094C114.026 20.974 113.354 21.1562 112.594 21.1562C111.448 21.1562 110.518 20.7578 109.805 19.9609C109.096 19.1641 108.742 18.1094 108.742 16.7969V16.6953ZM110.195 16.8672C110.195 17.8047 110.411 18.5573 110.844 19.125C111.281 19.6927 111.865 19.9766 112.594 19.9766C113.328 19.9766 113.911 19.6901 114.344 19.1172C114.776 18.5391 114.992 17.7318 114.992 16.6953C114.992 15.7682 114.771 15.0182 114.328 14.4453C113.891 13.8672 113.307 13.5781 112.578 13.5781C111.865 13.5781 111.289 13.862 110.852 14.4297C110.414 14.9974 110.195 15.8099 110.195 16.8672ZM121.641 19.9766C122.156 19.9766 122.607 19.8203 122.992 19.5078C123.378 19.1953 123.591 18.8047 123.633 18.3359H125C124.974 18.8203 124.807 19.2812 124.5 19.7188C124.193 20.1562 123.781 20.5052 123.266 20.7656C122.755 21.026 122.214 21.1562 121.641 21.1562C120.49 21.1562 119.573 20.7734 118.891 20.0078C118.214 19.237 117.875 18.1849 117.875 16.8516V16.6094C117.875 15.7865 118.026 15.0547 118.328 14.4141C118.63 13.7734 119.062 13.276 119.625 12.9219C120.193 12.5677 120.862 12.3906 121.633 12.3906C122.581 12.3906 123.367 12.6745 123.992 13.2422C124.622 13.8099 124.958 14.5469 125 15.4531H123.633C123.591 14.9062 123.383 14.4583 123.008 14.1094C122.638 13.7552 122.18 13.5781 121.633 13.5781C120.898 13.5781 120.328 13.8438 119.922 14.375C119.521 14.901 119.32 15.6641 119.32 16.6641V16.9375C119.32 17.9115 119.521 18.6615 119.922 19.1875C120.323 19.7135 120.896 19.9766 121.641 19.9766ZM131.547 18.7578C131.547 18.3672 131.398 18.0651 131.102 17.8516C130.81 17.6328 130.297 17.4453 129.562 17.2891C128.833 17.1328 128.253 16.9453 127.82 16.7266C127.393 16.5078 127.076 16.2474 126.867 15.9453C126.664 15.6432 126.562 15.2839 126.562 14.8672C126.562 14.1745 126.854 13.5885 127.438 13.1094C128.026 12.6302 128.776 12.3906 129.688 12.3906C130.646 12.3906 131.422 12.638 132.016 13.1328C132.615 13.6276 132.914 14.2604 132.914 15.0312H131.461C131.461 14.6354 131.292 14.2943 130.953 14.0078C130.62 13.7214 130.198 13.5781 129.688 13.5781C129.161 13.5781 128.75 13.6927 128.453 13.9219C128.156 14.151 128.008 14.4505 128.008 14.8203C128.008 15.1693 128.146 15.4323 128.422 15.6094C128.698 15.7865 129.195 15.9557 129.914 16.1172C130.638 16.2786 131.224 16.4714 131.672 16.6953C132.12 16.9193 132.451 17.1901 132.664 17.5078C132.883 17.8203 132.992 18.2031 132.992 18.6562C132.992 19.4115 132.69 20.0182 132.086 20.4766C131.482 20.9297 130.698 21.1562 129.734 21.1562C129.057 21.1562 128.458 21.0365 127.938 20.7969C127.417 20.5573 127.008 20.224 126.711 19.7969C126.419 19.3646 126.273 18.8984 126.273 18.3984H127.719C127.745 18.8828 127.938 19.2682 128.297 19.5547C128.661 19.8359 129.141 19.9766 129.734 19.9766C130.281 19.9766 130.719 19.8672 131.047 19.6484C131.38 19.4245 131.547 19.1276 131.547 18.7578Z" fill="#FAC864"/>
<path d="M56.3036 20.8786V5.28439H63.4417V2.64453H46.2344V5.28439H53.3996V20.8786H56.3036Z" fill="white"/>
<path d="M66.9962 21.1508C71.5016 21.1508 74.5142 18.2932 74.5142 14.1293C74.5142 9.91096 71.5016 7.08059 66.9962 7.08059C62.5179 7.08059 59.5053 9.91096 59.5053 14.1293C59.5053 18.2932 62.5179 21.1508 66.9962 21.1508ZM66.9962 18.5381C63.7393 18.5381 62.3822 16.9869 62.3822 14.1293C62.3822 11.2445 63.7393 9.66602 66.9962 9.66602C70.2802 9.66602 71.6373 11.2445 71.6373 14.1293C71.6373 16.9869 70.2802 18.5381 66.9962 18.5381Z" fill="white"/>
<path d="M80.9114 5.77427V2.64453H77.9802V5.77427H80.9114ZM80.9114 20.8786V7.35274H77.9802V20.8786H80.9114Z" fill="white"/>
<path d="M93.9989 20.8786V18.2388H91.5562C89.8734 18.2388 89.1135 17.8033 89.1135 16.1432V9.8021H93.9989V7.35274H89.1135V2.64453H86.2094V7.35274H83.9296V9.8021H86.2094V16.3065C86.2094 19.5995 88.0007 20.8786 90.9048 20.8786H93.9989Z" fill="white"/>
<path fill-rule="evenodd" clip-rule="evenodd" d="M1.27968 0.000157106C1.38214 -0.00143452 1.48646 0.00947759 1.59074 0.0340597L15.5468 3.32401C15.564 3.32808 15.5812 3.33251 15.5983 3.33729C17.1053 3.76011 18.6939 3.79825 20.2169 3.45052C20.4512 3.35968 20.6937 3.284 20.9431 3.22471L34.3652 0.034595C34.4651 0.0108559 34.565 -0.000330994 34.6634 1.10944e-05C35.2342 -0.002282 35.753 0.384304 35.8928 0.960799C36.0561 1.63452 35.6399 2.31249 34.9631 2.47508L21.6981 5.66202L21.1598 5.80365C21.1057 5.81789 21.0515 5.83173 20.9973 5.84519C19.9304 6.31944 19.22 7.37893 19.22 8.56953L19.22 9.82007C19.22 10.6237 19.4533 11.4106 19.8925 12.0863L25.1451 20.1695C25.7834 21.1517 27.1857 21.2747 27.9875 20.4164L33.7349 14.2643C34.209 13.7568 35.0066 13.7281 35.5164 14.2C36.0262 14.672 36.0551 15.4661 35.581 15.9736L29.8336 22.1256C27.914 24.1804 24.5597 23.8893 23.0283 21.5328L17.9594 13.7323L12.8905 21.5327C11.3591 23.8893 8.00475 24.1804 6.08515 22.1256L0.33779 15.9736C-0.136332 15.4661 -0.107416 14.672 0.402376 14.2C0.912168 13.728 1.70979 13.7568 2.18391 14.2643L7.93127 20.4164C8.73314 21.2747 10.1354 21.1517 10.7736 20.1695L16.0263 12.0863C16.4654 11.4106 16.6988 10.6237 16.6988 9.82007V8.1406C16.6988 7.01309 15.9198 6.02945 14.8103 5.76575L0.968122 2.4758C0.290964 2.31485 -0.126922 1.6379 0.0347474 0.963779C0.174529 0.380926 0.701795 -0.00897651 1.27968 0.000157106Z" fill="white"/>
</svg>
