<svg xmlns="http://www.w3.org/2000/svg" viewBox="0 0 146.83 30.46" width="146" height="31" style="fill: currentColor">
  <g>
    <path d="M48.07,18.94l-7.75,8a3.59,3.59,0,0,1-5.47-.44l-7.46-11a5.4,5.4,0,0,1-.94-3.05V10.56a4.14,4.14,0,0,1,3.39-4l19.47-4.2a1.21,1.21,0,0,0,1-1.45A1.3,1.3,0,0,0,48.73,0L26.53,4.82a6.7,6.7,0,0,1-2.75,0L1.58,0A1.29,1.29,0,0,0,0,1.13,1.27,1.27,0,0,0,1.07,2.39l19.4,4.19a4.15,4.15,0,0,1,3.4,4v1.87a5.41,5.41,0,0,1-.95,3.05l-7.46,11a3.58,3.58,0,0,1-5.46.44l-7.75-8a1.36,1.36,0,0,0-1.83-.08,1.15,1.15,0,0,0-.08,1.7l7.87,8.1a6.14,6.14,0,0,0,9.33-.75l6.77-10a1,1,0,0,1,1.69,0l6.77,10a6.14,6.14,0,0,0,9.33.75L50,20.56a1.15,1.15,0,0,0-.09-1.7,1.35,1.35,0,0,0-1.82.08" />
    <g>
      <path d="M106.8,15.19a6.5,6.5,0,1,0-13,0,6.5,6.5,0,1,0,13,0m2.49,0c0,5.3-3.73,8.84-9,8.84s-9-3.54-9-8.84,3.72-8.76,9-8.76,9,3.51,9,8.76"/>
      <path d="M121.65,23.47h-.35a1,1,0,0,1-1-1V8.1a1,1,0,0,1,1-1h.35a1,1,0,0,1,1,1V22.44a1,1,0,0,1-1,1" />
      <path d="M145.8,7.16H134.07a1,1,0,0,0-1,1v.26a1,1,0,0,0,1,1h3.38a1,1,0,0,1,1,1v11.9a1,1,0,0,0,1,1h.53a1,1,0,0,0,1-1V10.53a1,1,0,0,1,1-1h3.69a1,1,0,0,0,1-1V8.2a1,1,0,0,0-1-1" />
      <path d="M70.05,9.5h3.39a1,1,0,0,1,1,1V22.44a1,1,0,0,0,1,1H76a1,1,0,0,0,1-1V10.53a1,1,0,0,1,1-1h3.69a1,1,0,0,0,1-1V8.2a1,1,0,0,0-1-1H70.05a1,1,0,0,0-1,1v.26a1,1,0,0,0,1,1" />
    </g>
  </g>
</svg>
