<svg viewBox="0 0 2500 1875" xmlns="http://www.w3.org/2000/svg" fill-rule="evenodd" clip-rule="evenodd" stroke-linejoin="round" stroke-miterlimit="2"><path d="M488.429 1874.8H144.01C64.468 1874.8 0 1810.45 0 1731.11V143.713C0 64.349 64.466.002 144.01 0h344.419C567.973.002 632.46 64.349 632.46 143.713v646.101a928.744 928.744 0 0140.805-161.607l.197-.569.316-.892.23-.654.546-1.537C798.852 274.232 1125.87 19.567 1514.96 1.081l.15-.007.02-.002 1.58-.076 1.35-.058.05-.002 1.71-.073 2.32-.1 1.41-.052.58-.023 1.97-.072 1.48-.055 1.35-.042 1.22-.041 1.68-.05 1.2-.038.98-.025 2.18-.059 1.35-.032.95-.024.5-.01c1.42-.032 2.84-.06 4.26-.085l.71-.014 1.07-.017.23-.004.26-.004 1.17-.018 1.22-.016.38-.005.29-.003.85-.011 1.39-.014.5-.006.26-.002.59-.006 1.59-.011.59-.005.19-.001.37-.002 1.9-.008.57-.003h.11c.97-.004 1.94-.005 2.91-.005h.02c1.16 0 2.32.002 3.48.007h.29l.68.004 1.63.008.95.008.52.003.53.005 1.03.008 1.64.018.58.006.26.004c2.37.028 4.75.066 7.12.112l.17.003.42.009 1.92.04 1.05.025.38.008.4.01 1.19.028 1.79.049.38.009.18.006c2.43.067 4.85.144 7.26.229l.08.003.21.008 2.16.078 1.12.044.27.01.3.013 1.32.052 1.88.08.25.011.12.005c2.45.107 4.9.223 7.36.349l2.4.126 1.15.063.19.01.23.013 1.43.08 2.16.126c3.66.217 7.32.455 10.97.714l.13.009.16.012 1.53.109 2.08.155c3.67.275 7.33.572 10.99.889l1.81.158 2.01.182c3.68.334 7.34.688 11 1.064l1.81.187 1.95.207c3.67.391 7.33.804 10.98 1.238l1.82.216 1.89.231c3.66.449 7.32.919 10.96 1.41l1.83.247 1.83.253a935.446 935.446 0 01100.3 19.525l.01.003c4.67 1.177 9.33 2.388 13.96 3.634l.08.022c4.62 1.239 9.21 2.512 13.8 3.819l.18.052a918.01 918.01 0 0113.58 3.988l.16.048.18.053 1.27.386 2.06.628c2.26.692 4.51 1.393 6.76 2.101l2.21.697 1.01.322.26.081.29.094 1.19.38 1.62.522.32.102.16.054c2.19.706 4.37 1.42 6.54 2.142l.12.04.37.12 1.83.61.83.281.38.126.46.156 1.06.355 1.33.453.55.185.3.103.54.185 2.24.768.31.106.06.02c1.04.357 2.07.717 3.11 1.077l.22.077.72.252 1.5.527.63.222.53.186.69.247.86.303 1.01.36.82.29.47.171.41.145 1.48.536 1 .36.21.075c.94.34 1.88.68 2.81 1.021l.35.128 1.23.453 1.02.374.39.145.72.265.99.372.59.217.64.238 1.13.422.7.266.22.08.7.266c2.35.883 4.68 1.776 7.02 2.678l.32.123.11.043.95.366 1.4.546.21.083.22.084a937.367 937.367 0 01104.56 48.439v.014c291.77 157.673 490.67 464.965 493.07 818.466v.412l.01 3.028.01 3.031c0 511.29-410.16 926.93-920.07 937.3-6.49.13-12.99.2-19.51.2h-3.04l-.57-.01-1.9-.01h-1.15l-1.59-.01-.59-.01h-.26l-.5-.01-1.39-.01-.85-.01-.29-.01h-.38l-1.22-.02-1.17-.02h-.49l-1.07-.02-.71-.01-4.26-.09-.5-.01-.95-.02-1.35-.04-2.18-.06-.98-.02-1.2-.04-1.68-.05-1.22-.04-1.35-.04-1.48-.06-1.97-.07-.58-.02-1.41-.05-2.34-.1-1.69-.08h-.05l-1.35-.06-1.58-.07h-.02l-.15-.01c-396.59-18.84-728.694-283.06-847.368-643.81l-.08-.24-.083-.26-.625-1.9-.35-1.08-.725-2.24-.333-1.04-.19-.58-.113-.36a929.146 929.146 0 01-32.633-137.22v645.92c0 79.34-64.484 143.69-144.031 143.69zM2163.39 897.416c-21.16 15.322-162.76 117.084-162.76 117.084s-96.66 77.46-197.54 45.38c-13.61-4.28-27.95-9.64-42.45-15.41 13.35 8.23 26.01 16.67 37.52 25.07 85.39 62.5 79.6 185.97 79.6 185.97l1.15 200.22c.14 34.23-2.47 49.24-24.99 60.75-22.53 11.43-36.25 4.73-63.99-15.41-21.05-15.41-161.86-118.32-161.86-118.32s-103.73-67.74-104.25-173.38c-.11-14.2.48-29.41 1.58-44.97-3.82 15.1-7.89 29.8-12.35 43.23-33.15 100.4-152.58 133.06-152.58 133.06s-165.76 54.84-190.58 62.91c-32.51 10.79-47.72 12.92-65.57-4.92-17.86-17.8-15.73-32.9-5.12-65.41 8.16-24.72 62.78-190.23 62.78-190.23s32.51-119.27 133-152.543c13.55-4.47 28.23-8.594 43.48-12.414-15.64 1.107-30.91 1.78-45.11 1.715-105.93-.391-173.98-103.737-173.98-103.737s-103.45-140.35-118.85-161.336c-20.269-27.606-27.077-41.343-15.615-63.805 11.528-22.484 26.515-25.11 60.885-24.98 26.07 0 200.66.673 200.66.673s123.72-5.946 186.49 79.149c8.46 11.502 16.88 24.22 25.32 37.523-5.96-14.519-11.33-28.929-15.72-42.428-32.28-100.677 45.15-197.144 45.15-197.144s101.81-141.5 117.06-162.638c20.05-27.779 31-38.413 56.03-34.485 24.99 3.884 32.06 17.427 42.65 50.002 8.03 24.762 61.3 190.634 61.3 190.634s43.95 115.63-17.78 201.463c-8.35 11.611-17.85 23.504-27.99 35.527 12.05-10.092 24.1-19.554 35.63-27.953 85.94-61.765 201.84-18.056 201.84-18.056s166.39 52.845 191.23 60.832c32.67 10.373 46.22 17.557 50.2 42.471 3.94 24.936-6.7 35.918-34.47 55.906zm-575.35 99.431c-17.2 8.703-13.61 50.113 7.99 92.363 21.59 42.21 53.07 69.34 70.25 60.64 17.23-8.77 13.53-50.16-8.03-92.37-21.68-42.21-53.05-69.379-70.21-60.633zm-156.14 25.093c-33.58 33.55-49.74 71.77-36.1 85.4 13.63 13.58 51.94-2.56 85.5-36.16 33.58-33.57 49.76-71.789 36.1-85.418-13.65-13.586-51.94 2.604-85.5 36.178zm268-136.582c-46.96 7.487-82.54 28.951-79.48 47.919 3 18.968 43.5 28.43 90.44 20.899 46.96-7.422 82.56-28.929 79.5-47.919-3-18.968-43.5-28.321-90.46-20.899zm-193.76 30.01c8.74-17.145-18.53-48.527-60.92-70.034-42.31-21.42-83.79-25.023-92.46-7.878-8.73 17.145 18.48 48.57 60.85 70.034 42.4 21.442 83.79 24.979 92.53 7.878zm111.49-111.893c7.44-46.856-1.98-87.287-21.05-90.239-19.06-2.951-40.46 32.597-47.83 79.453-7.42 46.79 2.02 87.222 21.01 90.238 19.1 2.995 40.54-32.553 47.87-79.452z"/></svg>