<svg width="337.778" height="369.459" viewBox="0 0 89.37 97.753" xmlns="http://www.w3.org/2000/svg"><path fill="#a8b9cc" d="M63.387 37.458s-1.44-13.435-14.77-13.808c-13.33-.373-20.176 10.076-20.176 25.003s7.566 26.87 20.535 26.87c12.97 0 14.411-14.928 14.411-14.928l24.858 1.493s1.464 13.482-8.938 23.767C68.904 96.14 56.136 97.82 47.219 97.751c-8.916-.072-21.28.14-33.235-12.106C2.03 73.4 0 61.505 0 49.82c0-11.686 2.267-27.166 16.482-38.904C26.144 2.939 35.937 0 45.732 0 86.624 0 89.37 37.715 89.37 37.715z"/></svg>