<svg xmlns="http://www.w3.org/2000/svg" width="103.323" height="112.819"><path d="M92.374 54.603V96.06a5.265 5.265 0 01-5.244 5.265v.05H16.192a5.268 5.268 0 01-5.265-5.266v-.049h.022V16.69c0-2.9 2.345-5.254 5.243-5.266v.021H87.13c2.9 0 5.254 2.345 5.265 5.245h-.021v30.189" fill="#fff" fill-rule="evenodd"/><path d="M92.374 54.603V96.06a5.265 5.265 0 01-5.244 5.265v.05H16.192a5.268 5.268 0 01-5.265-5.266v-.049h.022V16.69c0-2.9 2.345-5.254 5.243-5.266v.021H87.13c2.9 0 5.254 2.345 5.265 5.245h-.021v30.189" fill="none" stroke="#231f20" stroke-width=".28375" stroke-linecap="round" stroke-linejoin="round" stroke-miterlimit="10"/><path d="M89.54 54.603H75.508v7.016a3.165 3.165 0 01-3.118 3.165v-.048a3.165 3.165 0 01-3.165-3.117h-.024V39.863a3.166 3.166 0 013.165-3.165h.024v-.024a3.166 3.166 0 013.165 3.165v.025l-.047-.001v7.016H89.54V16.903a2.634 2.634 0 00-2.622-2.634v.011H16.405a2.633 2.633 0 00-2.632 2.623h-.06v79.015a2.634 2.634 0 002.693 2.632l-.001-.01h70.513a2.634 2.634 0 002.633-2.622h-.011" fill="#f8f8f8" fill-rule="evenodd"/><path d="M89.54 54.603H75.508v7.016a3.165 3.165 0 01-3.118 3.165v-.048a3.165 3.165 0 01-3.165-3.117h-.024V39.863a3.166 3.166 0 013.165-3.165h.024v-.024a3.166 3.166 0 013.165 3.165v.025l-.047-.001v7.016H89.54V16.903a2.634 2.634 0 00-2.622-2.634v.011H16.405a2.633 2.633 0 00-2.632 2.623h-.06v79.015a2.634 2.634 0 002.693 2.632l-.001-.01h70.513a2.634 2.634 0 002.633-2.622h-.011V54.603zm2.834-7.724H75.508v-7.016a3.165 3.165 0 00-3.118-3.165v-.024a3.166 3.166 0 00-3.165 3.165v.024h-.024v21.756a3.166 3.166 0 003.165 3.165h.024v-.048a3.165 3.165 0 003.165-3.117h-.047v-7.016h16.866" fill="none" stroke="#231f20" stroke-width=".28375" stroke-linecap="round" stroke-linejoin="round" stroke-miterlimit="10"/><path d="M87.13 74.587c2.9 0 5.254-2.345 5.265-5.243l-.021-.002v-14.74H75.508v7.017a3.165 3.165 0 01-3.118 3.165v-.048a3.165 3.165 0 01-3.165-3.117h-.024V39.862a3.166 3.166 0 013.165-3.165h.024v-.023a3.166 3.166 0 013.165 3.165v.025l-.048-.002v7.017h16.867v-14.74a5.265 5.265 0 00-5.244-5.267v-.048H57.65a5.265 5.265 0 00-5.266 5.314h-.049v37.204a5.267 5.267 0 005.265 5.265h.05v-.02" fill="#fff" fill-rule="evenodd"/><path d="M87.13 74.587c2.9 0 5.254-2.345 5.265-5.243l-.021-.002v-14.74H75.508v7.017a3.165 3.165 0 01-3.118 3.165v-.048a3.165 3.165 0 01-3.165-3.117h-.024V39.862a3.166 3.166 0 013.165-3.165h.024v-.023a3.166 3.166 0 013.165 3.165v.025l-.048-.002v7.017h16.867v-14.74a5.265 5.265 0 00-5.244-5.267v-.048H57.65a5.265 5.265 0 00-5.266 5.314h-.049v37.204a5.267 5.267 0 005.265 5.265h.05v-.02h29.48z" fill="none" stroke="#231f20" stroke-width=".28375" stroke-linecap="round" stroke-linejoin="round" stroke-miterlimit="10"/><path d="M86.917 71.752a2.631 2.631 0 002.633-2.622h-.01V57.366H78.342v7.583a2.634 2.634 0 01-2.62 2.633l-.002-.01h-6.661a2.633 2.633 0 01-2.633-2.622l.011-.001V36.532A2.632 2.632 0 0169.06 33.9v.01h6.661a2.632 2.632 0 012.632 2.622h-.01v7.512h11.34V32.42a2.734 2.734 0 00-2.735-2.732h-.03v-.032H57.791a2.633 2.633 0 00-2.632 2.623h.01v36.85a2.634 2.634 0 002.622 2.634" fill="#f8f8f8" fill-rule="evenodd"/><path d="M86.917 71.752a2.631 2.631 0 002.633-2.622h-.01V57.366H78.342v7.583a2.634 2.634 0 01-2.62 2.633l-.002-.01h-6.661a2.633 2.633 0 01-2.633-2.622l.011-.001V36.532A2.632 2.632 0 0169.06 33.9v.01h6.661a2.632 2.632 0 012.632 2.622h-.01v7.512h11.34V32.42a2.734 2.734 0 00-2.735-2.732h-.03v-.032H57.791a2.633 2.633 0 00-2.632 2.623h.01v36.85a2.634 2.634 0 002.622 2.634m0-.012h29.126" fill="none" stroke="#231f20" stroke-width=".28375" stroke-linecap="round" stroke-linejoin="round" stroke-miterlimit="10"/><path d="M10.949 74.658h16.866V26.894H10.949v47.764z" fill="#fff" fill-rule="evenodd"/><path d="M10.949 74.658h16.866V26.894H10.949v47.764z" fill="none" stroke="#231f20" stroke-width=".28375" stroke-linecap="round" stroke-linejoin="round" stroke-miterlimit="10"/><path d="M13.712 71.824H24.98V29.729H13.712v42.095z" fill="#f8f8f8" fill-rule="evenodd"/><path d="M13.712 71.824H24.98V29.729H13.712v42.095zm61.795-24.945h16.867m-16.867 7.724h16.867" fill="none" stroke="#231f20" stroke-width=".28375" stroke-linecap="round" stroke-linejoin="round" stroke-miterlimit="10"/><path d="M30.934 26.824a5.332 5.332 0 015.385-5.333v.018H43.9a5.332 5.332 0 015.333 5.315h-.018v.85a5.334 5.334 0 01-5.315 5.332v.054H36.39c-.637 0-1.165.498-1.201 1.134h-.004 14.031v4.251H30.934v-4.251a5.332 5.332 0 015.385-5.333v.018h7.157c.844 0 1.528-.685 1.528-1.528v-.031h.031a1.528 1.528 0 00-1.559-1.527v.038H36.32c-.594 0-1.085.435-1.123.993h-.011" fill="#fff" fill-rule="evenodd"/><path d="M30.934 26.824a5.332 5.332 0 015.385-5.333v.018H43.9a5.332 5.332 0 015.333 5.315h-.018v.85a5.334 5.334 0 01-5.315 5.332v.054H36.39c-.637 0-1.165.498-1.201 1.134h-.004 14.031v4.251H30.934v-4.251a5.332 5.332 0 015.385-5.333v.018h7.157c.844 0 1.528-.685 1.528-1.528v-.031h.031a1.528 1.528 0 00-1.559-1.527v.038H36.32c-.594 0-1.085.435-1.123.993H30.934z" fill="none" stroke="#231f20" stroke-width=".28375" stroke-linecap="round" stroke-linejoin="round" stroke-miterlimit="10"/><path d="M33.484 83.729c0 .588-.503 1.068-1.133 1.08l-.001-.017h-9.709v-2.126h9.709c.64 0 1.159.484 1.159 1.081 0 .018 0 .035-.002.054m-.023 6.305h0c0-.587-.504-1.067-1.133-1.079l-.001.017h-9.709v2.055h9.709c.632 0 1.147-.473 1.157-1.063m4.158-.992h0v-.008c-.004-1.174-1.013-2.127-2.268-2.147v-.041c1.263 0 2.29-.948 2.31-2.127h-.042l.071-2.126v-.007c-.005-2.332-2.034-4.22-4.531-4.215h-.004v.04H18.177v16.938h15.024c2.495 0 4.519-1.888 4.521-4.218v-.034M46.24 78.414h-4.464V90.11c.002 2.891 2.502 5.239 5.598 5.256v-.015h8.291c3.105 0 5.624-2.345 5.631-5.245h.039V78.414h-4.536v10.63c0 1.166-1.013 2.112-2.261 2.112h-.007V91.1h-6.023c-1.225 0-2.228-.911-2.26-2.055h-.008v-10.63zM79.051 78.343c3.104 0 5.623 2.346 5.631 5.245h-4.497m0 0h0c0-.524-.454-.948-1.014-.948l-.047.001-.002-.046H70.62c-.639 0-1.158.484-1.158 1.08l.001.051-.048.003c0 .596.517 1.08 1.156 1.08l.049-.001v-.015h8.361c3.092 0 5.602 2.335 5.614 5.222v.021h-.015v.003c-.002 2.92-2.542 5.289-5.669 5.287v-.046h-8.363c-3.103 0-5.622-2.345-5.63-5.244h4.497c0 .579.503 1.049 1.123 1.049h.01v.014h8.717c.395 0 .717-.473.725-1.063h-.017c0-.571-.44-1.033-.986-1.033h-.006v-.03h-8.361c-3.11 0-5.638-2.34-5.665-5.244h-.005v-.015c.008-2.96 2.571-5.359 5.741-5.376l-.001-.065h8.362" fill="#231f20" fill-rule="evenodd" stroke="#231f20" stroke-width=".28375" stroke-linecap="round" stroke-linejoin="round" stroke-miterlimit="10"/><path d="M37.665 91.099v-2.055" fill="none" stroke="#231f20" stroke-width=".28375" stroke-linecap="round" stroke-linejoin="round" stroke-miterlimit="10"/></svg>