<svg width="343" height="252" viewBox="0 0 343 252" fill="none" xmlns="http://www.w3.org/2000/svg"><path d="M198.988 189.12c0 10.702-13.689 19.378-30.574 19.378s-30.574-8.676-30.574-19.378 13.689-19.378 30.574-19.378 30.574 8.676 30.574 19.378zM175.735 143.475c0 10.702-11.182 19.378-24.976 19.378-13.794 0-24.976-8.676-24.976-19.378s11.182-19.378 24.976-19.378c13.794 0 24.976 8.676 24.976 19.378zM293.723 224.861c0 7.135-10.604 12.919-23.684 12.919-13.08 0-23.684-5.784-23.684-12.919 0-7.134 10.604-12.918 23.684-12.918 13.08 0 23.684 5.784 23.684 12.918z" fill="#D6D2CD"/><path d="M333.458 182.348l9.201-20.179-59.405-11.749-59.405 11.749-9.202 20.179 59.406 34.298 33.495-5.188 25.91-29.11zM118.81 203.036l9.202-20.179-59.406-11.749-59.405 11.749L0 203.036l59.405 34.298 59.405-34.298zM226.135 123.576l9.201-20.179-59.405-11.75-59.406 11.75-9.201 20.179 59.406 34.297 59.405-34.297z" fill="#D6D2CD"/><path d="M176.109.941L116.704 35.24l-15.031 28.21 59.405-34.298L176.109.94z" fill="#E0A173"/><path fill-rule="evenodd" clip-rule="evenodd" d="M176.449.568c-.06-.12-.193-.143-.34-.058l-59.405 34.298a.777.777 0 00-.279.305l-15.031 28.21c-.097.183-.121.378-.061.498s.193.142.34.058l59.405-34.298a.776.776 0 00.279-.306l15.031-28.21c.097-.182.121-.377.061-.497zm-1.17 1.283l-14.368 26.965-58.408 33.722 14.368-26.966 58.408-33.721z" fill="#000"/><path d="M235.573 35.238L176.168.941l-59.405 34.297 59.405 34.298 59.405-34.298z" fill="#4E4E4E"/><path fill-rule="evenodd" clip-rule="evenodd" d="M235.946 35.454c.206-.12.206-.312 0-.431L176.541.725a.825.825 0 00-.746 0L116.39 35.023c-.206.119-.206.312 0 .43l59.405 34.298c.206.12.54.12.746 0l59.405-34.297zm-1.118-.216l-58.66 33.867-58.659-33.867 58.659-33.867 58.66 33.867z" fill="#000"/><path d="M219.585 44.47l-43.417-25.067-43.417 25.067 43.417 25.067 43.417-25.067z" fill="#000"/><path fill-rule="evenodd" clip-rule="evenodd" d="M219.959 44.685c.206-.119.206-.312 0-.43l-43.417-25.067a.825.825 0 00-.746 0l-43.417 25.066c-.206.12-.206.312 0 .431l43.417 25.067c.206.119.54.119.746 0l43.417-25.067zm-1.119-.215l-42.671 24.636-42.671-24.636 42.671-24.636L218.84 44.47z" fill="#000"/><path d="M235.573 35.238l-59.405 34.298v68.595l59.405-34.297V35.238z" fill="#FFB681"/><path fill-rule="evenodd" clip-rule="evenodd" d="M235.947 35.023c0-.237-.167-.334-.373-.215l-59.405 34.298a.824.824 0 00-.373.646v68.595c0 .238.167.334.373.215l59.405-34.297a.826.826 0 00.373-.646V35.023zm-.746.862v67.734l-58.659 33.867V69.752l58.659-33.867z" fill="#000"/><path d="M215.188 47.008l-38.182 22.045v68.17l30.442-18.123 7.74-72.092z" fill="#E0A173"/><path d="M219.376 69.05l-10.38 5.993v28.461l10.38-5.994V69.05z" fill="#fff"/><path fill-rule="evenodd" clip-rule="evenodd" d="M219.75 68.835c0-.238-.167-.334-.373-.215l-10.38 5.993a.824.824 0 00-.373.646v28.46c0 .238.167.334.373.215l10.38-5.993a.824.824 0 00.373-.646v-28.46zm-.746.861v27.6l-9.634 5.562v-27.6l9.634-5.562z" fill="#000"/><path d="M235.573 35.24l-59.406 34.297 10.126 33.051 59.405-34.298-10.125-33.05z" fill="#FFDBC0"/><path fill-rule="evenodd" clip-rule="evenodd" d="M235.93 34.91c-.047-.155-.192-.196-.357-.1l-59.405 34.297a.792.792 0 00-.299.346c-.071.15-.092.304-.058.415l10.125 33.051c.048.154.193.195.358.1l59.405-34.298a.792.792 0 00.299-.346c.07-.15.092-.303.058-.414L235.93 34.91zm-.634.92l9.901 32.32-58.626 33.848-9.901-32.32 58.626-33.847z" fill="#000"/><path d="M116.636 34.995l59.531 34.541v68.596l-59.405-34.298-.126-68.84z" fill="#E0A173"/><path fill-rule="evenodd" clip-rule="evenodd" d="M116.372 34.538c.071-.04.166-.03.265.027l59.531 34.542c.206.119.372.408.372.645v68.595c0 .238-.167.334-.373.216l-59.405-34.298a.825.825 0 01-.373-.645l-.126-68.84c0-.114.039-.201.109-.242zm.638 1.105l.124 67.976 58.66 33.867V69.751L117.01 35.642z" fill="#000"/><path fill-rule="evenodd" clip-rule="evenodd" d="M193.543 183.855c.01 7.036-9.861 12.736-22.048 12.73-12.188-.006-22.076-5.715-22.086-12.751-.002-1.288.326-2.529.937-3.696.112-.214.147-.432.114-.642l-.166-3.402c-1.556-.272-5.925.951-6.394 1.849-.775 1.482-.378 4.263-.375 5.888.013 8.912 12.537 16.144 27.974 16.151 15.438.008 27.941-7.211 27.928-16.124l-.172-3.998c-1.326-8.209-13.244-12.146-27.803-12.153a47.19 47.19 0 00-8.105.685c-1.555.271-2.433 1.219-1.961 2.117.472.898 2.115 1.407 3.67 1.136a37.195 37.195 0 016.401-.541c12.187.006 22.075 5.715 22.086 12.751zm-13.24-.006c.004 2.814-3.945 5.094-8.82 5.091-4.875-.002-8.83-2.285-8.834-5.1-.001-.938-1.32-1.699-2.945-1.7-1.21-.001-2.593-2.547-3.043-1.944-.154.207.104 3.641.104 3.641.007 4.691 6.599 8.497 14.723 8.501 8.125.004 14.706-3.796 14.699-8.486l-.094-3.708c-1.117-4.055-6.824-6.467-14.161-6.471-.99 0-3.405-1.114-3.547-.13l.139 3.505c.001.938 1.319 1.699 2.944 1.7 4.875.003 8.83 2.286 8.835 5.101zm-7.578.717c.486-.281.766-.636.84-1.002.101-.498-.111-3.669-.111-3.669l-16.141-6.628c-1.15-.664-3.995-2.931-5.143-2.268 0 0 .167 2.967.127 3.368-.046.467.24.943.859 1.3l15.408 8.897c1.15.664 3.013.664 4.161.002z" fill="#FAC864"/><path fill-rule="evenodd" clip-rule="evenodd" d="M171.499 200.359c15.798.008 28.594-7.38 28.581-16.501v-.004-.005l-.173-3.998a.115.115 0 00-.003-.026c-.68-4.214-4.091-7.351-9.213-9.425-5.104-2.068-11.865-3.066-19.238-3.07a48.342 48.342 0 00-8.294.702c-1.901.331-2.974 1.49-2.397 2.587.576 1.097 2.583 1.718 4.483 1.387a36.133 36.133 0 016.212-.525c11.827.006 21.423 5.546 21.433 12.375.01 6.828-9.569 12.358-21.395 12.352-11.827-.006-21.423-5.546-21.433-12.374-.002-1.251.316-2.454.908-3.587.135-.257.179-.518.142-.772l-.166-3.391c-.008-.162-.194-.303-.463-.35-.563-.099-1.271-.052-1.935.042-.69.099-1.441.265-2.148.466a13.1 13.1 0 00-1.936.704c-.523.248-1.013.552-1.189.888-.418.801-.51 1.918-.507 3 .001.548.027 1.099.053 1.611l.005.1c.024.476.045.913.046 1.286.013 9.121 12.83 16.52 28.627 16.528zm27.276-16.496c.008 8.702-12.201 15.75-27.275 15.743-15.077-.008-27.31-7.07-27.323-15.775 0-.385-.023-.832-.046-1.304l-.006-.104a35.487 35.487 0 01-.052-1.59c-.003-1.085.095-2.099.452-2.781.059-.113.291-.298.767-.524a11.44 11.44 0 011.686-.61 14.49 14.49 0 011.882-.41c.318-.045.584-.068.797-.074l.151 3.073.002.023a.805.805 0 01-.089.5c-.629 1.202-.967 2.479-.965 3.804.011 7.244 10.191 13.122 22.738 13.128 12.548.006 22.712-5.862 22.701-13.107-.01-7.244-10.19-13.121-22.737-13.127a38.348 38.348 0 00-6.59.557c-1.21.21-2.49-.185-2.857-.885-.368-.699.316-1.436 1.525-1.647a46.019 46.019 0 017.916-.669c7.186.003 13.663.977 18.489 2.932 4.804 1.946 8.012 4.878 8.662 8.866l.172 3.981zm-27.287 8.852c8.485.004 15.359-3.964 15.352-8.863v-.006l-.094-3.707a.234.234 0 00-.008-.053c-1.176-4.27-7.204-6.786-14.805-6.789-.095 0-.311-.036-.7-.13a22.33 22.33 0 01-.33-.082 21.426 21.426 0 00-.841-.2c-.372-.078-.88-.164-1.345-.104-.264.034-.518.116-.704.261a.709.709 0 00-.278.47c-.002.013-.002.027-.002.04l.138 3.501c0 .03.001.059.004.089l-10.138-4.163a20.214 20.214 0 01-.841-.542l-.218-.145c-.447-.296-.961-.63-1.48-.925-.508-.289-1.067-.566-1.608-.723a3.319 3.319 0 00-.917-.142c-.354.001-.693.074-.964.231-.128.073-.197.174-.191.278l.007.128.018.342c.015.284.035.667.053 1.062.037.804.067 1.623.049 1.803-.056.57.294 1.152 1.049 1.588l15.409 8.896c1.404.811 3.68.813 5.084.002.593-.342.936-.776 1.026-1.224.031-.153.035-.471.03-.83a42.972 42.972 0 00-.043-1.245c-.021-.429-.044-.842-.062-1.148l-.023-.367-.009-.137-.652.014.652-.014c-.008-.117-.109-.225-.274-.293l-.954-.392c3.843.388 6.769 2.324 6.772 4.653.004 2.607-3.652 4.717-8.166 4.715-4.515-.002-8.178-2.117-8.182-4.724-.002-1.142-1.601-2.069-3.577-2.076a.503.503 0 01-.083-.031 1.861 1.861 0 01-.344-.212c-.274-.205-.553-.481-.833-.765l-.069-.07c-.242-.246-.499-.507-.729-.674a1.614 1.614 0 00-.237-.146 1.335 1.335 0 00-.402-.125 1.278 1.278 0 00-.651.072.72.72 0 00-.316.235.426.426 0 00-.073.183l-.001.002a1.7 1.7 0 00-.018.165 6.743 6.743 0 00-.01.456c.003.356.021.809.044 1.252.022.443.05.88.072 1.206l.027.393.01.141c.015 4.895 6.896 8.865 15.376 8.869zm-14.071-8.894l-.011-.147-.027-.391a79.74 79.74 0 01-.072-1.2 34.157 34.157 0 01-.039-1.018l.019.019.043.045c.273.276.595.599.935.853.17.127.365.252.582.349.214.094.506.186.857.186 1.265.001 2.291.593 2.293 1.324.004 3.022 4.251 5.474 9.486 5.477 5.235.002 9.477-2.446 9.472-5.469-.004-3.023-4.251-5.475-9.486-5.477-.282 0-.553-.03-.803-.084l-.959-.394c-.331-.229-.53-.524-.531-.846v-.008l-.137-3.483a.21.21 0 01.012-.043c.089 0 .267.017.568.08.232.048.462.106.708.168l.401.1c.347.084.804.188 1.204.188 7.056.004 12.434 2.301 13.51 6.128l.092 3.674v.003c.005 4.481-6.283 8.11-14.045 8.106-7.765-.003-14.065-3.641-14.072-8.124v-.016zm-.837-3.383c-.003-.001-.002-.001.001.001zm13.454-1.485l2.78 1.141.019.317c.019.305.042.716.062 1.142.02.427.037.867.043 1.231.006.376-.002.641-.021.737-.058.285-.275.56-.653.779-.893.515-2.342.515-3.238-.002l-15.409-8.897c-.482-.278-.705-.648-.669-1.012.022-.221-.011-1.086-.047-1.866l-.053-1.065-.01-.182c.046.009.101.023.165.041.351.102.791.31 1.28.587.48.273.965.588 1.411.883l.208.138c.357.238.691.46.95.609a.713.713 0 00.083.041l11.893 4.883c.336.21.746.379 1.206.495z" fill="#000"/><path fill-rule="evenodd" clip-rule="evenodd" d="M193.421 180.375c.01 7.036-9.861 12.736-22.049 12.73-12.187-.006-22.075-5.715-22.085-12.751-.002-1.288.326-2.529.937-3.696.469-.898-.412-1.846-1.968-2.119-1.555-.272-3.197.235-3.666 1.132-.775 1.483-1.19 3.055-1.188 4.68.013 8.912 12.538 16.144 27.975 16.151 15.438.008 27.941-7.211 27.928-16.124-.013-8.913-12.538-16.144-27.975-16.151a47.19 47.19 0 00-8.105.685c-1.555.271-2.433 1.219-1.961 2.117.472.898 2.115 1.407 3.67 1.136a37.195 37.195 0 016.401-.541c12.187.006 22.075 5.715 22.086 12.751zm-13.24-.006c.004 2.814-3.945 5.094-8.82 5.091-4.875-.002-8.83-2.285-8.834-5.1-.001-.938-1.32-1.699-2.945-1.7-1.625-.001-2.941.759-2.939 1.697.006 4.691 6.598 8.497 14.723 8.501 8.125.004 14.706-3.796 14.699-8.486-.007-4.691-6.599-8.497-14.724-8.501-1.625-.001-2.941.759-2.939 1.697.001.938 1.319 1.699 2.944 1.7 4.875.003 8.83 2.286 8.835 5.101zm-7.578.717c1.148-.663 1.147-1.739-.003-2.403l-15.409-8.896c-1.15-.664-3.013-.665-4.161-.002-1.148.663-1.146 1.739.004 2.402l15.408 8.897c1.15.664 3.013.664 4.161.002z" fill="#FFE598"/><path fill-rule="evenodd" clip-rule="evenodd" d="M171.377 196.88c15.798.007 28.594-7.381 28.581-16.501-.014-9.121-12.83-16.521-28.627-16.528a48.243 48.243 0 00-8.294.701c-1.901.332-2.974 1.49-2.397 2.587.576 1.097 2.583 1.719 4.483 1.387a36.235 36.235 0 016.212-.524c11.827.005 21.423 5.546 21.433 12.374.01 6.828-9.569 12.359-21.395 12.353-11.827-.006-21.424-5.546-21.434-12.375-.001-1.25.317-2.454.909-3.586.574-1.097-.502-2.256-2.402-2.588-1.901-.333-3.907.286-4.481 1.383-.793 1.518-1.218 3.127-1.215 4.789.013 9.12 12.83 16.52 28.627 16.528zm27.276-16.501c.012 8.704-12.199 15.755-27.275 15.747-15.077-.007-27.31-7.07-27.323-15.775-.002-1.587.403-3.122 1.16-4.57.364-.698 1.641-1.092 2.852-.88 1.212.212 1.897.951 1.532 1.649-.629 1.203-.967 2.479-.965 3.805.011 7.244 10.191 13.121 22.738 13.127 12.548.006 22.712-5.862 22.701-13.106-.01-7.244-10.19-13.122-22.737-13.128a38.348 38.348 0 00-6.59.557c-1.21.211-2.49-.185-2.857-.884-.368-.7.316-1.437 1.525-1.647a46.117 46.117 0 017.916-.67c15.077.008 27.31 7.07 27.323 15.775zm-27.287 8.857c8.485.004 15.359-3.965 15.352-8.864-.008-4.899-6.891-8.873-15.376-8.877-1.986-.001-3.595.928-3.593 2.074.002 1.146 1.612 2.076 3.597 2.077 4.515.002 8.178 2.117 8.182 4.724.004 2.606-3.652 4.717-8.166 4.715-4.515-.003-8.179-2.118-8.182-4.724-.002-1.146-1.612-2.076-3.597-2.077-1.986-.001-3.595.928-3.593 2.074.007 4.899 6.891 8.873 15.376 8.878zm14.046-8.863c.007 4.482-6.281 8.113-14.045 8.109-7.765-.004-14.065-3.641-14.072-8.124-.001-.73 1.023-1.321 2.287-1.32 1.265 0 2.291.593 2.292 1.323.005 3.023 4.252 5.475 9.487 5.477 5.235.003 9.477-2.446 9.472-5.469-.004-3.022-4.251-5.474-9.486-5.477-1.265 0-2.292-.593-2.293-1.323-.001-.73 1.023-1.321 2.287-1.321 7.765.004 14.065 3.642 14.071 8.125zm-17.431.978c1.404.811 3.68.812 5.084.002 1.403-.81 1.4-2.125-.004-2.935l-15.409-8.896c-1.404-.811-3.68-.813-5.083-.002-1.404.81-1.401 2.124.003 2.935l15.409 8.896zm4.161-.531c-.893.515-2.343.515-3.238-.002l-15.409-8.896c-.896-.517-.896-1.354-.004-1.87.893-.515 2.343-.515 3.239.002l15.408 8.897c.896.517.896 1.354.004 1.869z" fill="#000"/><path d="M142.605 211.848c1.759 5.179-4.687 12.051-14.399 15.349-9.711 3.298-19.009 1.773-20.768-3.407-1.759-5.179 4.688-12.051 14.399-15.349 9.711-3.298 19.01-1.773 20.768 3.407z" fill="#D6D2CD"/><path d="M158.968 221.321c1.759 5.179-4.688 12.052-14.399 15.349-9.711 3.298-19.01 1.773-20.769-3.407-1.758-5.179 4.688-12.051 14.399-15.349 9.712-3.298 19.01-1.772 20.769 3.407z" fill="#D6D2CD"/><path d="M158.831 236.823c1.759 5.18-2.536 11.321-9.593 13.718-7.058 2.396-14.205.14-15.964-5.039-1.759-5.179 2.537-11.321 9.594-13.718 7.057-2.396 14.204-.14 15.963 5.039z" fill="#D6D2CD"/><path d="M148.421 247.239l-8.606-4.969v-3.699l10.098.89c1.167-.03 2.109-.099 2.828-.209.724-.106 1.291-.277 1.699-.513.557-.322.854-.655.888-1 .04-.349-.201.995-.724.693-.564-.325-1.205-.47-1.923-.433a4.425 4.425 0 00-2.01.602l-2.5-1.444v-3.764c.507-.192 2.051 1.291 2.638 1.199a9.327 9.327 0 013.036.04 8.402 8.402 0 012.811.996c1.293.746 1.986-.512 2.078.258l.011 3.826c.022.72-.499 1.387-1.563 2.001-.621.358-1.414.63-2.38.816-.966.186-2.268.301-3.906.344l-5.864.089 5.398-.748v3.865l-2.009 1.16zM132.836 221.399c-2.318 1.158-4.82 1.679-7.506 1.562-2.676-.112-5.192-.847-7.547-2.207-2.239-1.293-3.411-2.724-3.516-4.294-.015-.236-.007-4.304.025-4.546 0 0 1.914-1.493 4.94-3.24l1.228-.709a20.83 20.83 0 016.126-2.358c2.152-.457 4.249-.547 6.291-.271 2.061.276 3.928.898 5.602 1.864 1.495.863 2.032.701 2.635 1.646.333.52 1.116.959 1.116.959v3.97c-.097 1.323-1.025 2.603-2.785 3.841l-4.139-2.39v-3.716l1.724-.207c-.027-.696-.676.259-1.945-.474-1.38-.797-2.911-1.107-4.595-.932-1.665.175-3.546.858-5.643 2.047l-1.517.876c-2.171 1.254-3.431 2.358-3.781 3.314-.34.961.198.182 1.614 1 1.279.738 2.521 1.12 3.726 1.147 1.223.026 2.492-.287 3.808-.94l4.139.326v3.732zM154.953 230.823a21.022 21.022 0 01-6.25 2.398c-2.19.456-4.342.541-6.458.255-2.106-.282-4.001-.909-5.684-1.88-1.665-.962-2.75-2.05-3.256-3.266-.208-.501-.251-4.784-.245-5.293l.631-.104c.773-1.275 2.12-.803 4.043-1.924l.993-.573a20.987 20.987 0 016.278-2.398c2.226-.457 4.387-.542 6.485-.255 2.115.287 4.01-.756 5.684.211 1.674.966 3.048 1.334 3.536 2.55v3.778c.009.774-.236 1.56-.735 2.359-.782 1.28-2.157 2.488-4.126 3.624l-.896.518zm-3.284-2.947c2.106-1.216 3.33-2.358 3.67-3.426.34-1.067-.189-2.004-1.587-2.812-1.389-.801-3.003-1.107-4.843-.916-1.83.186-3.794.879-5.891 2.079l-.979.566c-2.052 1.184-3.266 2.321-3.643 3.409-.377 1.089.143 2.042 1.559 2.86 1.389.802 2.999 1.105 4.829.908 1.84-.202 3.808-.903 5.905-2.103l.98-.565z" fill="#FF8484"/><path fill-rule="evenodd" clip-rule="evenodd" d="M139.816 238.571v3.7l8.606 4.968 2.009-1.16v-3.199l.465-.007c.253-.007.497-.015.734-.025 1.298-.055 2.356-.161 3.173-.319.965-.185 1.759-.458 2.38-.816 1.063-.614 1.584-1.281 1.563-2.001l-.009-2.905v-.002l-.002-.919c-.041-.344-.202-.283-.483-.177-.348.131-.88.332-1.595-.081a8.402 8.402 0 00-2.811-.996 9.355 9.355 0 00-3.036-.04c-.224.035-.587-.158-.978-.401-.11-.068-.221-.14-.333-.211l-.129-.083a8.31 8.31 0 00-.6-.357 1.675 1.675 0 00-.365-.147.403.403 0 00-.234 0v3.764l2.501 1.444c.324-.187.657-.33 1.001-.431a4.375 4.375 0 011.303-.176 3.462 3.462 0 011.313.278c.108.048.213.101.315.16a.271.271 0 00.261.02 2.928 2.928 0 01-.424.287l-.021.012c-.342.193-.792.342-1.35.447a14.285 14.285 0 01-1.163.154c-.239.023-.495.042-.768.058-.299.018-.619.033-.959.044l-.267.007-10.097-.89zm7.535-.539l-7.43-.655a1.197 1.197 0 00-1.304 1.194v3.7c0 .428.228.824.599 1.038l8.606 4.968c.371.215.828.215 1.199 0l2.009-1.16c.371-.214.6-.61.6-1.038v-2.031c1.354-.056 2.493-.167 3.399-.341 1.052-.203 1.982-.511 2.753-.956 1.16-.67 2.195-1.656 2.163-3.056l-.011-3.812a1.593 1.593 0 00-.3-.914 1.34 1.34 0 00-1.057-.542 1.716 1.716 0 00-.583.1l-.001.001c-.067.022-.24.087-.254.093a.68.68 0 01-.229.055c-.031 0-.109-.003-.254-.086a9.583 9.583 0 00-3.206-1.139 10.718 10.718 0 00-1.451-.155 22.635 22.635 0 002.954-1.435l.896-.517c2.058-1.188 3.619-2.518 4.546-4.033.591-.947.925-1.951.914-2.995v-3.772c0-.153-.029-.304-.086-.446-.388-.968-1.12-1.536-1.823-1.953-.334-.199-.701-.385-1.05-.563l-.041-.021c-.374-.19-.747-.381-1.135-.605-1.193-.689-2.424-.622-3.407-.514-.217.024-.421.049-.618.073-.769.095-1.406.174-2.097.08-2.241-.306-4.539-.213-6.887.269h-.002a22.107 22.107 0 00-3.917 1.197c1.481-1.2 2.463-2.589 2.581-4.198.002-.029.003-.058.003-.088v-3.97c0-.433-.234-.832-.611-1.044l-.002-.002.001.001-.013-.008-.065-.04a3.331 3.331 0 01-.232-.157c-.207-.152-.339-.285-.383-.354-.448-.703-.929-1.034-1.486-1.294-.157-.074-.301-.135-.444-.196-.319-.137-.638-.273-1.116-.549-1.819-1.05-3.838-1.718-6.041-2.014-2.187-.295-4.423-.197-6.7.286a22.053 22.053 0 00-6.477 2.493l-1.228.709a53.978 53.978 0 00-3.686 2.327c-.44.304-.784.552-1.02.726-.118.087-.209.156-.271.203l-.072.056-.02.015-.006.004-.002.002.737.945-.737-.945a1.198 1.198 0 00-.451.786 3.776 3.776 0 00-.021.377v.008a155.46 155.46 0 00-.02 2.045c-.004 1.039-.004 2.182.008 2.355.144 2.173 1.753 3.891 4.112 5.253 2.52 1.454 5.224 2.246 8.097 2.366 2.31.1 4.508-.24 6.581-1.025-.001.413.01 1.505.042 2.589.019.604.044 1.22.079 1.723.017.25.038.486.063.685.018.146.055.425.153.659.644 1.549 1.971 2.809 3.763 3.844 1.831 1.057 3.878 1.73 6.124 2.03 1.613.218 3.243.234 4.887.048v2.445c0 .336.14.651.378.875zm-.378-4.527a18.592 18.592 0 01-4.727-.029c-2.106-.282-4.001-.908-5.684-1.88-1.665-.961-2.75-2.05-3.256-3.266-.209-.501-.252-4.784-.245-5.293l.631-.104c.438-.724 1.062-.884 1.871-1.093.616-.159 1.34-.346 2.171-.831l.994-.573a20.977 20.977 0 016.278-2.398c2.225-.457 4.387-.542 6.484-.255.86.117 1.684.014 2.47-.085 1.15-.144 2.221-.278 3.215.296.428.247.836.455 1.215.648 1.104.562 1.958.997 2.321 1.902v3.778c.009.774-.236 1.56-.736 2.359-.781 1.28-2.157 2.488-4.125 3.624l-.897.518a21.144 21.144 0 01-6.25 2.398 18.156 18.156 0 01-.931.172c-.267.043-.533.08-.799.112zm-12.938-12.424c.322-.152.643-.247.935-.325l.306-.081c.611-.159 1.175-.305 1.855-.701l.004-.003.993-.573c.366-.212.736-.412 1.11-.601a1.211 1.211 0 01-.392-.143l-4.139-2.39c-.371-.214-.6-.61-.6-1.038v-3.561c-1.047-.513-2.2-.71-3.491-.576-1.444.153-3.163.756-5.173 1.896l-1.513.874c-1.048.604-1.833 1.149-2.383 1.631a6.389 6.389 0 00-.345.326c.178.074.365.166.562.279 1.142.66 2.189.966 3.151.987.995.022 2.073-.231 3.249-.815.194-.096.411-.138.628-.121l4.139.326c.623.049 1.104.57 1.104 1.195v3.414zm-9.146-2.8c-1.205-.027-2.446-.409-3.725-1.147-.644-.372-1.107-.414-1.388-.439-.336-.03-.412-.037-.226-.561.073-.2.187-.408.34-.621l.008-.011c.581-.802 1.725-1.696 3.432-2.682l1.518-.876c2.097-1.189 3.978-1.872 5.643-2.047 1.478-.154 2.84.067 4.084.663.172.082.342.172.51.269.051.029.1.056.149.08.612.303 1.068.214 1.368.156.232-.045.37-.072.414.116a.644.644 0 01.015.122l-1.725.207v3.716l4.139 2.39c1.761-1.238 2.689-2.518 2.786-3.841v-3.97s-.784-.439-1.116-.959c-.384-.601-.741-.754-1.336-1.009-.34-.145-.756-.323-1.299-.637-1.675-.966-3.542-1.587-5.602-1.864-2.042-.276-4.139-.185-6.292.271a20.835 20.835 0 00-6.125 2.358l-1.228.709c-3.027 1.747-4.94 3.24-4.94 3.24-.032.242-.041 4.31-.025 4.546.105 1.57 1.276 3.001 3.516 4.294 2.355 1.36 4.87 2.095 7.547 2.207 2.686.117 5.188-.404 7.506-1.561v-3.733l-4.14-.326c-1.315.653-2.584.966-3.808.94zm30.44 19.458c-.018.177-.105.351-.26.522.115-.168.193-.391.233-.506l.006-.018c.024-.067.03-.083.021.002zm3.434-.941c.02-.007.018-.005-.002.001l.002-.001zm-9.729-14.883h-.003c-1.619.165-3.421.785-5.415 1.926l-.002.001-.975.563c-2.023 1.168-2.886 2.118-3.109 2.764-.086.247-.061.405.026.565.114.209.392.513.999.864 1.137.656 2.485.928 4.101.754 1.633-.179 3.442-.809 5.437-1.95l.001-.001.976-.563c1.007-.582 1.756-1.119 2.279-1.607.53-.495.764-.88.848-1.145.074-.23.05-.385-.043-.55-.119-.211-.401-.513-1.001-.859-1.137-.657-2.491-.931-4.119-.762zm-6.015.887c2.097-1.201 4.061-1.894 5.891-2.079 1.84-.192 3.454.114 4.843.916 1.398.807 1.927 1.744 1.587 2.811-.341 1.068-1.564 2.21-3.67 3.426l-.98.565c-2.097 1.201-4.066 1.902-5.905 2.103-1.831.197-3.44-.106-4.829-.908-1.417-.818-1.936-1.771-1.559-2.859.377-1.089 1.591-2.226 3.642-3.41l.98-.565z" fill="#000"/><path d="M148.422 243.353l-8.606-4.968 1.708-.986 8.39-.155c1.167-.029 2.11-.099 2.829-.209.724-.106 1.29-.277 1.698-.512.558-.322.854-.656.889-1.001.04-.349-.202-.674-.725-.976-.563-.325-1.204-.47-1.923-.433a4.418 4.418 0 00-2.009.602l-2.501-1.443c.765-.442 1.644-.741 2.639-.897 1-.152 2.012-.139 3.035.04a8.402 8.402 0 012.811.996c1.294.747 1.987 1.505 2.079 2.275.097.773-.42 1.487-1.552 2.141-.621.358-1.415.631-2.38.816-.966.186-2.268.301-3.907.344l-5.864.09 5.399 3.116-2.01 1.16z" fill="#FFB5B5"/><path fill-rule="evenodd" clip-rule="evenodd" d="M138.618 238.385c0-.428.228-.824.599-1.038l1.707-.986c.176-.101.375-.157.578-.16l8.386-.155c1.141-.029 2.026-.096 2.674-.195l.007-.001c.634-.093 1.031-.229 1.258-.357a2.293 2.293 0 00-1.083-.182 3.22 3.22 0 00-1.471.443 1.2 1.2 0 01-1.199 0l-2.501-1.444a1.198 1.198 0 010-2.076c.909-.525 1.932-.867 3.052-1.042l.005-.001a10.509 10.509 0 013.421.044 9.604 9.604 0 013.206 1.138c1.339.773 2.502 1.79 2.669 3.168.19 1.526-.904 2.609-2.143 3.325-.771.445-1.701.753-2.753.955-1.058.204-2.434.321-4.101.365h-.013l-1.523.024 1.638.946a1.198 1.198 0 010 2.076l-2.009 1.16a1.2 1.2 0 01-1.199 0l-8.606-4.969a1.198 1.198 0 01-.599-1.038zm20.118-2.698c-.092-.77-.785-1.529-2.078-2.275a8.408 8.408 0 00-2.812-.996 9.32 9.32 0 00-3.035-.04 8.53 8.53 0 00-1.276.298 7.014 7.014 0 00-1.363.598l2.501 1.444a4.418 4.418 0 012.009-.602c.719-.037 1.36.107 1.923.433.523.302.765.627.725.975-.035.346-.331.679-.889 1.001-.408.236-.974.407-1.698.513-.719.109-1.662.179-2.829.209l-8.39.154-1.707.986 8.605 4.969 2.01-1.16-5.398-3.117 5.863-.089c1.639-.044 2.941-.158 3.907-.344.965-.186 1.759-.458 2.38-.816 1.132-.654 1.65-1.368 1.552-2.141z" fill="#000"/><path d="M132.836 217.51c-2.318 1.157-4.82 1.678-7.506 1.561-2.676-.112-5.192-.847-7.547-2.207-2.575-1.486-3.739-3.157-3.49-5.01.266-1.853 1.913-3.654 4.939-5.401l1.228-.709a20.83 20.83 0 016.126-2.358c2.152-.456 4.249-.547 6.291-.27 2.061.276 3.928.897 5.602 1.864 2.318 1.338 3.564 2.774 3.739 4.309.175 1.535-.75 3.014-2.773 4.437l-4.139-2.39c1.195-.807 1.77-1.558 1.724-2.254-.027-.696-.676-1.41-1.945-2.143-1.38-.796-2.911-1.107-4.595-.932-1.665.175-3.546.858-5.643 2.047l-1.517.877c-2.171 1.253-3.431 2.357-3.781 3.313-.34.962.198 1.851 1.614 2.669 1.279.738 2.521 1.12 3.726 1.147 1.223.026 2.492-.287 3.808-.94l4.139 2.39zM154.953 226.933a21.017 21.017 0 01-6.251 2.398c-2.189.457-4.341.542-6.457.255-2.106-.282-4.001-.908-5.684-1.88-1.665-.961-2.75-2.05-3.256-3.266-.506-1.216-.377-2.459.386-3.728.773-1.275 2.12-2.472 4.043-3.593l.993-.573a20.987 20.987 0 016.278-2.398c2.226-.457 4.387-.542 6.485-.255 2.115.287 4.01.914 5.684 1.88 1.674.967 2.755 2.058 3.242 3.274.506 1.216.359 2.464-.441 3.744-.782 1.28-2.157 2.488-4.126 3.624l-.896.518zm-3.284-2.947c2.106-1.216 3.33-2.358 3.67-3.425.34-1.068-.189-2.005-1.587-2.812-1.389-.802-3.003-1.108-4.843-.916-1.83.185-3.794.878-5.891 2.079l-.98.565c-2.051 1.184-3.265 2.321-3.642 3.41-.377 1.088.143 2.041 1.559 2.859 1.389.802 2.999 1.105 4.829.908 1.84-.201 3.808-.902 5.905-2.103l.98-.565z" fill="#FFB5B5"/><path fill-rule="evenodd" clip-rule="evenodd" d="M134.034 217.546a1.197 1.197 0 01-.662 1.036c-2.507 1.252-5.211 1.812-8.092 1.687h-.002l.053-1.198-.051 1.198c-2.872-.12-5.576-.911-8.096-2.366-2.716-1.568-4.426-3.618-4.079-6.208l.001-.012c.351-2.434 2.439-4.485 5.527-6.268l1.228-.709a22.028 22.028 0 016.476-2.492c2.278-.483 4.513-.582 6.701-.286 2.203.295 4.221.963 6.041 2.013 2.411 1.393 4.089 3.094 4.33 5.213.221 1.94-.828 3.61-2.564 5.017a22.133 22.133 0 013.917-1.197h.002c2.349-.482 4.647-.575 6.888-.269 2.253.306 4.299.978 6.122 2.03 1.797 1.038 3.126 2.303 3.752 3.859.674 1.627.436 3.278-.531 4.827-.927 1.515-2.488 2.845-4.546 4.033l-.897.518a22.23 22.23 0 01-6.604 2.533c-2.316.483-4.605.575-6.862.269-2.247-.3-4.293-.973-6.124-2.03-1.792-1.034-3.12-2.295-3.764-3.844-.672-1.615-.465-3.257.466-4.806l.002-.003c.915-1.51 2.448-2.832 4.464-4.007l.005-.003.993-.573c.366-.212.736-.412 1.11-.601a1.18 1.18 0 01-.392-.143l-4.14-2.389a1.199 1.199 0 01-.071-2.032c.541-.365.868-.671 1.047-.904.131-.172.15-.261.152-.28l-.001-.028c-.003-.015-.027-.113-.197-.301-.21-.23-.573-.519-1.15-.853-1.147-.661-2.422-.928-3.87-.777-1.445.152-3.163.755-5.173 1.895l-1.514.874c-1.047.605-1.832 1.15-2.382 1.632-.56.491-.793.844-.869 1.05-.046.131-.04.219.046.361.121.2.415.502 1.039.863 1.143.66 2.189.965 3.152.986.995.022 2.073-.231 3.249-.815a1.199 1.199 0 011.132.036l4.14 2.39c.382.22.612.633.598 1.074zm-9.145-1.486c-1.205-.027-2.447-.409-3.725-1.147-1.417-.818-1.955-1.707-1.614-2.669.349-.955 1.609-2.06 3.78-3.313l1.518-.877c2.097-1.189 3.978-1.872 5.643-2.047 1.683-.175 3.214.136 4.594.932 1.269.733 1.918 1.447 1.945 2.143.031.459-.209.942-.72 1.45a6.82 6.82 0 01-1.004.804l4.139 2.39c2.024-1.423 2.948-2.902 2.773-4.437-.175-1.535-1.421-2.971-3.739-4.309-1.674-.967-3.541-1.588-5.601-1.864-2.042-.276-4.14-.186-6.292.271a20.822 20.822 0 00-6.126 2.357l-1.228.709c-3.026 1.747-4.672 3.548-4.939 5.401-.248 1.853.915 3.524 3.491 5.011 2.354 1.359 4.87 2.095 7.547 2.206 2.168.095 4.216-.227 6.144-.963.461-.176.914-.375 1.361-.598l-4.139-2.39c-1.315.653-2.585.967-3.808.94zm35.086 6.731c.8-1.28.947-2.528.442-3.744-.488-1.216-1.569-2.307-3.243-3.274-1.674-.966-3.569-1.593-5.684-1.88-2.097-.286-4.259-.201-6.485.255a20.981 20.981 0 00-6.277 2.398l-.994.573c-1.922 1.121-3.27 2.319-4.042 3.593-.764 1.269-.893 2.512-.387 3.728.506 1.216 1.592 2.305 3.256 3.266 1.684.972 3.578 1.598 5.685 1.88 2.115.287 4.268.202 6.457-.255a21.022 21.022 0 006.25-2.398l.897-.517c1.968-1.137 3.343-2.345 4.125-3.625zm-10.941-4.766h-.003c-1.619.165-3.421.785-5.415 1.926l-.002.001-.976.564c-2.022 1.167-2.885 2.117-3.109 2.763-.085.247-.061.405.027.565.114.209.392.514.999.864 1.137.657 2.484.928 4.1.755 1.634-.18 3.443-.81 5.438-1.951l.001-.001.976-.563c1.006-.581 1.756-1.119 2.278-1.607.531-.495.765-.88.849-1.144.074-.231.05-.386-.043-.551-.119-.211-.401-.513-1.001-.859-1.138-.657-2.491-.931-4.119-.762zm-4.25 8.629c-1.83.197-3.44-.106-4.829-.908-1.416-.817-1.936-1.771-1.559-2.859.378-1.089 1.592-2.225 3.643-3.41l.979-.565c2.098-1.2 4.061-1.893 5.892-2.079 1.839-.191 3.454.114 4.843.916 1.398.807 1.927 1.744 1.586 2.812-.34 1.067-1.563 2.209-3.67 3.425l-.979.566c-2.098 1.2-4.066 1.901-5.906 2.102z" fill="#000"/><path d="M342.253 94.06l-59.405-34.297-59.405 34.298 59.405 34.297 59.405-34.297z" fill="#FFDBC0"/><path fill-rule="evenodd" clip-rule="evenodd" d="M342.627 94.276c.206-.12.206-.312 0-.43l-59.406-34.298a.825.825 0 00-.746 0L223.07 93.845c-.206.12-.206.312 0 .43l59.405 34.298c.206.119.54.119.746 0l59.406-34.297zm-1.119-.215l-58.66 33.867-58.659-33.867 58.659-33.868 58.66 33.868z" fill="#000"/><path d="M316.934 79.441l-8.763-5.059-59.405 34.298 8.762 5.059 59.406-34.298z" fill="#fff"/><path fill-rule="evenodd" clip-rule="evenodd" d="M317.306 79.657c.206-.12.206-.312 0-.43l-8.763-5.06a.825.825 0 00-.746 0l-59.405 34.298c-.206.119-.206.311 0 .43l8.763 5.059c.206.119.54.119.746 0l59.405-34.297zm-1.119-.216l-58.659 33.867-8.017-4.628 58.659-33.867 8.017 4.628z" fill="#000"/><path d="M342.253 94.06l-59.405 34.298v68.595l59.405-34.297V94.06z" fill="#FFB681"/><path fill-rule="evenodd" clip-rule="evenodd" d="M342.626 93.845c0-.238-.167-.334-.373-.215l-59.405 34.297a.826.826 0 00-.373.646v68.596c0 .238.167.334.373.215l59.405-34.298a.824.824 0 00.373-.646V93.845zm-.746.861v67.734l-58.659 33.867v-67.734l58.659-33.867z" fill="#000"/><path d="M340.054 101.042l-12.383 7.15v14.521l12.383-7.15v-14.521z" fill="#FFDBC0"/><path fill-rule="evenodd" clip-rule="evenodd" d="M340.427 100.826c0-.238-.167-.334-.373-.215l-12.384 7.149a.826.826 0 00-.373.646v14.522c0 .238.167.334.373.215l12.384-7.149a.826.826 0 00.373-.646v-14.522zm-.746.861v13.661l-11.638 6.719v-13.661l11.638-6.719z" fill="#000"/><path d="M313.223 123.744l-30.375 4.615v68.595l30.375-4.615v-68.595z" fill="#E0A173"/><path fill-rule="evenodd" clip-rule="evenodd" d="M282.635 128.13a.8.8 0 00-.16.445v68.595c0 .181.098.286.244.263l30.375-4.615c.115-.017.243-.11.343-.248a.804.804 0 00.159-.446v-68.595c0-.18-.097-.285-.244-.263l-30.375 4.615c-.114.018-.242.11-.342.249zm30.215-3.87v67.677l-29.629 4.502v-67.677l29.629-4.502z" fill="#000"/><path d="M223.443 94.06l59.405 34.298v68.595l-59.405-34.297V94.06z" fill="#4E4E4E"/><path fill-rule="evenodd" clip-rule="evenodd" d="M223.07 93.845c0-.238.167-.334.373-.215l59.405 34.297a.826.826 0 01.373.646v68.596c0 .238-.167.334-.373.215l-59.405-34.298a.824.824 0 01-.373-.646V93.845zm.746.861v67.734l58.659 33.867v-67.734l-58.659-33.867z" fill="#000"/><path d="M240.889 104.133l41.959 24.225v48.45l-41.959-24.225v-48.45z" fill="#000"/><path d="M249.241 108.956l8.256 4.766v11.753l-8.256-4.766v-11.753z" fill="#fff"/><path fill-rule="evenodd" clip-rule="evenodd" d="M248.868 108.74c0-.238.167-.335.373-.216l8.255 4.767a.824.824 0 01.373.646v11.752c0 .238-.167.335-.373.216l-8.255-4.767a.824.824 0 01-.373-.646V108.74zm.746.861v10.891l7.509 4.336v-10.891l-7.509-4.336z" fill="#000"/><path d="M260.135 187.828c0 8.086-11.182 14.641-24.975 14.641-13.794 0-24.976-6.555-24.976-14.641s11.182-14.64 24.976-14.64c13.793 0 24.975 6.554 24.975 14.64z" fill="#D6D2CD"/><path d="M124.921 129.192c2.938-1.696 9.905.739 12.843 2.435l26.089 15.062c2.322.092 7.522-.653 9.296.372v5.414c-.016 1.462-.99 2.922-2.922 4.037-3.898 2.251-10.217 2.251-14.114 0-1.775-1.024-2.742-2.339-2.9-3.68l-26.088-15.062c-1.468-.847-2.203-1.958-2.204-3.068v-5.51z" fill="#5E6FDB"/><path d="M127.125 126.232c2.938-1.697 7.702-1.697 10.64 0l26.088 15.062c2.322.091 4.599.649 6.374 1.674 3.897 2.25 3.897 5.899 0 8.149-3.898 2.25-10.217 2.25-14.114 0-1.775-1.025-2.742-2.34-2.9-3.68l-26.088-15.062c-2.938-1.697-2.938-4.447 0-6.143z" fill="#B0B8ED"/><path fill-rule="evenodd" clip-rule="evenodd" d="M132.445 125.389c1.87 0 3.717.413 5.105 1.215l26.088 15.062a.436.436 0 00.199.057c2.27.089 4.475.635 6.175 1.617 1.87 1.08 2.708 2.435 2.708 3.701 0 1.267-.838 2.622-2.708 3.702-1.868 1.078-4.343 1.63-6.842 1.63-2.498 0-4.973-.552-6.841-1.63-1.703-.983-2.551-2.197-2.688-3.358a.431.431 0 00-.212-.322l-26.088-15.062c-1.391-.803-1.989-1.795-1.989-2.699 0-.903.598-1.896 1.989-2.698 1.388-.802 3.234-1.215 5.104-1.215zm0-.861c-1.981 0-3.985.435-5.535 1.33-1.547.893-2.419 2.124-2.419 3.444 0 1.32.872 2.551 2.419 3.444l25.908 14.958c.253 1.438 1.322 2.77 3.08 3.785 2.03 1.171 4.663 1.745 7.272 1.745 2.61 0 5.243-.574 7.273-1.745 2.027-1.171 3.138-2.765 3.138-4.448 0-1.682-1.111-3.277-3.138-4.447-1.822-1.052-4.129-1.621-6.466-1.727l-25.996-15.009c-1.55-.895-3.555-1.33-5.536-1.33z" fill="#000"/><path d="M137.747 132.361c1.043-.602 2.733-.602 3.776 0l21.044 12.15c1.523-.175 3.164.078 4.345.76 1.879 1.085 1.879 2.844 0 3.929-1.879 1.084-4.926 1.084-6.805 0-1.181-.682-1.62-1.63-1.316-2.51l-21.044-12.15c-1.042-.602-1.042-1.577 0-2.179z" fill="#5E6FDB"/><path fill-rule="evenodd" clip-rule="evenodd" d="M139.635 132.34c.628 0 1.232.139 1.672.393l21.045 12.151c.08.046.173.065.264.054 1.455-.166 2.998.081 4.08.706.861.497 1.194 1.088 1.194 1.591 0 .503-.333 1.094-1.194 1.592-.858.495-2.011.756-3.187.756-1.176 0-2.328-.261-3.187-.756-1.079-.624-1.335-1.385-1.124-1.997a.43.43 0 00-.192-.513l-21.043-12.15c-.443-.255-.567-.53-.567-.717 0-.186.124-.461.567-.717.44-.254 1.044-.393 1.672-.393zm0-.861c-.739 0-1.501.161-2.103.509-.6.346-.997.86-.997 1.462 0 .603.397 1.117.997 1.463l20.762 11.987c-.173 1.025.446 2.008 1.598 2.672 1.02.59 2.33.872 3.617.872s2.598-.282 3.618-.872c1.018-.587 1.624-1.418 1.624-2.337 0-.919-.606-1.749-1.624-2.337-1.24-.716-2.914-.982-4.466-.83l-20.923-12.08c-.602-.348-1.364-.509-2.103-.509z" fill="#000"/><path d="M128.25 114.699L68.845 80.402 9.44 114.699l59.405 34.298 59.405-34.298z" fill="#FFDBC0"/><path fill-rule="evenodd" clip-rule="evenodd" d="M128.623 114.915c.206-.119.206-.312 0-.431L69.218 80.186a.824.824 0 00-.746 0L9.067 114.484c-.206.119-.206.312 0 .431l59.405 34.297c.206.119.54.119.746 0l59.405-34.297zm-1.119-.216l-58.659 33.867-58.66-33.867 58.66-33.867 58.659 33.867z" fill="#000"/><path d="M128.25 114.7l-28.04-16.189-59.405 34.298 28.04 16.189L128.25 114.7z" fill="#FFDBC0"/><path fill-rule="evenodd" clip-rule="evenodd" d="M128.623 114.916c.206-.119.206-.312 0-.431l-28.04-16.189a.824.824 0 00-.746 0l-59.405 34.298c-.206.119-.206.311 0 .43l28.04 16.189c.206.119.54.119.746 0l59.405-34.297zm-1.119-.216l-58.659 33.867-27.294-15.758 58.659-33.867 27.294 15.758z" fill="#000"/><path d="M119.424 114.53l-10.855-6.267-14.12 8.153 10.855 6.267 14.12-8.153z" fill="#fff"/><path fill-rule="evenodd" clip-rule="evenodd" d="M119.797 114.746c.205-.119.205-.312 0-.431l-10.855-6.267a.824.824 0 00-.746 0l-14.12 8.152c-.207.119-.207.312 0 .431l10.854 6.267c.206.119.54.119.746 0l14.121-8.152zm-1.119-.216l-13.375 7.722-10.11-5.836 13.376-7.722 10.109 5.836z" fill="#000"/><path d="M103.067 129.808l-60.39-34.866-8.052 4.648 60.39 34.866 8.052-4.648z" fill="#fff"/><path fill-rule="evenodd" clip-rule="evenodd" d="M103.44 130.023c.206-.118.206-.311 0-.43L43.05 94.726a.824.824 0 00-.746 0l-8.051 4.649c-.206.119-.206.311 0 .43l60.39 34.867c.206.119.54.119.746 0l8.051-4.649zm-1.119-.215l-7.305 4.218L35.371 99.59l7.306-4.218 59.644 34.436z" fill="#000"/><path d="M128.25 114.699l-59.405 34.298v68.595l59.405-34.298v-68.595z" fill="#FFB681"/><path fill-rule="evenodd" clip-rule="evenodd" d="M128.623 114.483c0-.237-.167-.334-.373-.215l-59.406 34.298a.824.824 0 00-.372.646v68.595c0 .238.166.334.372.215l59.406-34.297a.826.826 0 00.373-.646v-68.596zm-.746.862v67.734l-58.66 33.867v-67.734l58.66-33.867z" fill="#000"/><path d="M9.438 114.699l59.406 34.298v68.595L9.438 183.294v-68.595z" fill="#E0A173"/><path fill-rule="evenodd" clip-rule="evenodd" d="M9.066 114.483c0-.237.167-.334.373-.215l59.405 34.298a.824.824 0 01.373.646v68.595c0 .238-.167.334-.373.215L9.44 183.725a.826.826 0 01-.373-.646v-68.596zm.746.862v67.734l58.66 33.867v-67.734l-58.66-33.867z" fill="#000"/><path d="M30.74 138.191l16.805 9.703v8.336l-16.806-9.703v-8.336z" fill="#4E4E4E"/><path fill-rule="evenodd" clip-rule="evenodd" d="M30.367 137.975c0-.238.167-.334.373-.215l16.805 9.703a.823.823 0 01.373.645v8.337c0 .238-.167.334-.373.215l-16.805-9.703a.824.824 0 01-.373-.646v-8.336zm.745.861v7.475l16.06 9.273v-7.476l-16.06-9.272z" fill="#000"/><path d="M102.704 129.431l-8.256 4.766v23.186l8.256-4.766v-23.186z" fill="#fff"/><path fill-rule="evenodd" clip-rule="evenodd" d="M103.077 129.216c0-.238-.167-.334-.373-.216l-8.256 4.767a.824.824 0 00-.373.646v23.186c0 .238.167.334.373.215l8.256-4.766a.824.824 0 00.373-.646v-23.186zm-.746.861v22.325l-7.51 4.336v-22.325l7.51-4.336z" fill="#000"/><path d="M256.627 189.7c-9.836 5.678-25.784 5.678-35.62 0-4.803-2.774-7.261-6.388-7.373-10.023l-.001-6.117c1.217-1.949 4.669-2.863 7.374-4.425 9.836-5.679 25.784-5.679 35.62 0 3.062 1.768 6.217 2.186 7.373 4.425v6.117c-.112 3.635-2.57 7.249-7.373 10.023z" fill="#5E6FDB"/><path fill-rule="evenodd" clip-rule="evenodd" d="M238.816 165.306c-6.39 0-12.757 1.409-17.595 4.202-.893.515-1.887.971-2.833 1.406-.499.229-.985.452-1.437.674-1.302.642-2.333 1.287-2.889 2.1l.002 5.983c.108 3.431 2.434 6.928 7.157 9.656 4.838 2.792 11.205 4.201 17.595 4.201 6.39 0 12.757-1.409 17.594-4.201 4.724-2.728 7.05-6.225 7.158-9.656v-6.003c-.518-.93-1.457-1.525-2.721-2.106-.39-.18-.815-.359-1.261-.547-.998-.422-2.103-.888-3.176-1.508-4.837-2.792-11.204-4.201-17.594-4.201zm0-.861c6.501 0 13.026 1.431 18.025 4.317 1.026.592 2.043 1.021 3.018 1.432.46.194.91.384 1.348.585 1.329.611 2.526 1.326 3.174 2.583a.429.429 0 01.048.198v6.131c-.118 3.835-2.708 7.564-7.588 10.381-4.999 2.887-11.524 4.317-18.025 4.317-6.501 0-13.026-1.43-18.025-4.317-4.88-2.817-7.47-6.546-7.588-10.381v-.014l-.002-6.117c0-.081.023-.16.066-.228.679-1.089 1.952-1.849 3.303-2.516a56.935 56.935 0 011.517-.712c.92-.422 1.841-.844 2.704-1.342 4.999-2.886 11.524-4.317 18.025-4.317z" fill="#000"/><path d="M256.626 184.232c-9.836 5.679-25.784 5.679-35.62 0-9.836-5.679-9.836-14.886 0-20.565 9.836-5.679 25.784-5.679 35.62 0 9.836 5.679 9.836 14.886 0 20.565z" fill="#B0B8ED"/><path fill-rule="evenodd" clip-rule="evenodd" d="M238.816 159.839c-6.391 0-12.758 1.408-17.595 4.201-4.839 2.794-7.162 6.396-7.162 9.91 0 3.513 2.323 7.115 7.162 9.909 4.837 2.793 11.204 4.202 17.595 4.202 6.39 0 12.757-1.409 17.594-4.202 4.84-2.794 7.162-6.396 7.162-9.909 0-3.514-2.322-7.116-7.162-9.91-4.837-2.793-11.204-4.201-17.594-4.201zm0-.861c6.501 0 13.026 1.43 18.025 4.316 4.996 2.885 7.592 6.726 7.592 10.656 0 3.929-2.596 7.77-7.592 10.655-4.999 2.886-11.524 4.317-18.025 4.317-6.502 0-13.027-1.431-18.025-4.317-4.997-2.885-7.593-6.726-7.593-10.655 0-3.93 2.596-7.771 7.593-10.656 4.998-2.886 11.523-4.316 18.025-4.316z" fill="#000"/><path d="M256.34 163.693c-9.654-5.714-25.306-5.714-34.96 0l34.96 20.69c9.654-5.713 9.654-14.977 0-20.69z" fill="#5E6FDB"/><path fill-rule="evenodd" clip-rule="evenodd" d="M242.276 171.953a64.592 64.592 0 00-1.707-.951c-.213-.115-.225-.307-.026-.431.198-.123.532-.129.745-.015.578.311 1.157.634 1.734.967 3.759 2.17 6.745 4.392 8.53 6.237.89.92 1.496 1.762 1.737 2.466.237.691.147 1.334-.573 1.75-.72.415-1.833.467-3.03.331-1.22-.14-2.678-.49-4.272-1.004-3.195-1.03-7.043-2.754-10.803-4.924a65.017 65.017 0 01-1.674-1.001c-.199-.123-.187-.316.026-.431.213-.114.547-.107.746.016.53.328 1.08.657 1.648.985 3.711 2.143 7.483 3.828 10.571 4.824 1.548.499 2.896.815 3.962.937 1.09.124 1.742.031 2.08-.164.338-.195.5-.572.284-1.201-.211-.615-.759-1.394-1.623-2.287-1.725-1.783-4.644-3.961-8.355-6.104zm-4.941-2.967c-.179.132-.51.156-.74.053-2.663-1.199-5.134-2.072-7.112-2.533-.99-.231-1.829-.352-2.49-.368-.661-.016-1.079.074-1.33.219-.251.144-.406.386-.379.768.028.381.237.865.637 1.437.799 1.142 2.311 2.569 4.387 4.106.179.133.138.324-.091.428-.23.103-.561.079-.741-.053-2.109-1.562-3.684-3.039-4.533-4.253-.424-.605-.678-1.162-.712-1.64-.035-.478.151-.915.686-1.224.535-.309 1.292-.416 2.12-.396.828.019 1.792.166 2.841.411 2.103.49 4.661 1.4 7.366 2.617.229.104.271.295.091.428z" fill="#000"/><path fill-rule="evenodd" clip-rule="evenodd" d="M248.398 172.36c-.235-.1-.287-.29-.115-.426 1.741-1.379 2.98-2.638 3.606-3.641.313-.502.463-.924.461-1.257-.001-.332-.151-.546-.381-.68-.339-.195-.991-.288-2.08-.164-1.066.122-2.415.439-3.962.938-3.088.995-6.86 2.681-10.571 4.823-3.711 2.143-6.63 4.321-8.355 6.104-.864.893-1.413 1.671-1.624 2.287-.215.629-.054 1.005.285 1.201.23.133.602.219 1.176.22.577.001 1.309-.086 2.179-.267 1.737-.361 3.916-1.076 6.306-2.081.235-.099.565-.07.736.066.172.136.12.327-.115.426-2.431 1.023-4.701 1.774-6.57 2.162-.933.194-1.793.304-2.539.303-.747-.001-1.427-.115-1.919-.399-.72-.415-.81-1.058-.573-1.749.241-.704.847-1.546 1.737-2.466 1.784-1.845 4.77-4.067 8.53-6.237 3.759-2.171 7.608-3.895 10.803-4.925 1.594-.514 3.052-.864 4.272-1.003 1.196-.137 2.31-.085 3.029.331.492.284.689.676.691 1.108.002.43-.188.927-.524 1.466-.673 1.078-1.974 2.389-3.746 3.793-.172.136-.501.166-.737.067z" fill="#000"/><path d="M237.821 174.524c-1.121-.647-1.584-1.428-1.035-1.745.55-.317 1.903-.05 3.024.597 1.12.647 1.584 1.428 1.034 1.746-.549.317-1.903.049-3.023-.598z" fill="#000"/><path fill-rule="evenodd" clip-rule="evenodd" d="M240.454 174.471c-.156-.263-.501-.582-1.017-.88a5.167 5.167 0 00-1.524-.587c-.492-.097-.701-.041-.754-.01-.053.031-.151.151.017.435.156.263.501.582 1.017.88a5.167 5.167 0 001.524.587c.492.098.701.041.754.01.054-.031.151-.151-.017-.435zm.998-.197c.206.347.261.777-.235 1.063-.496.286-1.239.255-1.841.136a6.46 6.46 0 01-1.928-.733c-.605-.349-1.051-.745-1.27-1.114-.206-.347-.261-.776.235-1.063.496-.286 1.239-.254 1.841-.135a6.476 6.476 0 011.929.733c.604.349 1.051.744 1.269 1.113z" fill="#000"/><path fill-rule="evenodd" clip-rule="evenodd" d="M238.816 159.839c-6.391 0-12.758 1.408-17.595 4.201-4.839 2.794-7.162 6.396-7.162 9.91 0 3.513 2.323 7.115 7.162 9.909 4.837 2.793 11.204 4.202 17.595 4.202 6.39 0 12.757-1.409 17.594-4.202 4.84-2.794 7.162-6.396 7.162-9.909 0-3.514-2.322-7.116-7.162-9.91-4.837-2.793-11.204-4.201-17.594-4.201zm0-.861c6.501 0 13.026 1.43 18.025 4.316 4.996 2.885 7.592 6.726 7.592 10.656 0 3.929-2.596 7.77-7.592 10.655-4.999 2.886-11.524 4.317-18.025 4.317-6.502 0-13.027-1.431-18.025-4.317-4.997-2.885-7.593-6.726-7.593-10.655 0-3.93 2.596-7.771 7.593-10.656 4.998-2.886 11.523-4.316 18.025-4.316z" fill="#000"/><path d="M257.892 225.118c9.667 5.581 28.148 5.647 34.115 5.511 1.113-.026 1.975-.523 2.019-1.166.035-.51.062-5.694.052-6.481 0 0-1.362-8.46-9.597-13.215-7.343-4.239-19.247-4.239-26.589 0-2.507 1.448-4.711 1.577-5.506 3.429v4.328c.036 2.751 1.871 5.495 5.506 7.594z" fill="#FF8484"/><path fill-rule="evenodd" clip-rule="evenodd" d="M271.186 207.173c4.736 0 9.441 1.045 13.002 3.101 3.995 2.306 6.325 5.511 7.657 8.147a19.957 19.957 0 011.33 3.33 15.243 15.243 0 01.311 1.243l.007.041c.009.927-.019 5.914-.051 6.388-.004.053-.05.193-.317.347-.259.149-.652.262-1.131.273-2.971.068-9.055.085-15.595-.608-6.56-.696-13.493-2.099-18.214-4.825-3.527-2.036-5.18-4.619-5.213-7.09v-4.198c.32-.658.889-1.055 1.77-1.461.272-.125.58-.254.915-.393.755-.314 1.641-.683 2.528-1.194 3.561-2.056 8.265-3.101 13.001-3.101zm22.892 15.808l.578-.093a.499.499 0 01.007.086c.011.782-.016 5.991-.053 6.529-.041.589-.447 1.02-.9 1.281-.462.267-1.056.415-1.69.43-2.996.068-9.135.086-15.745-.615-6.589-.699-13.73-2.12-18.675-4.975-3.741-2.159-5.76-5.063-5.799-8.093V213.195c0-.079.016-.158.047-.23.486-1.131 1.403-1.705 2.404-2.167.344-.159.693-.304 1.049-.451.722-.3 1.476-.613 2.299-1.087 3.781-2.183 8.699-3.258 13.586-3.258 4.888 0 9.806 1.075 13.587 3.258 4.241 2.448 6.71 5.85 8.117 8.633a21.192 21.192 0 011.408 3.526 16.176 16.176 0 01.338 1.357l.014.08.004.022.001.007.001.002v.001l-.578.093z" fill="#000"/><path d="M257.892 220.999c9.667 5.581 28.148 5.647 34.115 5.511 1.113-.026 1.975-.523 2.019-1.166.236-3.445.121-14.115-9.545-19.696-7.343-4.239-19.247-4.239-26.589 0-7.342 4.239-7.342 11.112 0 15.351z" fill="#FFB5B5"/><path fill-rule="evenodd" clip-rule="evenodd" d="M271.187 203.054c4.736 0 9.44 1.045 13.001 3.101 9.35 5.398 9.488 15.738 9.254 19.149-.004.053-.05.193-.317.347-.258.149-.651.262-1.131.273-2.971.068-9.055.086-15.595-.608-6.56-.696-13.493-2.099-18.214-4.824-3.564-2.058-5.214-4.674-5.214-7.169 0-2.495 1.65-5.11 5.214-7.168 3.561-2.056 8.266-3.101 13.002-3.101zm0-1.171c-4.887 0-9.806 1.075-13.587 3.258-3.778 2.181-5.799 5.122-5.799 8.182 0 3.061 2.021 6.002 5.799 8.183 4.945 2.855 12.086 4.276 18.676 4.974 6.609.701 12.749.683 15.745.615.633-.015 1.227-.163 1.689-.43.453-.261.86-.691.9-1.281.239-3.478.146-14.48-9.836-20.243-3.781-2.183-8.7-3.258-13.587-3.258z" fill="#000"/><path d="M266.039 216.293c2.842 1.641 7.45 1.641 10.292 0 2.842-1.64 2.842-4.301 0-5.942s-7.45-1.641-10.292 0c-2.842 1.641-2.842 4.302 0 5.942z" fill="#FF8484"/><path fill-rule="evenodd" clip-rule="evenodd" d="M271.185 209.706c1.787 0 3.543.395 4.854 1.152 1.314.759 1.839 1.672 1.839 2.464 0 .793-.525 1.706-1.839 2.464-1.311.757-3.067 1.153-4.854 1.153s-3.542-.396-4.853-1.153c-1.315-.758-1.839-1.671-1.839-2.464 0-.792.524-1.705 1.839-2.464 1.311-.757 3.066-1.152 4.853-1.152zm0-1.171c-1.938 0-3.908.425-5.439 1.309-1.527.882-2.424 2.12-2.424 3.478 0 1.359.897 2.596 2.424 3.478 1.531.884 3.501 1.31 5.439 1.31 1.938 0 3.908-.426 5.439-1.31 1.528-.882 2.424-2.119 2.424-3.478 0-1.358-.896-2.596-2.424-3.478-1.531-.884-3.501-1.309-5.439-1.309z" fill="#000"/><path fill-rule="evenodd" clip-rule="evenodd" d="M276.33 216.292c-2.842 1.641-7.45 1.641-10.293 0a5.649 5.649 0 01-1.127-.839 5.61 5.61 0 011.127-.839c2.843-1.641 7.451-1.641 10.293 0a5.61 5.61 0 011.127.839 5.649 5.649 0 01-1.127.839z" fill="#BDDCD8"/><path fill-rule="evenodd" clip-rule="evenodd" d="M266.544 214.908c2.563-1.479 6.717-1.479 9.279 0 .296.171.558.354.785.546a5.388 5.388 0 01-.785.547c-2.562 1.479-6.716 1.479-9.279 0a5.443 5.443 0 01-.785-.547 5.44 5.44 0 01.785-.546zm10.293-.586c-3.122-1.802-8.184-1.802-11.306 0a6.202 6.202 0 00-1.238.922c-.133.13-.133.291 0 .42.336.33.749.64 1.238.922 3.122 1.803 8.184 1.803 11.306 0a6.147 6.147 0 001.237-.922c.133-.129.133-.29 0-.42a6.223 6.223 0 00-1.237-.922z" fill="#000"/><path d="M203.338 213.295c5.231-.946 10.766-1.183 16.177-.695.246.022.412.157.37.299l2.355 4.621-4.974 4.317c-.041.142-.274.237-.521.217-2.828-.237-8.139 5.307-10.869 5.801l-5.22.861c-.913 1.566-3.392 3.445-5.591 5.59.03.143-.14.276-.387.297l-15.533 1.321c-.247.021-.477-.078-.51-.22-.73-3.134-.2-6.324 1.549-9.323 1.798-3.081 4.833-5.873 8.857-8.147 4.024-2.275 8.924-3.967 14.297-4.939z" fill="#D6D2CD"/><path d="M224.807 229.815c1.477.853 1.53 2.205.119 3.02s-7.699 4.847-9.176 3.994c-1.155-.667-7.57-6.178-10.305-8.543-.274-.236 4.156-4.578 4.565-4.42 4.097 1.579 13.642 5.282 14.797 5.949z" fill="#D6D2CD"/><path d="M224.378 207.328c.042-.142.253-3.976.006-3.999-5.411-.487-10.461 2.588-15.691 3.534-5.374.972-10.274 2.664-14.298 4.938-4.024 2.275-7.674 2.819-9.472 5.9-1.75 3-1.696 8.324-.934 11.571.034.143.263.24.51.219l15.534-1.321c.246-.021.417-.153.386-.296-.349-1.637-.058-3.3.855-4.865.962-1.648 2.585-3.141 4.737-4.357 2.152-1.216 4.772-2.121 7.645-2.641 2.73-.494 4.754.235 7.582.471.247.021.48-.074.521-.216l2.619-8.938z" fill="#55A398"/><path fill-rule="evenodd" clip-rule="evenodd" d="M216.079 203.328c2.626-.836 5.447-1.553 8.422-1.284.454.041.745.294.883.455.135.156.205.31.238.39.066.163.095.319.109.403.032.189.046.406.053.602.016.408.011.928-.003 1.426-.014.504-.037 1.01-.059 1.401a35.17 35.17 0 01-.049.674 1.283 1.283 0 01-.011.09v.002c-.002.014-.014.104-.044.205l-2.619 8.938c-.18.614-.675.894-.93 1a2.04 2.04 0 01-.939.141c-.925-.078-1.837-.216-2.653-.34-.441-.066-.854-.129-1.226-.175-1.131-.142-2.177-.188-3.365.027-2.756.499-5.234 1.361-7.239 2.494-2.011 1.137-3.44 2.484-4.257 3.884-.765 1.311-.984 2.648-.707 3.944.154.722-.254 1.248-.564 1.487a1.86 1.86 0 01-.977.366l-15.533 1.321a1.999 1.999 0 01-.954-.148c-.259-.111-.77-.412-.923-1.063-.411-1.75-.624-4.015-.508-6.24.115-2.202.559-4.52 1.584-6.277 1.09-1.869 2.727-2.916 4.447-3.761a51.773 51.773 0 011.962-.897l.726-.322a33.207 33.207 0 002.817-1.394c4.171-2.357 9.212-4.092 14.703-5.085 1.849-.334 3.644-.939 5.545-1.579.675-.227 1.363-.459 2.071-.685zm8.306.002c.246.022.035 3.856-.006 3.998l-2.619 8.938c-.042.143-.275.238-.522.217a36.14 36.14 0 01-2.487-.317c-1.69-.258-3.227-.492-5.094-.154-2.874.52-5.494 1.425-7.646 2.641s-3.775 2.709-4.736 4.357c-.914 1.565-1.205 3.228-.856 4.865.031.143-.139.275-.386.296l-15.534 1.321c-.246.021-.476-.076-.51-.219-.761-3.247-.816-8.571.935-11.571 1.225-2.101 3.313-3.023 5.792-4.117 1.157-.511 2.399-1.06 3.68-1.783 4.024-2.274 8.923-3.967 14.297-4.939 1.95-.352 3.874-1.001 5.802-1.65 3.244-1.093 6.496-2.189 9.89-1.883z" fill="#000"/><path d="M225.794 223.701c.769.444.339 4.718.339 4.718-.007.524-.348 1.038-1.024 1.429-1.412.815-3.753.784-5.23-.069-1.156-.667-7.571-6.178-10.306-8.543-.061-.053-.084-.108-.079-.159 0 0-.045-3.645.001-3.683.127-.106 1.818 1.718 2.052 1.808 4.096 1.579 13.092 3.832 14.247 4.499z" fill="#55A398"/><path fill-rule="evenodd" clip-rule="evenodd" d="M210.767 218.501c.364.354.687.664.781.7 2.13.821 5.586 1.825 8.575 2.693 2.757.801 5.118 1.486 5.672 1.806.769.444.339 4.719.339 4.719-.008.523-.348 1.037-1.024 1.428-1.412.815-3.753.784-5.23-.069-1.156-.667-7.571-6.178-10.306-8.543-.061-.052-.084-.107-.079-.159 0 0-.013-1.049-.018-2.027l-.002-.369c-.002-.694.002-1.272.02-1.287.064-.053.52.378.988.833l.177.171.107.104zm-2.564 2.55c-.016.539.268.938.526 1.162a594.633 594.633 0 005.759 4.92c1.048.88 2.052 1.713 2.87 2.369.78.626 1.482 1.168 1.876 1.395.971.561 2.154.818 3.268.833 1.111.014 2.295-.211 3.253-.764.905-.522 1.627-1.369 1.669-2.467l.001-.007.013-.146a29.608 29.608 0 00.107-2.107c.006-.585-.012-1.239-.094-1.801a4.125 4.125 0 00-.216-.875c-.096-.247-.311-.703-.794-.981-.261-.151-.636-.294-.992-.42a39.45 39.45 0 00-1.411-.459c-.995-.306-2.235-.666-3.552-1.049l-.351-.102c-2.847-.827-5.964-1.74-7.959-2.494a9.947 9.947 0 01-.145-.133 57.37 57.37 0 01-.463-.446l-.187-.183a21.197 21.197 0 00-.694-.65 3.862 3.862 0 00-.352-.278 1.64 1.64 0 00-.33-.177 1.39 1.39 0 00-.428-.092 1.309 1.309 0 00-1.377 1.245c-.005.058-.007.122-.009.179-.004.12-.006.278-.007.454-.002.355-.001.82.002 1.28.003.46.007.919.011 1.262l.004.415.002.117z" fill="#000"/><path d="M223.517 203.426c.042-.142-.124-.277-.371-.299-5.411-.488-9.223-1.112-14.454-.166-5.373.972-10.273 2.664-14.297 4.938-4.024 2.275-7.059 5.066-8.857 8.148-1.749 2.998-2.279 6.188-1.549 9.322.033.143.263.241.51.22l15.533-1.321c.247-.021.417-.153.387-.296-.35-1.637-.058-3.3.855-4.865.961-1.648 2.584-3.141 4.736-4.357 2.152-1.216 5.468-2.535 7.646-2.641 2.557-.124 4.71.255 6.72.471.247.021.48-.074.522-.216l2.619-8.938z" fill="#BDDCD8"/><path fill-rule="evenodd" clip-rule="evenodd" d="M220.254 213.866l-.016-.002a80.41 80.41 0 01-1.339-.157c-1.636-.2-3.274-.4-5.18-.308-.9.044-2.133.351-3.456.829a24.83 24.83 0 00-3.617 1.646c-2.01 1.136-3.439 2.484-4.256 3.884-.765 1.311-.984 2.648-.707 3.944.154.722-.254 1.248-.564 1.486-.311.24-.669.341-.977.367l-15.533 1.321a2.002 2.002 0 01-.956-.149c-.258-.112-.77-.414-.922-1.065-.81-3.482-.21-7.007 1.692-10.267 1.942-3.329 5.171-6.266 9.337-8.621 4.171-2.357 9.212-4.092 14.703-5.085 4.654-.842 8.274-.485 12.552-.064.728.071 1.474.145 2.248.215.308.027.675.132.99.387.323.261.719.829.504 1.562l-2.619 8.938c-.18.614-.675.894-.93 1a2.04 2.04 0 01-.939.14l-.015-.001zm.123-1.286c-.417-.045-.84-.097-1.271-.15-1.65-.202-3.423-.419-5.449-.321-2.178.105-5.494 1.424-7.646 2.641-2.152 1.216-3.775 2.709-4.736 4.357-.914 1.565-1.205 3.227-.856 4.864.031.143-.139.276-.386.297l-15.534 1.321c-.246.021-.476-.077-.51-.22-.729-3.134-.2-6.324 1.55-9.323 1.797-3.081 4.832-5.873 8.856-8.147 4.025-2.274 8.924-3.967 14.298-4.939 4.465-.807 7.898-.471 12.173-.051.733.072 1.49.146 2.281.217.246.022.412.157.37.299l-2.619 8.938c-.041.142-.274.238-.521.217z" fill="#000"/><path fill-rule="evenodd" clip-rule="evenodd" d="M202.319 219.67l-18.062-3.22.467-.873 18.062 3.221-.467.872z" fill="#000"/><path d="M224.994 222.925c1.477.853 1.53 2.204.119 3.019-1.412.815-3.753.785-5.23-.068-1.156-.667-7.57-6.178-10.306-8.543-.273-.237.211-.516.62-.358 4.097 1.579 13.642 5.283 14.797 5.95z" fill="#BDDCD8"/><path fill-rule="evenodd" clip-rule="evenodd" d="M211.906 217.635c4.582 1.774 12.073 4.704 13.089 5.29 1.477.853 1.53 2.205.118 3.02-1.411.814-3.753.784-5.23-.069-.96-.555-5.556-4.457-8.65-7.116l-.835-.719-.459-.395-.361-.313c-.214-.185.035-.396.349-.404a.723.723 0 01.271.046l.593.229 1.115.431zm15.522 6.763c.046 1.186-.708 2.11-1.669 2.665-.959.554-2.142.779-3.253.764-1.115-.014-2.298-.272-3.269-.832-.393-.227-1.096-.769-1.875-1.395a175.06 175.06 0 01-2.87-2.37 567.582 567.582 0 01-5.759-4.92c-.318-.274-.642-.793-.489-1.448a1.54 1.54 0 01.742-.975 1.977 1.977 0 011.676-.117c2.05.79 5.465 2.112 8.513 3.321 1.524.605 2.961 1.182 4.092 1.652 1.085.451 1.994.844 2.374 1.063.955.552 1.742 1.44 1.787 2.592z" fill="#000"/><path d="M221.379 213.214l3.014-10.335.431 4.306-3.015 9.043-.861.861v-3.875h.431z" fill="#000"/></svg>