<svg width="60" height="60" fill="none" xmlns="http://www.w3.org/2000/svg"><path d="M55.034 46.244a3.402 3.402 0 001.735-2.963V16.707a3.413 3.413 0 00-1.735-2.963L31.632.463a3.507 3.507 0 00-3.482 0L4.735 13.743A3.402 3.402 0 003 16.708v26.574c0 1.222.664 2.359 1.735 2.963L28.15 59.537c1.082.617 2.399.617 3.482 0l5.377-3.048-25.15-14.272a3.402 3.402 0 01-1.735-2.964V20.747c0-1.222.665-2.359 1.735-2.963l16.29-9.254a3.507 3.507 0 013.483 0l16.29 9.254a3.402 3.402 0 011.735 2.963V39.24a3.413 3.413 0 01-1.735 2.963l-8.526 4.839a1.655 1.655 0 000 2.89l4.564 2.589" fill="#F88F62"/><path d="M40.96 21.739l-9.326-5.298a3.507 3.507 0 00-3.482 0l-9.327 5.298a3.423 3.423 0 00-1.28 1.258L29.9 30V44.02c.603 0 1.206-.157 1.735-.46l9.326-5.297a3.403 3.403 0 001.735-2.964V24.702a3.364 3.364 0 00-1.735-2.963z" fill="#F88F62"/><path d="M17.535 22.985a3.427 3.427 0 00-.468 1.718v10.596c0 1.221.665 2.358 1.735 2.963l9.351 5.298c.542.302 1.145.46 1.735.46V30l-12.353-7.015z" fill="#F88F62"/><path d="M29.888 29.997l-12.353-7.004a3.416 3.416 0 00-.468 1.706v10.595c0 1.222.665 2.359 1.735 2.964l9.351 5.298c1.083.617 2.4.617 3.483 0l9.326-5.298a3.403 3.403 0 001.735-2.964V24.7c0-.617-.16-1.198-.468-1.706l-12.34 7.004z" fill="#F88F62"/><path d="M42.243 22.984a3.514 3.514 0 00-1.28-1.258l-9.326-5.297a3.507 3.507 0 00-3.482 0l-9.326 5.297a3.423 3.423 0 00-1.28 1.258l12.353 7.004 12.341-7.004z" fill="#F88F62"/><path d="M29.886 44.016l12.353-21.022a3.514 3.514 0 00-1.28-1.258l-9.326-5.298a3.507 3.507 0 00-3.482 0l-9.327 5.298A3.402 3.402 0 0017.09 24.7v10.596c0 1.222.665 2.359 1.735 2.964l9.327 5.297c.529.303 1.132.46 1.735.46z" fill="#F88F62"/></svg>