<svg width="400" height="400" viewBox="0 0 400 400" fill="none" xmlns="http://www.w3.org/2000/svg"><path fill-rule="evenodd" clip-rule="evenodd" d="M48.307 108.532c1.233-5.157 5.88-8.608 10.975-8.531.911-.013 1.839.085 2.766.307l116.438 27.863.004.001.003.001c.683.163 1.359.342 2.027.536 12.663 3.22 26.297 3.22 38.96 0a43.354 43.354 0 012.027-.536l.003-.001.004-.001 116.438-27.863a11.16 11.16 0 012.766-.307c5.095-.077 9.742 3.374 10.975 8.531 1.427 5.969-2.259 11.963-8.234 13.388l-116.583 27.819c-.48.132-.961.261-1.443.386-8.47 2.595-14.311 10.407-14.311 19.305v14.224a34.841 34.841 0 005.596 18.934l44.314 68.461c5.213 8.054 16.663 9.061 23.211 2.025l48.487-52.105c4.182-4.495 11.22-4.751 15.718-.573 4.499 4.178 4.755 11.209.573 15.703l-48.487 52.105c-16.411 17.636-45.089 15.137-58.18-5.088l-40.302-62.262c-.963-1.489-3.141-1.489-4.104 0l-40.302 62.262c-13.091 20.225-41.769 22.724-58.18 5.088l-48.487-52.105c-4.182-4.494-3.926-11.525.573-15.703 4.498-4.178 11.536-3.922 15.718.573l48.487 52.105c6.548 7.036 17.998 6.029 23.211-2.025l44.314-68.461a34.841 34.841 0 005.596-18.934V169.43c0-8.898-5.841-16.71-14.311-19.305-.482-.125-.963-.254-1.443-.386L56.541 121.92c-5.975-1.425-9.661-7.419-8.234-13.388z" fill="#000"/></svg>