<?xml version="1.0" encoding="UTF-8" standalone="no"?>
<!DOCTYPE svg PUBLIC "-//W3C//DTD SVG 1.1//EN" "http://www.w3.org/Graphics/SVG/1.1/DTD/svg11.dtd">
<svg width="100%" height="100%" viewBox="0 0 2500 1875" version="1.1" xmlns="http://www.w3.org/2000/svg" xmlns:xlink="http://www.w3.org/1999/xlink" xml:space="preserve" xmlns:serif="http://www.serif.com/" style="fill-rule:evenodd;clip-rule:evenodd;stroke-linejoin:round;stroke-miterlimit:2;">
    <g id="Layer-1" serif:id="Layer 1">
        <path d="M488.429,1874.8L144.01,1874.8C64.468,1874.8 0,1810.45 0,1731.11L0,143.713C0,64.349 64.466,0.002 144.01,0L488.429,0C567.973,0.002 632.46,64.349 632.46,143.713L632.46,789.814C641.301,734.169 655.055,680.147 673.265,628.207L673.462,627.638L673.778,626.746L674.008,626.092L674.554,624.555C798.852,274.232 1125.87,19.567 1514.96,1.081L1515.11,1.074L1515.13,1.072L1516.71,0.996L1518.06,0.938L1518.11,0.936L1519.82,0.863L1522.14,0.763L1523.55,0.711L1524.13,0.688L1526.1,0.616L1527.58,0.561L1528.93,0.519L1530.15,0.478L1531.83,0.428L1533.03,0.39L1534.01,0.365L1536.19,0.306L1537.54,0.274L1538.49,0.25L1538.99,0.24C1540.41,0.208 1541.83,0.18 1543.25,0.155L1543.96,0.141L1545.03,0.124L1545.26,0.12L1545.52,0.116L1546.69,0.098L1547.91,0.082L1548.29,0.077L1548.58,0.074L1549.43,0.063L1550.82,0.049L1551.32,0.043L1551.58,0.041L1552.17,0.035L1553.76,0.024L1554.35,0.019L1554.54,0.018L1554.91,0.016L1556.81,0.008L1557.38,0.005L1557.49,0.005C1558.46,0.001 1559.43,0 1560.4,0L1560.42,0C1561.58,0 1562.74,0.002 1563.9,0.007L1564.19,0.007L1564.87,0.011L1566.5,0.019L1567.45,0.027L1567.97,0.03L1568.5,0.035L1569.53,0.043L1571.17,0.061L1571.75,0.067L1572.01,0.071C1574.38,0.099 1576.76,0.137 1579.13,0.183L1579.3,0.186L1579.72,0.195L1581.64,0.235L1582.69,0.26L1583.07,0.268L1583.47,0.278L1584.66,0.306L1586.45,0.355L1586.83,0.364L1587.01,0.37C1589.44,0.437 1591.86,0.514 1594.27,0.599L1594.35,0.602L1594.56,0.61L1596.72,0.688L1597.84,0.732L1598.11,0.742L1598.41,0.755L1599.73,0.807L1601.61,0.887L1601.86,0.898L1601.98,0.903C1604.43,1.01 1606.88,1.126 1609.34,1.252L1611.74,1.378L1612.89,1.441L1613.08,1.451L1613.31,1.464L1614.74,1.544L1616.9,1.67C1620.56,1.887 1624.22,2.125 1627.87,2.384L1628,2.393L1628.16,2.405L1629.69,2.514L1631.77,2.669C1635.44,2.944 1639.1,3.241 1642.76,3.558L1644.57,3.716L1646.58,3.898C1650.26,4.232 1653.92,4.586 1657.58,4.962L1659.39,5.149L1661.34,5.356C1665.01,5.747 1668.67,6.16 1672.32,6.594L1674.14,6.81L1676.03,7.041C1679.69,7.49 1683.35,7.96 1686.99,8.451L1688.82,8.698L1690.65,8.951C1724.7,13.669 1758.17,20.212 1790.95,28.476L1790.96,28.479C1795.63,29.656 1800.29,30.867 1804.92,32.113L1805,32.135C1809.62,33.374 1814.21,34.647 1818.8,35.954L1818.98,36.006C1823.52,37.302 1828.05,38.631 1832.56,39.994L1832.72,40.042L1832.9,40.095L1834.17,40.481L1836.23,41.109C1838.49,41.801 1840.74,42.502 1842.99,43.21L1845.2,43.907L1846.21,44.229L1846.47,44.31L1846.76,44.404L1847.95,44.784L1849.57,45.306L1849.89,45.408L1850.05,45.462C1852.24,46.168 1854.42,46.882 1856.59,47.604L1856.71,47.644L1857.08,47.764L1858.91,48.374L1859.74,48.655L1860.12,48.781L1860.58,48.937L1861.64,49.292L1862.97,49.745L1863.52,49.93L1863.82,50.033L1864.36,50.218L1866.6,50.986L1866.91,51.092L1866.97,51.112C1868.01,51.469 1869.04,51.829 1870.08,52.189L1870.3,52.266L1871.02,52.518L1872.52,53.045L1873.15,53.267L1873.68,53.453L1874.37,53.7L1875.23,54.003L1876.24,54.363L1877.06,54.653L1877.53,54.824L1877.94,54.969L1879.42,55.505L1880.42,55.865L1880.63,55.94C1881.57,56.28 1882.51,56.62 1883.44,56.961L1883.79,57.089L1885.02,57.542L1886.04,57.916L1886.43,58.061L1887.15,58.326L1888.14,58.698L1888.73,58.915L1889.37,59.153L1890.5,59.575L1891.2,59.841L1891.42,59.921L1892.12,60.187C1894.47,61.07 1896.8,61.963 1899.14,62.865L1899.46,62.988L1899.57,63.031L1900.52,63.397L1901.92,63.943L1902.13,64.026L1902.35,64.11C1938.33,78.16 1973.24,94.36 2006.91,112.549L2006.91,112.563C2298.68,270.236 2497.58,577.528 2499.98,931.029L2499.98,931.441L2499.99,934.469L2500,937.5C2500,1448.79 2089.84,1864.43 1579.93,1874.8C1573.44,1874.93 1566.94,1875 1560.42,1875L1560.4,1875C1559.43,1875 1558.46,1875 1557.49,1875L1557.38,1875L1556.81,1874.99L1554.91,1874.98L1554.54,1874.98L1554.35,1874.98L1553.76,1874.98L1552.17,1874.97L1551.58,1874.96L1551.32,1874.96L1550.82,1874.95L1549.43,1874.94L1548.58,1874.93L1548.29,1874.92L1547.91,1874.92L1546.69,1874.9L1545.52,1874.88L1545.26,1874.88L1545.03,1874.88L1543.96,1874.86L1543.25,1874.85C1541.83,1874.82 1540.41,1874.79 1538.99,1874.76L1538.49,1874.75L1537.54,1874.73L1536.19,1874.69L1534.01,1874.63L1533.03,1874.61L1531.83,1874.57L1530.15,1874.52L1528.93,1874.48L1527.58,1874.44L1526.1,1874.38L1524.13,1874.31L1523.55,1874.29L1522.14,1874.24L1519.8,1874.14L1518.11,1874.06L1518.06,1874.06L1516.71,1874L1515.13,1873.93L1515.11,1873.93L1514.96,1873.92C1118.37,1855.08 786.266,1590.86 667.592,1230.11L667.512,1229.87L667.429,1229.61L666.804,1227.71L666.454,1226.63L665.729,1224.39L665.396,1223.35L665.206,1222.77L665.093,1222.41C650.895,1178.01 639.925,1132.17 632.46,1085.19L632.46,1731.11C632.46,1810.45 567.976,1874.8 488.429,1874.8ZM2163.39,897.416C2142.23,912.738 2000.63,1014.5 2000.63,1014.5C2000.63,1014.5 1903.97,1091.96 1803.09,1059.88C1789.48,1055.6 1775.14,1050.24 1760.64,1044.47C1773.99,1052.7 1786.65,1061.14 1798.16,1069.54C1883.55,1132.04 1877.76,1255.51 1877.76,1255.51C1877.76,1255.51 1878.76,1429.71 1878.91,1455.73C1879.05,1489.96 1876.44,1504.97 1853.92,1516.48C1831.39,1527.91 1817.67,1521.21 1789.93,1501.07C1768.88,1485.66 1628.07,1382.75 1628.07,1382.75C1628.07,1382.75 1524.34,1315.01 1523.82,1209.37C1523.71,1195.17 1524.3,1179.96 1525.4,1164.4C1521.58,1179.5 1517.51,1194.2 1513.05,1207.63C1479.9,1308.03 1360.47,1340.69 1360.47,1340.69C1360.47,1340.69 1194.71,1395.53 1169.89,1403.6C1137.38,1414.39 1122.17,1416.52 1104.32,1398.68C1086.46,1380.88 1088.59,1365.78 1099.2,1333.27C1107.36,1308.55 1161.98,1143.04 1161.98,1143.04C1161.98,1143.04 1194.49,1023.77 1294.98,990.497C1308.53,986.027 1323.21,981.903 1338.46,978.083C1322.82,979.19 1307.55,979.863 1293.35,979.798C1187.42,979.407 1119.37,876.061 1119.37,876.061C1119.37,876.061 1015.92,735.711 1000.52,714.725C980.251,687.119 973.443,673.382 984.905,650.92C996.433,628.436 1011.42,625.81 1045.79,625.94C1071.86,625.94 1246.45,626.613 1246.45,626.613C1246.45,626.613 1370.17,620.667 1432.94,705.762C1441.4,717.264 1449.82,729.982 1458.26,743.285C1452.3,728.766 1446.93,714.356 1442.54,700.857C1410.26,600.18 1487.69,503.713 1487.69,503.713C1487.69,503.713 1589.5,362.213 1604.75,341.075C1624.8,313.296 1635.75,302.662 1660.78,306.59C1685.77,310.474 1692.84,324.017 1703.43,356.592C1711.46,381.354 1764.73,547.226 1764.73,547.226C1764.73,547.226 1808.68,662.856 1746.95,748.689C1738.6,760.3 1729.1,772.193 1718.96,784.216C1731.01,774.124 1743.06,764.662 1754.59,756.263C1840.53,694.498 1956.43,738.207 1956.43,738.207C1956.43,738.207 2122.82,791.052 2147.66,799.039C2180.33,809.412 2193.88,816.596 2197.86,841.51C2201.8,866.446 2191.16,877.428 2163.39,897.416ZM1588.04,996.847C1570.84,1005.55 1574.43,1046.96 1596.03,1089.21C1617.62,1131.42 1649.1,1158.55 1666.28,1149.85C1683.51,1141.08 1679.81,1099.69 1658.25,1057.48C1636.57,1015.27 1605.2,988.101 1588.04,996.847ZM1431.9,1021.94C1398.32,1055.49 1382.16,1093.71 1395.8,1107.34C1409.43,1120.92 1447.74,1104.78 1481.3,1071.18C1514.88,1037.61 1531.06,999.391 1517.4,985.762C1503.75,972.176 1465.46,988.366 1431.9,1021.94ZM1699.9,885.358C1652.94,892.845 1617.36,914.309 1620.42,933.277C1623.42,952.245 1663.92,961.707 1710.86,954.176C1757.82,946.754 1793.42,925.247 1790.36,906.257C1787.36,887.289 1746.86,877.936 1699.9,885.358ZM1506.14,915.368C1514.88,898.223 1487.61,866.841 1445.22,845.334C1402.91,823.914 1361.43,820.311 1352.76,837.456C1344.03,854.601 1371.24,886.026 1413.61,907.49C1456.01,928.932 1497.4,932.469 1506.14,915.368ZM1617.63,803.475C1625.07,756.619 1615.65,716.188 1596.58,713.236C1577.52,710.285 1556.12,745.833 1548.75,792.689C1541.33,839.479 1550.77,879.911 1569.76,882.927C1588.86,885.922 1610.3,850.374 1617.63,803.475Z"/>
    </g>
</svg>
