<svg width="1000" height="1001" viewBox="0 0 1000 1001" fill="none" xmlns="http://www.w3.org/2000/svg">
  <style>
    @media (prefers-color-scheme: dark) {
      path { fill: white; }
    }
  </style>
  <path d="M781 960C726.8 1012.6 667 1004.4 610 979.6C549.4 954.3 494 952.7 430 979.6C350.3 1014 308 1004 260 960C-11 681 29 256 337 240C411.7 244 464 281.3 508 284.4C573.4 271.1 636 233 706 238C790.1 244.8 853 278 895 337.7C722 441.7 763 669.7 921.9 733.7C890.1 817.2 849.3 899.7 780.9 960.7L781 960ZM502 237C493.9 113 594.4 11 710 1C725.9 144 580 251 502 237Z" fill="black"/>
</svg>
