<?xml version="1.0" encoding="UTF-8" standalone="no"?>
<!-- Created with Inkscape (http://www.inkscape.org/) -->

<svg
   width="89.370422mm"
   height="97.752617mm"
   viewBox="0 0 89.370422 97.752617"
   version="1.1"
   id="svg1"
   xmlns="http://www.w3.org/2000/svg"
   xmlns:svg="http://www.w3.org/2000/svg">
  <defs
     id="defs1" />
  <g
     id="layer1"
     transform="translate(-6.7860978,-4.1655823)">
    <path
       fill="#a8b9cc"
       d="m 70.17312,41.623173 c 0,0 -1.44092,-13.434483 -14.770629,-13.807545 -13.329708,-0.373063 -20.175537,10.076127 -20.175537,25.003125 0,14.927 7.565761,26.86923 20.535371,26.86923 12.96961,0 14.410795,-14.927 14.410795,-14.927 l 24.858402,1.49252 c 0,0 1.46367,13.48158 -8.938687,23.76725 C 75.690212,100.30564 62.92195,101.98601 54.005227,101.91616 45.088769,101.84496 32.725583,102.05586 20.770386,89.810943 8.8146588,77.566023 6.7860978,65.670623 6.7860978,53.985563 c 0,-11.685585 2.267215,-27.165562 16.4824832,-38.904331 9.661261,-7.9766577 19.454548,-10.9156497 29.249688,-10.9156497 40.891883,0 43.638253,37.7147657 43.638253,37.7147657 z"
       id="path1"
       style="stroke-width:0.264583" />
  </g>
</svg>
