<svg width="1000" height="1001" viewBox="0 0 1000 1001" fill="none" xmlns="http://www.w3.org/2000/svg">
  <style>
    @media (prefers-color-scheme: dark) {
      path { fill: white; }
    }
  </style>
<path d="M917.775 837.301C913.696 832.651 907.923 828.097 900.486 823.629C899.362 822.9 896.298 821.13 891.297 818.352C886.281 815.557 882.281 813.142 879.29 811.09C876.32 809.041 872.413 805.512 867.572 800.487C862.742 795.472 858.931 790.161 856.134 784.581C853.345 779.009 850.648 771.479 848.041 761.988C845.432 752.497 843.96 741.99 843.579 730.457C838.368 734.905 835.491 743.741 834.93 756.957C834.369 770.162 837.166 783.638 843.305 797.403C849.438 811.174 858.647 820.088 870.921 824.19C882.82 828.291 892.397 832.649 899.661 837.299C906.905 841.954 911.566 847.245 913.614 853.198C915.661 859.165 912.209 865.577 903.287 872.453C894.351 879.343 880.033 886.125 860.321 892.842C833.166 902.131 813.91 910.045 802.559 916.545C791.215 923.06 774.577 935.433 752.623 953.652C737.736 965.93 721.93 972.54 705.183 973.47C688.455 974.407 674.865 968.268 664.458 955.064C654.037 941.861 650.679 923.175 654.404 898.981C661.474 852.485 661.3 816.212 653.863 790.175C647.91 769.714 646.598 751.669 649.958 736.045C653.302 720.437 658.505 711.327 665.582 708.718C672.63 706.103 680.27 711.689 688.455 725.446C689.184 727.305 690.868 730.932 693.464 736.328C696.065 741.719 698.2 745.545 699.89 747.766C701.563 750 704.073 752.882 707.423 756.422C710.767 759.965 714.975 762.467 719.984 763.964C725.001 765.449 730.854 766.378 737.562 766.747C750.209 767.115 761.545 764.513 771.599 758.935C781.639 753.357 789.183 747.125 794.198 740.243C799.213 733.354 804.244 726.759 809.261 720.431C814.276 714.097 818.652 710.565 822.377 709.816C826.464 709.087 830.189 704.993 833.539 697.542C836.885 690.106 839.117 679.784 840.235 666.582C841.359 653.372 840.422 637.654 837.452 619.435C831.868 587.058 820.792 551.536 804.244 512.85C787.684 474.158 769.189 443.84 748.724 421.89C711.898 382.834 687.171 342.287 674.51 300.247C661.501 255.983 655.929 216.177 657.782 180.835C659.646 155.537 654.156 128.1 641.327 98.5235C628.5 68.9508 611.471 46.3516 590.267 30.7278C576.878 20.6878 560.318 12.9698 540.613 7.57159C520.896 2.17342 501.174 -0.33022 481.458 0.0372147C457.283 0.0372147 437.932 3.94023 423.43 11.756C393.67 27.7551 373.96 47.1901 364.281 70.0688C354.603 92.9436 350.147 121.123 350.885 154.604C352.381 228.261 355.349 285.921 359.817 327.582C354.605 346.929 331.546 383.194 290.622 436.39C283.178 443.834 275.923 453.876 268.854 466.523C261.788 479.175 256.206 490.524 252.116 500.56C248.019 510.6 242.535 525.108 235.653 544.083C228.768 563.051 223.845 576.449 220.866 584.255C218.263 590.963 214.168 598.761 208.592 607.704C203.01 616.625 198.537 625.375 195.197 633.916C191.856 642.47 189.992 652.141 189.621 662.931C189.249 671.116 189.621 678.188 190.738 684.133C192.222 693.075 195.019 695.858 199.105 692.514C215.853 679.864 236.871 687.303 262.164 714.839C280.019 734.182 311.457 779.197 356.467 849.879C360.187 856.2 363.904 862.988 367.623 870.26C371.352 877.503 374.876 887.166 378.228 899.26C381.576 911.366 382.973 922.237 382.413 931.913C381.85 941.592 377.577 950.521 369.578 958.693C361.578 966.874 349.58 972.079 333.587 974.311C325.026 975.427 314.713 974.692 302.617 972.077C290.526 969.474 275.18 965.199 256.584 959.248C237.983 953.303 224.222 949.202 215.292 946.968C202.279 943.986 183.773 940.192 159.774 935.531C135.778 930.875 120.056 927.438 112.617 925.204C99.9703 921.86 93.0906 917.03 91.9766 910.698C90.8587 905.487 93.462 896.565 99.7885 883.924C106.119 871.275 109.275 862.151 109.275 856.581C109.643 852.481 109.459 848.402 108.712 844.303C107.974 840.209 107.137 837.045 106.205 834.813C105.275 832.584 103.693 829.235 101.46 824.765C99.2256 820.305 97.7402 816.947 96.9956 814.727C90.3036 799.095 89.3713 788.481 94.2066 782.91C97.5507 778.073 105.55 776.215 118.197 777.336C137.169 779.197 152.605 776.4 164.512 768.958C184.222 756.684 190.181 736.967 182.366 709.805C182.366 722.452 180.132 731.929 175.668 738.263C171.204 744.584 163.388 751.098 152.232 757.8C145.911 761.519 134.746 763.747 118.754 764.503C102.761 765.246 92.1544 767.853 86.9478 772.315C83.2305 775.665 81.2799 780.688 81.0923 787.384C80.9086 794.094 81.7509 800.868 83.6077 807.757C85.4644 814.639 87.327 822.537 89.1837 831.469C91.0463 840.402 91.7851 847.849 91.4176 853.794C91.0463 857.881 87.6885 868.026 81.3679 884.194C75.0472 900.38 73.7456 912.752 77.4649 921.301C79.3274 925.401 82.4839 929.032 86.9498 932.189C91.4118 935.351 97.6425 938.048 105.64 940.29C113.632 942.524 120.982 944.289 127.682 945.586C134.374 946.876 143.674 948.561 155.576 950.596C167.481 952.634 176.966 954.415 184.035 955.892C207.844 960.735 234.997 968.733 265.504 979.889C296.007 991.053 316.649 996.81 327.438 997.18C337.855 997.547 347.803 995.415 357.292 990.759C366.777 986.118 374.866 980.813 381.564 974.86C388.256 968.907 398.208 963.323 411.411 958.12C424.623 952.91 439.408 950.121 455.778 949.747C463.217 949.38 474.006 948.911 488.14 948.356C502.277 947.793 512.875 947.519 519.945 947.519C551.935 947.519 576.113 947.699 592.48 948.073C603.642 948.454 612.384 950.215 618.71 953.379C625.031 956.535 629.132 960.167 630.984 964.251C632.843 968.354 635.927 973.087 640.207 978.486C644.476 983.876 649.96 988.25 656.648 991.594C670.779 998.296 687.341 1000.99 706.316 999.687C725.284 998.39 737.939 994.758 744.258 988.807C754.673 978.767 768.712 966.857 786.382 953.097C804.054 939.34 819.973 928.919 834.098 921.85C837.069 920.351 842.091 917.937 849.161 914.585C856.222 911.235 862.169 908.358 867.005 905.931C871.842 903.511 877.707 900.439 884.575 896.721C891.463 892.996 897.043 889.559 901.323 886.394C905.601 883.23 909.963 879.612 914.431 875.512C918.893 871.425 921.776 867.333 923.087 863.24C924.372 859.147 924.852 854.961 924.479 850.685C924.098 846.416 921.876 841.962 917.775 837.301ZM644.347 843.166C643.604 855.065 641.091 871.812 636.811 893.389C632.53 914.958 629.829 929.284 628.709 936.348C620.898 935.967 616.437 933.084 615.319 927.692C614.209 922.293 615.32 915.326 618.669 906.765C626.851 881.831 631.117 864.721 631.498 855.43C632.255 838.315 630.388 828.642 625.932 826.414C621.824 823.44 615.505 829.024 606.951 843.148C590.57 869.936 557.656 886.107 508.183 891.701C463.551 897.654 432.675 890.958 415.558 871.603C411.839 869 408.119 868.538 404.402 870.217C400.683 871.877 398.265 873.655 397.149 875.5C396.782 876.251 397.149 877.361 398.267 878.852C399.383 880.345 401.15 882.569 403.567 885.548C405.985 888.536 407.938 891.501 409.423 894.49C423.937 919.778 422.637 936.887 405.52 945.817C405.52 928.716 404.218 915.599 401.617 906.49C399.012 897.374 393.809 887.334 385.993 876.352C378.185 865.382 372.791 857.101 369.818 851.525C380.974 850.415 389.439 846.133 395.206 838.69C400.972 831.252 403.573 823.254 403.018 814.699C402.459 806.139 399.207 799.068 393.254 793.49C389.906 790.146 372.603 775.914 341.358 750.803C310.114 725.694 290.767 708.861 283.33 700.306C281.835 698.815 277.377 695.095 269.934 689.142C262.49 683.191 257.838 677.986 255.982 673.518C238.867 635.964 237.01 605.072 250.4 580.903L252.63 578.114C254.486 577.747 254.674 581.089 253.185 588.162C250.955 598.581 250.214 608.989 250.955 619.41C252.44 642.851 259.138 660.33 271.041 671.853C278.856 679.679 284.247 679.118 287.225 670.186C289.459 667.204 290.48 656.233 290.292 637.252C290.114 618.29 290.39 605.455 291.134 598.753C294.113 577.551 302.949 551.319 317.64 520.085C332.332 488.833 343.963 472.092 352.517 469.862C345.82 459.073 343.681 447.354 346.101 434.705C348.515 422.056 352.427 411.262 357.818 402.34C363.206 393.414 368.7 383.094 374.274 371.373C379.856 359.655 382.645 349.144 382.645 339.844C382.645 337.245 382.837 335.382 383.208 334.266C384.322 330.918 388.974 335.009 397.157 346.538C412.781 369.607 424.5 383.188 432.313 387.279C440.497 391.737 449.606 391.553 459.652 386.716C469.694 381.88 482.062 373.881 496.759 362.725C511.447 351.569 524.002 343.382 534.421 338.179C535.545 337.802 537.306 336.965 539.733 335.664C542.139 334.37 544 333.434 545.298 332.871C546.59 332.316 548.268 331.481 550.321 330.363C552.353 329.247 553.932 328.317 555.05 327.57C556.166 326.822 557.284 325.985 558.394 325.055C559.503 324.121 560.245 323.198 560.628 322.266C561.002 321.336 561.189 320.501 561.189 319.755C560.441 316.405 558.863 314.356 556.44 313.618C554.02 312.875 550.77 313.336 546.676 315.015C542.583 316.69 538.021 318.924 533.004 321.711C527.989 324.5 522.411 327.662 516.27 331.198C510.135 334.733 503.903 337.984 497.582 340.964C491.261 343.943 484.561 346.546 477.492 348.78C470.425 351.008 463.729 352.316 457.406 352.687C441.783 353.06 429.325 348.975 420.026 340.413C414.075 334.827 410.916 331.296 410.539 329.808C410.164 328.325 411.841 327.953 415.558 328.692C435.653 331.298 450.343 331.665 459.644 329.808C469.315 328.325 482.333 324.043 498.704 316.973C502.056 315.488 510.509 311.857 524.1 306.091C537.669 300.333 548.184 296.333 555.623 294.099C560.097 292.981 563.167 291.216 564.84 288.798C566.505 286.381 567.068 284.147 566.505 282.098C565.952 280.056 564.741 278.477 562.888 277.361C558.785 275.127 555.068 276.618 551.732 281.825C549.865 285.173 545.952 288.433 540.005 291.591C534.06 294.757 528.564 297.171 523.545 298.844C518.524 300.515 512.107 302.47 504.292 304.7C496.476 306.933 492.205 308.235 491.457 308.606C471 314.927 452.028 317.72 434.541 316.973C426.356 316.606 419.756 315.392 414.737 313.346C409.714 311.306 406.268 308.888 404.414 306.093C402.551 303.308 399.578 299.772 395.486 295.492C391.389 291.212 386.738 287.586 381.533 284.606C377.814 282.749 376.416 279.401 377.349 274.566C378.279 269.731 381.162 264.704 385.997 259.497C386.368 259.122 390.183 256.802 397.434 252.522C404.687 248.242 409.804 243.869 412.785 239.406C416.125 234.199 421.894 228.801 430.077 223.219C430.449 221.733 430.73 217.643 430.914 210.947C431.098 204.255 429.333 197 425.614 189.188C421.894 181.372 416.867 177.471 410.545 177.471C401.615 177.1 395.292 179.701 391.573 185.283C387.854 190.857 386.185 197.743 386.554 205.926C386.931 212.991 388.698 219.218 391.854 224.616C395.019 230.014 397.903 232.714 400.507 232.714C404.595 232.336 405.897 233.82 404.41 237.172C402.18 241.268 399.199 243.877 395.482 244.987C392.871 245.726 389.986 243.219 386.83 237.453C383.665 231.687 381.25 224.716 379.577 216.529C377.906 208.346 377.249 201.464 377.626 195.878C378.365 184.347 381.431 173.279 386.83 162.676C392.228 152.075 399.946 146.958 409.986 147.326C420.403 147.703 428.78 154.032 435.1 166.304C441.431 178.577 444.404 195.325 444.032 216.527C445.15 219.132 448.031 220.062 452.685 219.316C457.326 218.569 463.469 218.473 471.093 219.034C478.714 219.589 484.2 221.54 487.55 224.89C487.927 224.89 488.113 222.095 488.113 216.519C481.415 169.653 497.967 144.728 537.775 141.75C543.715 142.868 548.738 144.265 552.824 145.934C556.931 147.605 561.285 150.402 565.941 154.305C570.602 158.208 574.493 163.88 577.657 171.324C580.822 178.773 583.335 188.072 585.194 199.228V219.871C585.194 231.773 582.766 238.471 577.931 239.961C570.125 242.562 564.553 242.472 561.209 239.679C557.857 236.884 558.221 231.961 562.319 224.892C566.036 215.593 565.294 204.796 560.083 192.522C554.88 180.25 545.388 174.669 531.63 175.786C522.327 176.16 515.631 181.183 511.539 190.851C507.446 200.524 505.963 210.011 507.079 219.312C508.195 228.611 510.235 233.446 513.219 233.816C515.448 234.193 522.059 237.166 533.032 242.748C544.019 248.328 552.293 251.674 557.865 252.79C572.373 255.76 580.638 260.412 582.692 266.738C584.738 273.069 583.902 282.272 580.185 294.361C576.459 306.457 575.347 316.399 576.846 324.215C578.332 332.408 581.127 339.838 585.221 346.534C589.314 353.236 593.674 359.369 598.33 364.953C602.977 370.521 608.456 380.946 614.796 396.195C621.111 411.451 626.876 430.607 632.079 453.671C632.446 454.042 633.838 455.344 636.261 457.578C638.681 459.808 641.091 462.597 643.518 465.945C645.946 469.295 648.823 473.851 652.172 479.616C655.518 485.386 659.156 493.848 663.061 505.012C666.954 516.168 670.593 529.011 673.935 543.511C678.03 560.634 680.168 580.518 680.356 603.225C680.545 625.912 682.029 641.444 684.823 649.817C687.62 658.197 694.777 661.635 706.307 660.144C720.814 659.401 730.125 651.589 734.198 636.708C746.478 593.554 736.446 541.84 704.075 481.584C691.795 458.147 681.2 442.707 672.264 435.27C685.281 442.709 698.678 456.653 712.449 477.12C726.215 497.583 734.949 516.747 738.668 534.591C739.03 536.457 740.06 541.388 741.731 549.378C743.402 557.378 744.338 562.033 744.514 563.331C744.694 564.634 745.45 568.448 746.742 574.77C748.052 581.095 748.695 585.189 748.695 587.048C748.695 588.914 748.874 592.54 749.255 597.93C749.637 603.321 749.537 607.507 748.974 610.484C748.413 613.466 747.864 617.467 747.303 622.478C746.742 627.499 745.818 632.336 744.514 636.992C743.23 641.639 741.831 646.764 740.339 652.336C760.793 661.264 771.026 669.07 771.026 675.772C763.22 669.445 752.05 665.265 737.537 663.238C723.021 661.184 709.553 663.136 697.086 669.09C684.618 675.043 678.198 684.895 677.823 698.652C664.433 698.652 654.942 701.997 649.37 708.706C641.188 718.371 636.916 731.479 636.543 748.041C636.169 764.588 637.553 782.639 640.716 802.156C643.893 821.685 645.097 835.348 644.347 843.166ZM410.555 196.433C409.437 196.066 408.508 194.942 407.769 193.085C407.769 189.745 409.439 188.434 412.788 189.182C415.022 189.921 417.166 192.714 419.207 197.549C421.253 202.384 421.718 207.966 420.604 214.291C420.604 215.407 420.049 215.97 418.925 215.96C414.829 215.96 413.344 212.243 414.462 204.804C415.574 199.224 414.272 196.433 410.555 196.433ZM555.078 205.367L553.968 207.038C550.997 208.895 549.521 209.268 549.521 208.156C548.022 198.106 544.676 192.341 539.473 190.851L537.24 189.737C534.63 187.503 535.928 186.202 541.131 185.83C542.247 185.457 543.92 186.012 546.154 187.501C548.388 188.993 550.434 191.318 552.295 194.481C554.147 197.647 555.078 201.269 555.078 205.367Z" fill="black"/>
</svg>
