<svg width="343" height="252" viewBox="0 0 343 252" fill="none" xmlns="http://www.w3.org/2000/svg">
<path d="M198.988 189.12C198.988 199.822 185.299 208.498 168.414 208.498C151.529 208.498 137.84 199.822 137.84 189.12C137.84 178.418 151.529 169.742 168.414 169.742C185.299 169.742 198.988 178.418 198.988 189.12Z" fill="#D6D2CD"/>
<path d="M175.735 143.475C175.735 154.177 164.553 162.853 150.759 162.853C136.965 162.853 125.783 154.177 125.783 143.475C125.783 132.773 136.965 124.097 150.759 124.097C164.553 124.097 175.735 132.773 175.735 143.475Z" fill="#D6D2CD"/>
<path d="M293.723 224.861C293.723 231.996 283.119 237.78 270.039 237.78C256.959 237.78 246.355 231.996 246.355 224.861C246.355 217.727 256.959 211.943 270.039 211.943C283.119 211.943 293.723 217.727 293.723 224.861Z" fill="#D6D2CD"/>
<path d="M333.458 182.348L342.659 162.169L283.254 150.42L223.849 162.169L214.647 182.348L274.053 216.646L307.548 211.458L333.458 182.348Z" fill="#D6D2CD"/>
<path d="M118.81 203.036L128.012 182.857L68.6064 171.108L9.20115 182.857L0 203.036L59.4052 237.334L118.81 203.036Z" fill="#D6D2CD"/>
<path d="M226.135 123.576L235.336 103.397L175.931 91.6474L116.525 103.397L107.324 123.576L166.73 157.873L226.135 123.576Z" fill="#D6D2CD"/>
<path d="M176.109 0.941406L116.704 35.239L101.673 63.4486L161.078 29.1509L176.109 0.941406Z" fill="#E0A173"/>
<path fill-rule="evenodd" clip-rule="evenodd" d="M176.449 0.56801C176.389 0.448071 176.256 0.425452 176.109 0.510233L116.704 34.8078C116.597 34.8694 116.496 34.9805 116.425 35.1134L101.394 63.3229C101.297 63.506 101.273 63.7009 101.333 63.8208C101.393 63.9408 101.526 63.9634 101.673 63.8786L161.078 29.581C161.185 29.5195 161.286 29.4083 161.357 29.2754L176.388 1.06594C176.485 0.882878 176.509 0.687949 176.449 0.56801ZM175.279 1.85083L160.911 28.8164L102.503 62.538L116.871 35.5724L175.279 1.85083Z" fill="black"/>
<path d="M235.573 35.2383L176.168 0.940646L116.763 35.2383L176.168 69.5359L235.573 35.2383Z" fill="#4E4E4E"/>
<path fill-rule="evenodd" clip-rule="evenodd" d="M235.946 35.4536C236.152 35.3347 236.152 35.1419 235.946 35.023L176.541 0.725337C176.335 0.606426 176.001 0.606426 175.795 0.725337L116.39 35.023C116.184 35.1419 116.184 35.3347 116.39 35.4536L175.795 69.7512C176.001 69.8701 176.335 69.8701 176.541 69.7512L235.946 35.4536ZM234.828 35.2383L176.168 69.1053L117.509 35.2383L176.168 1.37126L234.828 35.2383Z" fill="black"/>
<path d="M219.585 44.4697L176.168 19.4029L132.751 44.4697L176.168 69.5365L219.585 44.4697Z" fill="black"/>
<path fill-rule="evenodd" clip-rule="evenodd" d="M219.959 44.685C220.165 44.5661 220.165 44.3733 219.959 44.2544L176.542 19.1876C176.336 19.0687 176.002 19.0687 175.796 19.1876L132.379 44.2544C132.173 44.3733 132.173 44.5661 132.379 44.685L175.796 69.7518C176.002 69.8708 176.336 69.8708 176.542 69.7518L219.959 44.685ZM218.84 44.4697L176.169 69.1059L133.498 44.4697L176.169 19.8335L218.84 44.4697Z" fill="black"/>
<path d="M235.573 35.2383L176.168 69.5359L176.168 138.131L235.573 103.834L235.573 35.2383Z" fill="#FFB681"/>
<path fill-rule="evenodd" clip-rule="evenodd" d="M235.947 35.0234C235.947 34.7856 235.78 34.6892 235.574 34.8081L176.169 69.1057C175.963 69.2246 175.796 69.5138 175.796 69.7516L175.796 138.347C175.796 138.585 175.963 138.681 176.169 138.562L235.574 104.265C235.78 104.146 235.947 103.856 235.947 103.619L235.947 35.0234ZM235.201 35.8846L235.201 103.619L176.542 137.486L176.542 69.7516L235.201 35.8846Z" fill="black"/>
<path d="M215.188 47.0083L177.006 69.0529L177.006 137.223L207.448 119.1L215.188 47.0083Z" fill="#E0A173"/>
<path d="M219.376 69.0503L208.996 75.0433L208.996 103.504L219.376 97.5105L219.376 69.0503Z" fill="white"/>
<path fill-rule="evenodd" clip-rule="evenodd" d="M219.75 68.8349C219.75 68.5971 219.583 68.5007 219.377 68.6196L208.997 74.6126C208.791 74.7316 208.624 75.0207 208.624 75.2586L208.624 103.719C208.624 103.957 208.791 104.053 208.997 103.934L219.377 97.9411C219.583 97.8222 219.75 97.533 219.75 97.2952L219.75 68.8349ZM219.004 69.6961L219.004 97.2952L209.37 102.858L209.37 75.2586L219.004 69.6961Z" fill="black"/>
<path d="M235.573 35.2395L176.167 69.5372L186.293 102.588L245.698 68.2904L235.573 35.2395Z" fill="#FFDBC0"/>
<path fill-rule="evenodd" clip-rule="evenodd" d="M235.93 34.9098C235.883 34.7551 235.738 34.7143 235.573 34.8093L176.168 69.107C176.05 69.1751 175.939 69.3035 175.869 69.4534C175.798 69.6033 175.777 69.7569 175.811 69.8677L185.936 102.919C185.984 103.073 186.129 103.114 186.294 103.019L245.699 68.7214C245.817 68.6533 245.928 68.5249 245.998 68.375C246.068 68.2251 246.09 68.0715 246.056 67.9607L235.93 34.9098ZM235.296 35.8307L245.197 68.1497L186.571 101.998L176.67 69.6787L235.296 35.8307Z" fill="black"/>
<path d="M116.636 34.9946L176.167 69.5363L176.167 138.132L116.762 103.834L116.636 34.9946Z" fill="#E0A173"/>
<path fill-rule="evenodd" clip-rule="evenodd" d="M116.372 34.5383C116.443 34.4978 116.538 34.5074 116.637 34.565L176.168 69.1066C176.374 69.2259 176.54 69.5146 176.54 69.752L176.54 138.347C176.54 138.585 176.373 138.681 176.167 138.563L116.762 104.265C116.556 104.146 116.39 103.858 116.389 103.62L116.263 34.7806C116.263 34.666 116.302 34.5788 116.372 34.5383ZM117.01 35.6425L117.134 103.619L175.794 137.486L175.794 69.7509L117.01 35.6425Z" fill="black"/>
<path fill-rule="evenodd" clip-rule="evenodd" d="M193.543 183.855C193.553 190.891 183.682 196.591 171.495 196.585C159.307 196.579 149.419 190.87 149.409 183.834C149.407 182.546 149.735 181.305 150.346 180.138C150.458 179.924 150.493 179.706 150.46 179.496L150.294 176.094C148.738 175.822 144.369 177.045 143.9 177.943C143.125 179.425 143.522 182.206 143.525 183.831C143.538 192.743 156.062 199.975 171.499 199.982C186.937 199.99 199.44 192.771 199.427 183.858L199.255 179.86C197.929 171.651 186.011 167.714 171.452 167.707C168.638 167.705 165.916 167.945 163.347 168.392C161.792 168.663 160.914 169.611 161.386 170.509C161.858 171.407 163.501 171.916 165.056 171.645C167.078 171.292 169.226 171.103 171.457 171.104C183.644 171.11 193.532 176.819 193.543 183.855ZM180.303 183.849C180.307 186.663 176.358 188.943 171.483 188.94C166.608 188.938 162.653 186.655 162.649 183.84C162.648 182.902 161.329 182.141 159.704 182.14C158.494 182.139 157.111 179.593 156.661 180.196C156.507 180.403 156.765 183.837 156.765 183.837C156.772 188.528 163.364 192.334 171.488 192.338C179.613 192.342 186.194 188.542 186.187 183.852L186.093 180.144C184.976 176.089 179.269 173.677 171.932 173.673C170.942 173.673 168.527 172.559 168.385 173.543L168.524 177.048C168.525 177.986 169.843 178.747 171.468 178.748C176.343 178.751 180.298 181.034 180.303 183.849ZM172.725 184.566C173.211 184.285 173.491 183.93 173.565 183.564C173.666 183.066 173.454 179.895 173.454 179.895L157.313 173.267C156.163 172.603 153.318 170.336 152.17 170.999C152.17 170.999 152.337 173.966 152.297 174.367C152.251 174.834 152.537 175.31 153.156 175.667L168.564 184.564C169.714 185.228 171.577 185.228 172.725 184.566Z" fill="#FAC864"/>
<path fill-rule="evenodd" clip-rule="evenodd" d="M171.499 200.359C187.297 200.367 200.093 192.979 200.08 183.858C200.08 183.857 200.08 183.855 200.08 183.854C200.08 183.852 200.08 183.85 200.08 183.849L199.907 179.851C199.907 179.842 199.906 179.834 199.904 179.825C199.224 175.611 195.813 172.474 190.691 170.4C185.587 168.332 178.826 167.334 171.453 167.33C168.574 167.329 165.788 167.574 163.159 168.032C161.258 168.363 160.185 169.522 160.762 170.619C161.338 171.716 163.345 172.337 165.245 172.006C167.206 171.664 169.291 171.48 171.457 171.481C183.284 171.487 192.88 177.027 192.89 183.856C192.9 190.684 183.321 196.214 171.495 196.208C159.668 196.202 150.072 190.662 150.062 183.834C150.06 182.583 150.378 181.38 150.97 180.247C151.105 179.99 151.149 179.729 151.112 179.475L150.946 176.084C150.938 175.922 150.752 175.781 150.483 175.734C149.92 175.635 149.212 175.682 148.548 175.776C147.858 175.875 147.107 176.041 146.4 176.242C145.694 176.444 145.011 176.687 144.464 176.946C143.941 177.194 143.451 177.498 143.275 177.834C142.857 178.635 142.765 179.752 142.768 180.834C142.769 181.382 142.795 181.933 142.821 182.445L142.826 182.545C142.85 183.021 142.871 183.458 142.872 183.831C142.885 192.952 155.702 200.351 171.499 200.359ZM198.775 183.863C198.783 192.565 186.574 199.613 171.5 199.606C156.423 199.598 144.19 192.536 144.177 183.831C144.177 183.446 144.154 182.999 144.131 182.527C144.129 182.492 144.127 182.458 144.125 182.423C144.1 181.911 144.075 181.369 144.073 180.833C144.07 179.748 144.168 178.734 144.525 178.052C144.584 177.939 144.816 177.754 145.292 177.528C145.745 177.314 146.339 177.1 146.978 176.918C147.617 176.735 148.279 176.591 148.86 176.508C149.178 176.463 149.444 176.44 149.657 176.434L149.808 179.507C149.808 179.515 149.809 179.523 149.81 179.53C149.835 179.693 149.808 179.862 149.721 180.03C149.092 181.232 148.754 182.509 148.756 183.834C148.767 191.078 158.947 196.956 171.494 196.962C184.042 196.968 194.206 191.1 194.195 183.855C194.185 176.611 184.005 170.734 171.458 170.728C169.162 170.727 166.95 170.922 164.868 171.285C163.658 171.495 162.378 171.1 162.011 170.4C161.643 169.701 162.327 168.964 163.536 168.753C166.044 168.316 168.702 168.082 171.452 168.084C178.638 168.087 185.115 169.061 189.941 171.016C194.745 172.962 197.953 175.894 198.603 179.882L198.775 183.863ZM171.488 192.715C179.973 192.719 186.847 188.751 186.84 183.852L186.84 183.846L186.746 180.139C186.745 180.121 186.743 180.103 186.738 180.086C185.562 175.816 179.534 173.3 171.933 173.297C171.838 173.297 171.622 173.261 171.233 173.167C171.132 173.143 171.021 173.115 170.903 173.085C170.635 173.017 170.334 172.942 170.062 172.885C169.69 172.807 169.182 172.721 168.717 172.781C168.453 172.815 168.199 172.897 168.013 173.042C167.837 173.18 167.759 173.346 167.735 173.512C167.733 173.525 167.733 173.539 167.733 173.552L167.871 177.053C167.871 177.083 167.872 177.112 167.875 177.142L157.737 172.979C157.519 172.851 157.236 172.663 156.896 172.437C156.826 172.391 156.753 172.342 156.678 172.292C156.231 171.996 155.717 171.662 155.198 171.367C154.69 171.078 154.131 170.801 153.59 170.644C153.317 170.565 153.003 170.502 152.673 170.502C152.319 170.503 151.98 170.576 151.709 170.733C151.581 170.806 151.512 170.907 151.518 171.011L151.525 171.139C151.529 171.221 151.536 171.339 151.543 171.481C151.558 171.765 151.578 172.148 151.596 172.543C151.633 173.347 151.663 174.166 151.645 174.346C151.589 174.916 151.939 175.498 152.694 175.934L168.103 184.83C169.507 185.641 171.783 185.643 173.187 184.832C173.78 184.49 174.123 184.056 174.213 183.608C174.244 183.455 174.248 183.137 174.243 182.778C174.237 182.407 174.22 181.961 174.2 181.533C174.179 181.104 174.156 180.691 174.138 180.385C174.128 180.232 174.121 180.106 174.115 180.018L174.106 179.881L174.106 179.881C174.106 179.881 174.106 179.88 173.454 179.895L174.106 179.881C174.098 179.764 173.997 179.656 173.832 179.588L172.878 179.196C176.721 179.584 179.647 181.52 179.65 183.849C179.654 186.456 175.998 188.566 171.484 188.564C166.969 188.562 163.306 186.447 163.302 183.84C163.3 182.698 161.701 181.771 159.725 181.764C159.713 181.761 159.686 181.753 159.642 181.733C159.55 181.692 159.434 181.623 159.298 181.521C159.024 181.316 158.745 181.04 158.465 180.756C158.442 180.733 158.419 180.709 158.396 180.686C158.154 180.44 157.897 180.179 157.667 180.012C157.6 179.963 157.521 179.911 157.43 179.866C157.346 179.825 157.21 179.767 157.028 179.741C156.814 179.711 156.578 179.73 156.377 179.813C156.205 179.883 156.113 179.979 156.061 180.048C156.008 180.12 155.993 180.2 155.988 180.231L155.987 180.233C155.979 180.281 155.973 180.337 155.969 180.398C155.961 180.52 155.958 180.677 155.959 180.854C155.962 181.21 155.98 181.663 156.003 182.106C156.025 182.549 156.053 182.986 156.075 183.312C156.086 183.475 156.095 183.611 156.102 183.705L156.112 183.846C156.127 188.741 163.008 192.711 171.488 192.715ZM157.417 183.821L157.406 183.674C157.399 183.58 157.39 183.445 157.379 183.283C157.357 182.959 157.33 182.524 157.307 182.083C157.289 181.728 157.274 181.371 157.268 181.065C157.274 181.071 157.28 181.078 157.287 181.084L157.33 181.129C157.603 181.405 157.925 181.728 158.265 181.982C158.435 182.109 158.63 182.234 158.847 182.331C159.061 182.425 159.353 182.517 159.704 182.517C160.969 182.518 161.995 183.11 161.997 183.841C162.001 186.863 166.248 189.315 171.483 189.318C176.718 189.32 180.96 186.872 180.955 183.849C180.951 180.826 176.704 178.374 171.469 178.372C171.187 178.372 170.916 178.342 170.666 178.288L169.707 177.894C169.376 177.665 169.177 177.37 169.176 177.048L169.176 177.04L169.039 173.557C169.042 173.539 169.047 173.524 169.051 173.514C169.14 173.514 169.318 173.531 169.619 173.594C169.851 173.642 170.081 173.7 170.327 173.762C170.456 173.795 170.588 173.828 170.728 173.862C171.075 173.946 171.532 174.05 171.932 174.05C178.988 174.054 184.366 176.351 185.442 180.178L185.534 183.852C185.534 183.853 185.534 183.854 185.534 183.855C185.539 188.336 179.251 191.965 171.489 191.961C163.724 191.958 157.424 188.32 157.417 183.837C157.417 183.832 157.417 183.827 157.417 183.821ZM156.58 180.438C156.577 180.437 156.578 180.437 156.581 180.439ZM170.034 178.953L172.814 180.094C172.819 180.177 172.826 180.285 172.833 180.411C172.852 180.716 172.875 181.127 172.895 181.553C172.915 181.98 172.932 182.42 172.938 182.784C172.944 183.16 172.936 183.425 172.917 183.521C172.859 183.806 172.642 184.081 172.264 184.3C171.371 184.815 169.922 184.815 169.026 184.298L153.617 175.401C153.135 175.123 152.912 174.753 152.948 174.389C152.97 174.168 152.937 173.303 152.901 172.523C152.882 172.126 152.863 171.742 152.848 171.458C152.844 171.391 152.841 171.331 152.838 171.276C152.884 171.285 152.939 171.299 153.003 171.317C153.354 171.419 153.794 171.627 154.283 171.904C154.763 172.177 155.248 172.492 155.694 172.787C155.764 172.834 155.833 172.88 155.902 172.925C156.259 173.163 156.593 173.385 156.852 173.534C156.877 173.549 156.905 173.562 156.935 173.575L168.828 178.458C169.164 178.668 169.574 178.837 170.034 178.953Z" fill="black"/>
<path fill-rule="evenodd" clip-rule="evenodd" d="M193.421 180.375C193.431 187.411 183.56 193.111 171.372 193.105C159.185 193.099 149.297 187.39 149.287 180.354C149.285 179.066 149.613 177.825 150.224 176.658C150.693 175.76 149.812 174.812 148.256 174.539C146.701 174.267 145.059 174.774 144.59 175.671C143.815 177.154 143.4 178.726 143.402 180.351C143.415 189.263 155.94 196.495 171.377 196.502C186.815 196.51 199.318 189.291 199.305 180.378C199.292 171.465 186.767 164.234 171.33 164.227C168.516 164.225 165.794 164.465 163.225 164.912C161.67 165.183 160.792 166.131 161.264 167.029C161.736 167.927 163.379 168.436 164.934 168.165C166.956 167.812 169.104 167.623 171.335 167.624C183.522 167.63 193.41 173.339 193.421 180.375ZM180.181 180.369C180.185 183.183 176.236 185.463 171.361 185.46C166.486 185.458 162.531 183.175 162.527 180.36C162.526 179.422 161.207 178.661 159.582 178.66C157.957 178.659 156.641 179.419 156.643 180.357C156.649 185.048 163.241 188.854 171.366 188.858C179.491 188.862 186.072 185.062 186.065 180.372C186.058 175.681 179.466 171.875 171.341 171.871C169.716 171.87 168.4 172.63 168.402 173.568C168.403 174.506 169.721 175.267 171.346 175.268C176.221 175.271 180.176 177.554 180.181 180.369ZM172.603 181.086C173.751 180.423 173.75 179.347 172.6 178.683L157.191 169.787C156.041 169.123 154.178 169.122 153.03 169.785C151.882 170.448 151.884 171.524 153.034 172.187L168.442 181.084C169.592 181.748 171.455 181.748 172.603 181.086Z" fill="#FFE598"/>
<path fill-rule="evenodd" clip-rule="evenodd" d="M171.377 196.88C187.175 196.887 199.971 189.499 199.958 180.379C199.944 171.258 187.128 163.858 171.331 163.851C168.452 163.849 165.666 164.094 163.037 164.552C161.136 164.884 160.063 166.042 160.64 167.139C161.216 168.236 163.223 168.858 165.123 168.526C167.084 168.185 169.169 168.001 171.335 168.002C183.162 168.007 192.758 173.548 192.768 180.376C192.778 187.204 183.199 192.735 171.373 192.729C159.546 192.723 149.949 187.183 149.939 180.354C149.938 179.104 150.256 177.9 150.848 176.768C151.422 175.671 150.346 174.512 148.446 174.18C146.545 173.847 144.539 174.466 143.965 175.563C143.172 177.081 142.747 178.69 142.75 180.352C142.763 189.472 155.58 196.872 171.377 196.88ZM198.653 180.379C198.665 189.083 186.454 196.134 171.378 196.126C156.301 196.119 144.068 189.056 144.055 180.351C144.053 178.764 144.458 177.229 145.215 175.781C145.579 175.083 146.856 174.689 148.067 174.901C149.279 175.113 149.964 175.852 149.599 176.55C148.97 177.753 148.632 179.029 148.634 180.355C148.645 187.599 158.825 193.476 171.372 193.482C183.92 193.488 194.084 187.62 194.073 180.376C194.063 173.132 183.883 167.254 171.336 167.248C169.04 167.247 166.828 167.442 164.746 167.805C163.536 168.016 162.256 167.62 161.889 166.921C161.521 166.221 162.205 165.484 163.414 165.274C165.922 164.837 168.58 164.603 171.33 164.604C186.407 164.612 198.64 171.674 198.653 180.379ZM171.366 189.236C179.851 189.24 186.725 185.271 186.718 180.372C186.71 175.473 179.827 171.499 171.342 171.495C169.356 171.494 167.747 172.423 167.749 173.569C167.751 174.715 169.361 175.645 171.346 175.646C175.861 175.648 179.524 177.763 179.528 180.37C179.532 182.976 175.876 185.087 171.362 185.085C166.847 185.082 163.183 182.967 163.18 180.361C163.178 179.215 161.568 178.285 159.583 178.284C157.597 178.283 155.988 179.212 155.99 180.358C155.997 185.257 162.881 189.231 171.366 189.236ZM185.412 180.373C185.419 184.855 179.131 188.486 171.367 188.482C163.602 188.478 157.302 184.841 157.295 180.358C157.294 179.628 158.318 179.037 159.582 179.038C160.847 179.038 161.873 179.631 161.874 180.361C161.879 183.384 166.126 185.836 171.361 185.838C176.596 185.841 180.838 183.392 180.833 180.369C180.829 177.347 176.582 174.895 171.347 174.892C170.082 174.892 169.055 174.299 169.054 173.569C169.053 172.839 170.077 172.248 171.341 172.248C179.106 172.252 185.406 175.89 185.412 180.373ZM167.981 181.351C169.385 182.162 171.661 182.163 173.065 181.353C174.468 180.543 174.465 179.228 173.061 178.418L157.652 169.522C156.248 168.711 153.972 168.709 152.569 169.52C151.165 170.33 151.168 171.644 152.572 172.455L167.981 181.351ZM172.142 180.82C171.249 181.335 169.799 181.335 168.904 180.818L153.495 171.922C152.599 171.405 152.599 170.568 153.491 170.052C154.384 169.537 155.834 169.537 156.73 170.054L172.138 178.951C173.034 179.468 173.034 180.305 172.142 180.82Z" fill="black"/>
<path d="M142.605 211.848C144.364 217.027 137.918 223.899 128.206 227.197C118.495 230.495 109.197 228.97 107.438 223.79C105.679 218.611 112.126 211.739 121.837 208.441C131.548 205.143 140.847 206.668 142.605 211.848Z" fill="#D6D2CD"/>
<path d="M158.968 221.321C160.727 226.5 154.28 233.373 144.569 236.67C134.858 239.968 125.559 238.443 123.8 233.263C122.042 228.084 128.488 221.212 138.199 217.914C147.911 214.616 157.209 216.142 158.968 221.321Z" fill="#D6D2CD"/>
<path d="M158.831 236.823C160.59 242.003 156.295 248.144 149.238 250.541C142.18 252.937 135.033 250.681 133.274 245.502C131.515 240.323 135.811 234.181 142.868 231.784C149.925 229.388 157.072 231.644 158.831 236.823Z" fill="#D6D2CD"/>
<path d="M148.421 247.239L139.815 242.27V238.571L149.913 239.461C151.08 239.431 152.022 239.362 152.741 239.252C153.465 239.146 154.032 238.975 154.44 238.739C154.997 238.417 155.294 238.084 155.328 237.739C155.368 237.39 155.127 238.734 154.604 238.432C154.04 238.107 153.399 237.962 152.681 237.999C151.974 238.035 151.304 238.236 150.671 238.601L148.171 237.157V233.393C148.678 233.201 150.222 234.684 150.809 234.592C151.81 234.439 152.822 234.453 153.845 234.632C154.874 234.808 155.811 235.14 156.656 235.628C157.949 236.374 158.642 235.116 158.734 235.886L158.745 239.712C158.767 240.432 158.246 241.099 157.182 241.713C156.561 242.071 155.768 242.343 154.802 242.529C153.836 242.715 152.534 242.83 150.896 242.873L145.032 242.962L150.43 242.214V246.079L148.421 247.239Z" fill="#FF8484"/>
<path d="M132.836 221.399C130.518 222.557 128.016 223.078 125.33 222.961C122.654 222.849 120.138 222.114 117.783 220.754C115.544 219.461 114.372 218.03 114.267 216.46C114.252 216.224 114.26 212.156 114.292 211.914C114.292 211.914 116.206 210.421 119.232 208.674L120.46 207.965C122.391 206.85 124.433 206.064 126.586 205.607C128.738 205.15 130.835 205.06 132.877 205.336C134.938 205.612 136.805 206.234 138.479 207.2C139.974 208.063 140.511 207.901 141.114 208.846C141.447 209.366 142.23 209.805 142.23 209.805V213.775C142.133 215.098 141.205 216.378 139.445 217.616L135.306 215.226V211.51L137.03 211.303C137.003 210.607 136.354 211.562 135.085 210.829C133.705 210.032 132.174 209.722 130.49 209.897C128.825 210.072 126.944 210.755 124.847 211.944L123.33 212.82C121.159 214.074 119.899 215.178 119.549 216.134C119.209 217.095 119.747 216.316 121.163 217.134C122.442 217.872 123.684 218.254 124.889 218.281C126.112 218.307 127.381 217.994 128.697 217.341L132.836 217.667V221.399Z" fill="#FF8484"/>
<path d="M154.953 230.823C152.975 231.965 150.892 232.764 148.703 233.221C146.513 233.677 144.361 233.762 142.245 233.476C140.139 233.194 138.244 232.567 136.561 231.596C134.896 230.634 133.811 229.546 133.305 228.33C133.097 227.829 133.054 223.546 133.06 223.037L133.691 222.933C134.464 221.658 135.811 222.13 137.734 221.009L138.727 220.436C140.705 219.294 142.797 218.495 145.005 218.038C147.231 217.581 149.392 217.496 151.49 217.783C153.605 218.07 155.5 217.027 157.174 217.994C158.848 218.96 160.222 219.328 160.71 220.544L160.71 224.322C160.719 225.096 160.474 225.882 159.975 226.681C159.193 227.961 157.818 229.169 155.849 230.305L154.953 230.823ZM151.669 227.876C153.775 226.66 154.999 225.518 155.339 224.45C155.679 223.383 155.15 222.446 153.752 221.638C152.363 220.837 150.749 220.531 148.909 220.722C147.079 220.908 145.115 221.601 143.018 222.801L142.039 223.367C139.987 224.551 138.773 225.688 138.396 226.776C138.019 227.865 138.539 228.818 139.955 229.636C141.344 230.438 142.954 230.741 144.784 230.544C146.624 230.342 148.592 229.641 150.689 228.441L151.669 227.876Z" fill="#FF8484"/>
<path fill-rule="evenodd" clip-rule="evenodd" d="M139.816 238.571V242.271L148.422 247.239L150.431 246.079V242.88L150.896 242.873C151.149 242.866 151.393 242.858 151.63 242.848C152.928 242.793 153.986 242.687 154.803 242.529C155.768 242.344 156.562 242.071 157.183 241.713C158.246 241.099 158.767 240.432 158.746 239.712L158.737 236.807L158.737 236.805L158.735 235.886C158.694 235.542 158.533 235.603 158.252 235.709C157.904 235.84 157.372 236.041 156.657 235.628C155.812 235.14 154.875 234.808 153.846 234.632C152.822 234.453 151.81 234.44 150.81 234.592C150.586 234.627 150.223 234.434 149.832 234.191C149.722 234.123 149.611 234.051 149.499 233.98C149.456 233.952 149.413 233.925 149.37 233.897C149.161 233.764 148.955 233.636 148.77 233.54C148.636 233.471 148.512 233.418 148.405 233.393C148.314 233.371 148.235 233.369 148.171 233.393V237.157L150.672 238.601C150.996 238.414 151.329 238.271 151.673 238.17C152 238.074 152.336 238.017 152.681 237.999C152.781 237.994 152.879 237.992 152.976 237.994C153.389 238.002 153.776 238.074 154.135 238.209C154.187 238.229 154.238 238.25 154.289 238.272C154.397 238.32 154.502 238.373 154.604 238.432C154.701 238.488 154.787 238.487 154.865 238.452C154.789 238.514 154.703 238.576 154.609 238.637C154.556 238.671 154.499 238.705 154.441 238.739C154.434 238.743 154.427 238.747 154.42 238.751C154.078 238.944 153.628 239.093 153.07 239.198C152.965 239.217 152.855 239.236 152.742 239.252C152.491 239.29 152.213 239.324 151.907 239.352C151.668 239.375 151.412 239.394 151.139 239.41C150.84 239.428 150.52 239.443 150.18 239.454C150.092 239.456 150.004 239.459 149.913 239.461L139.816 238.571ZM147.351 238.032L139.921 237.377C139.586 237.347 139.254 237.46 139.006 237.687C138.758 237.914 138.617 238.235 138.617 238.571V242.271C138.617 242.699 138.845 243.095 139.216 243.309L147.822 248.277C148.193 248.492 148.65 248.492 149.021 248.277L151.03 247.117C151.401 246.903 151.63 246.507 151.63 246.079V244.048C152.984 243.992 154.123 243.881 155.029 243.707C156.081 243.504 157.011 243.196 157.782 242.751C158.942 242.081 159.977 241.095 159.945 239.695L159.934 235.883C159.934 235.836 159.931 235.79 159.925 235.744C159.906 235.58 159.853 235.263 159.634 234.969C159.351 234.588 158.939 234.434 158.577 234.427C158.304 234.422 158.076 234.499 157.994 234.527L157.993 234.528C157.926 234.55 157.753 234.615 157.739 234.621C157.615 234.666 157.555 234.676 157.51 234.676C157.479 234.676 157.401 234.673 157.256 234.59C156.28 234.026 155.208 233.649 154.05 233.451C153.565 233.366 153.081 233.314 152.599 233.296C153.608 232.894 154.593 232.416 155.553 231.861L156.449 231.344C158.507 230.156 160.068 228.826 160.995 227.311C161.586 226.364 161.92 225.36 161.909 224.316L161.909 220.544C161.909 220.391 161.88 220.24 161.823 220.098C161.435 219.13 160.703 218.562 160 218.145C159.666 217.946 159.299 217.76 158.95 217.582L158.909 217.561C158.535 217.371 158.162 217.18 157.774 216.956C156.581 216.267 155.35 216.334 154.367 216.442C154.15 216.466 153.946 216.491 153.749 216.515C152.98 216.61 152.343 216.689 151.652 216.595C149.411 216.289 147.113 216.382 144.765 216.864L144.763 216.864C143.416 217.143 142.111 217.542 140.846 218.061C142.327 216.861 143.309 215.472 143.427 213.863C143.429 213.834 143.43 213.805 143.43 213.775V209.805C143.43 209.372 143.196 208.973 142.819 208.761C142.819 208.76 142.818 208.76 142.817 208.759L142.818 208.76L142.805 208.752C142.792 208.744 142.769 208.731 142.74 208.712C142.68 208.675 142.597 208.621 142.508 208.555C142.301 208.403 142.169 208.27 142.125 208.201C141.677 207.498 141.196 207.167 140.639 206.907C140.482 206.833 140.338 206.772 140.195 206.711C139.876 206.574 139.557 206.438 139.079 206.162C137.26 205.112 135.241 204.444 133.038 204.148C130.851 203.853 128.615 203.951 126.338 204.434C124.06 204.918 121.9 205.75 119.861 206.927L118.633 207.636C117.087 208.528 115.825 209.356 114.947 209.963C114.507 210.267 114.163 210.515 113.927 210.689C113.809 210.776 113.718 210.845 113.656 210.892C113.625 210.916 113.601 210.935 113.584 210.948L113.564 210.963L113.558 210.967L113.556 210.969C113.556 210.969 113.556 210.969 114.293 211.914L113.556 210.969C113.308 211.162 113.147 211.444 113.105 211.755C113.09 211.864 113.086 212.03 113.084 212.132L113.084 212.14C113.08 212.282 113.077 212.468 113.075 212.679C113.069 213.103 113.066 213.645 113.064 214.185C113.06 215.224 113.06 216.367 113.072 216.54C113.216 218.713 114.825 220.431 117.184 221.793C119.704 223.247 122.408 224.039 125.281 224.159C127.591 224.259 129.789 223.919 131.862 223.134C131.861 223.547 131.872 224.639 131.904 225.723C131.923 226.327 131.948 226.943 131.983 227.446C132 227.696 132.021 227.932 132.046 228.131C132.064 228.277 132.101 228.556 132.199 228.79C132.843 230.339 134.17 231.599 135.962 232.634C137.793 233.691 139.84 234.364 142.086 234.664C143.699 234.882 145.329 234.898 146.973 234.712V237.157C146.973 237.493 147.113 237.808 147.351 238.032ZM146.973 233.505C145.377 233.696 143.802 233.687 142.246 233.476C140.14 233.194 138.245 232.568 136.562 231.596C134.897 230.635 133.812 229.546 133.306 228.33C133.097 227.829 133.054 223.546 133.061 223.037L133.692 222.933C134.13 222.209 134.754 222.049 135.563 221.84C136.179 221.681 136.903 221.494 137.734 221.009L138.728 220.436C140.705 219.294 142.798 218.495 145.006 218.038C147.231 217.581 149.393 217.496 151.49 217.783C152.35 217.9 153.174 217.797 153.96 217.698C155.11 217.554 156.181 217.42 157.175 217.994C157.603 218.241 158.011 218.449 158.39 218.642C159.494 219.204 160.348 219.639 160.711 220.544L160.711 224.322C160.72 225.096 160.475 225.882 159.975 226.681C159.194 227.961 157.818 229.169 155.85 230.305L154.953 230.823C153.38 231.731 151.74 232.423 150.032 232.898C149.594 233.02 149.151 233.127 148.703 233.221C148.518 233.26 148.332 233.296 148.147 233.329C148.022 233.352 147.897 233.373 147.772 233.393C147.505 233.436 147.239 233.473 146.973 233.505ZM134.035 221.081C134.357 220.929 134.678 220.834 134.97 220.756C135.074 220.728 135.176 220.701 135.276 220.675C135.887 220.516 136.451 220.37 137.131 219.974L137.135 219.971L138.128 219.398C138.494 219.186 138.864 218.986 139.238 218.797C139.102 218.773 138.97 218.725 138.846 218.654L134.707 216.264C134.336 216.05 134.107 215.654 134.107 215.226V211.665C133.06 211.152 131.907 210.955 130.616 211.089C129.172 211.242 127.453 211.845 125.443 212.985L123.93 213.859C122.882 214.463 122.097 215.008 121.547 215.49C121.415 215.607 121.3 215.715 121.202 215.816C121.38 215.89 121.567 215.982 121.764 216.095C122.906 216.755 123.953 217.061 124.915 217.082C125.91 217.104 126.988 216.851 128.164 216.267C128.358 216.171 128.575 216.129 128.792 216.146L132.931 216.472C133.554 216.521 134.035 217.042 134.035 217.667V221.081ZM124.889 218.281C123.684 218.254 122.443 217.872 121.164 217.134C120.52 216.762 120.057 216.72 119.776 216.695C119.44 216.665 119.364 216.658 119.55 216.134C119.623 215.934 119.737 215.726 119.89 215.513C119.893 215.509 119.895 215.506 119.898 215.502C120.479 214.7 121.623 213.806 123.33 212.82L124.848 211.944C126.945 210.755 128.826 210.072 130.491 209.897C131.969 209.743 133.331 209.964 134.575 210.56C134.747 210.642 134.917 210.732 135.085 210.829C135.136 210.858 135.185 210.885 135.234 210.909C135.846 211.212 136.302 211.123 136.602 211.065C136.834 211.02 136.972 210.993 137.016 211.181C137.024 211.214 137.029 211.255 137.031 211.303L135.306 211.51V215.226L139.445 217.616C141.206 216.378 142.134 215.098 142.231 213.775V209.805C142.231 209.805 141.447 209.366 141.115 208.846C140.731 208.245 140.374 208.092 139.779 207.837C139.439 207.692 139.023 207.514 138.48 207.2C136.805 206.234 134.938 205.613 132.878 205.336C130.836 205.06 128.739 205.151 126.586 205.607C124.434 206.064 122.392 206.85 120.461 207.965L119.233 208.674C116.206 210.421 114.293 211.914 114.293 211.914C114.261 212.156 114.252 216.224 114.268 216.46C114.373 218.03 115.544 219.461 117.784 220.754C120.139 222.114 122.654 222.849 125.331 222.961C128.017 223.078 130.519 222.557 132.837 221.4V217.667L128.697 217.341C127.382 217.994 126.113 218.307 124.889 218.281ZM155.329 237.739C155.311 237.916 155.224 238.09 155.069 238.261C155.184 238.093 155.262 237.87 155.302 237.755C155.304 237.749 155.306 237.742 155.308 237.737C155.308 237.737 155.308 237.737 155.308 237.737C155.332 237.67 155.338 237.654 155.329 237.739ZM158.763 236.798C158.783 236.791 158.781 236.793 158.761 236.799C158.762 236.799 158.763 236.798 158.763 236.798ZM149.034 221.915L149.031 221.915C147.412 222.08 145.61 222.7 143.616 223.841C143.615 223.841 143.615 223.842 143.614 223.842L142.639 224.405C140.616 225.573 139.753 226.523 139.53 227.169C139.444 227.416 139.469 227.574 139.556 227.734C139.67 227.943 139.948 228.247 140.555 228.598C141.692 229.254 143.04 229.526 144.656 229.352C146.289 229.173 148.098 228.543 150.093 227.402C150.093 227.401 150.094 227.401 150.094 227.401L151.07 226.838C152.077 226.256 152.826 225.719 153.349 225.231C153.879 224.736 154.113 224.351 154.197 224.086C154.271 223.856 154.247 223.701 154.154 223.536C154.035 223.325 153.753 223.023 153.153 222.677C152.016 222.02 150.662 221.746 149.034 221.915ZM143.019 222.802C145.116 221.601 147.08 220.908 148.91 220.723C150.75 220.531 152.364 220.837 153.753 221.639C155.151 222.446 155.68 223.383 155.34 224.45C154.999 225.518 153.776 226.66 151.67 227.876L150.69 228.441C148.593 229.642 146.624 230.343 144.785 230.544C142.954 230.741 141.345 230.438 139.956 229.636C138.539 228.818 138.02 227.865 138.397 226.777C138.774 225.688 139.988 224.551 142.039 223.367L143.019 222.802Z" fill="black"/>
<path d="M148.422 243.353L139.816 238.385L141.524 237.399L149.914 237.244C151.081 237.215 152.024 237.145 152.743 237.035C153.467 236.929 154.033 236.758 154.441 236.523C154.999 236.201 155.295 235.867 155.33 235.522C155.37 235.173 155.128 234.848 154.605 234.546C154.042 234.221 153.401 234.076 152.682 234.113C151.975 234.149 151.305 234.35 150.673 234.715L148.172 233.272C148.937 232.83 149.816 232.531 150.811 232.375C151.811 232.223 152.823 232.236 153.846 232.415C154.875 232.591 155.812 232.923 156.657 233.411C157.951 234.158 158.644 234.916 158.736 235.686C158.833 236.459 158.316 237.173 157.184 237.827C156.563 238.185 155.769 238.458 154.804 238.643C153.838 238.829 152.536 238.944 150.897 238.987L145.033 239.077L150.432 242.193L148.422 243.353Z" fill="#FFB5B5"/>
<path fill-rule="evenodd" clip-rule="evenodd" d="M138.618 238.385C138.618 237.957 138.846 237.561 139.217 237.347L140.924 236.361C141.1 236.26 141.299 236.204 141.502 236.201L149.888 236.046C151.029 236.017 151.914 235.95 152.562 235.851L152.569 235.85C153.203 235.757 153.6 235.621 153.827 235.493C153.524 235.356 153.17 235.289 152.744 235.311C152.232 235.337 151.746 235.481 151.273 235.754C150.902 235.968 150.445 235.968 150.074 235.754L147.573 234.31C147.202 234.096 146.974 233.7 146.974 233.272C146.974 232.844 147.202 232.448 147.573 232.234C148.482 231.709 149.505 231.367 150.625 231.192L150.63 231.191C151.762 231.018 152.904 231.034 154.051 231.235C155.209 231.433 156.281 231.81 157.257 232.373C158.596 233.146 159.759 234.163 159.926 235.541C160.116 237.067 159.022 238.15 157.783 238.866C157.012 239.311 156.082 239.619 155.03 239.821C153.972 240.025 152.596 240.142 150.929 240.186L150.916 240.186L149.393 240.21L151.031 241.156C151.402 241.37 151.631 241.765 151.631 242.194C151.631 242.622 151.402 243.018 151.031 243.232L149.022 244.392C148.651 244.606 148.194 244.606 147.823 244.392L139.217 239.423C138.846 239.209 138.618 238.813 138.618 238.385ZM158.736 235.687C158.644 234.917 157.951 234.158 156.658 233.412C155.813 232.924 154.875 232.592 153.846 232.416C152.823 232.237 151.811 232.223 150.811 232.376C150.362 232.446 149.937 232.546 149.535 232.674C149.046 232.831 148.592 233.03 148.172 233.272L150.673 234.716C151.305 234.351 151.975 234.15 152.682 234.114C153.401 234.077 154.042 234.221 154.605 234.547C155.128 234.849 155.37 235.174 155.33 235.522C155.295 235.868 154.999 236.201 154.441 236.523C154.033 236.759 153.467 236.93 152.743 237.036C152.024 237.145 151.081 237.215 149.914 237.245L141.524 237.399L139.817 238.385L148.422 243.354L150.432 242.194L145.034 239.077L150.897 238.988C152.536 238.944 153.838 238.83 154.804 238.644C155.769 238.458 156.563 238.186 157.184 237.828C158.316 237.174 158.834 236.46 158.736 235.687Z" fill="black"/>
<path d="M132.836 217.51C130.518 218.667 128.016 219.188 125.33 219.071C122.654 218.959 120.138 218.224 117.783 216.864C115.208 215.378 114.044 213.707 114.293 211.854C114.559 210.001 116.206 208.2 119.232 206.453L120.46 205.744C122.391 204.629 124.433 203.843 126.586 203.386C128.738 202.93 130.835 202.839 132.877 203.116C134.938 203.392 136.805 204.013 138.479 204.98C140.797 206.318 142.043 207.754 142.218 209.289C142.393 210.824 141.468 212.303 139.445 213.726L135.306 211.336C136.501 210.529 137.076 209.778 137.03 209.082C137.003 208.386 136.354 207.672 135.085 206.939C133.705 206.143 132.174 205.832 130.49 206.007C128.825 206.182 126.944 206.865 124.847 208.054L123.33 208.931C121.159 210.184 119.899 211.288 119.549 212.244C119.209 213.206 119.747 214.095 121.163 214.913C122.442 215.651 123.684 216.033 124.889 216.06C126.112 216.086 127.381 215.773 128.697 215.12L132.836 217.51Z" fill="#FFB5B5"/>
<path d="M154.953 226.933C152.975 228.075 150.892 228.874 148.702 229.331C146.513 229.788 144.361 229.873 142.245 229.586C140.139 229.304 138.244 228.678 136.561 227.706C134.896 226.745 133.811 225.656 133.305 224.44C132.799 223.224 132.928 221.981 133.691 220.712C134.464 219.437 135.811 218.24 137.734 217.119L138.727 216.546C140.705 215.404 142.797 214.605 145.005 214.148C147.231 213.691 149.392 213.606 151.49 213.893C153.605 214.18 155.5 214.807 157.174 215.773C158.848 216.74 159.929 217.831 160.416 219.047C160.922 220.263 160.775 221.511 159.975 222.791C159.193 224.071 157.818 225.279 155.849 226.415L154.953 226.933ZM151.669 223.986C153.775 222.77 154.999 221.628 155.339 220.561C155.679 219.493 155.15 218.556 153.752 217.749C152.363 216.947 150.749 216.641 148.909 216.833C147.079 217.018 145.115 217.711 143.018 218.912L142.038 219.477C139.987 220.661 138.773 221.798 138.396 222.887C138.019 223.975 138.539 224.928 139.955 225.746C141.344 226.548 142.954 226.851 144.784 226.654C146.624 226.453 148.592 225.752 150.689 224.551L151.669 223.986Z" fill="#FFB5B5"/>
<path fill-rule="evenodd" clip-rule="evenodd" d="M134.034 217.546C134.021 217.987 133.767 218.385 133.372 218.582C130.865 219.834 128.161 220.394 125.28 220.269C125.28 220.269 125.279 220.269 125.278 220.269L125.331 219.071L125.28 220.269C125.28 220.269 125.28 220.269 125.28 220.269C122.408 220.149 119.704 219.358 117.184 217.903C114.468 216.335 112.758 214.285 113.105 211.695L113.106 211.683C113.457 209.249 115.545 207.198 118.633 205.415L119.861 204.706C121.9 203.529 124.06 202.697 126.337 202.214C128.615 201.731 130.85 201.632 133.038 201.928C135.241 202.223 137.259 202.891 139.079 203.941C141.49 205.334 143.168 207.035 143.409 209.154C143.63 211.094 142.581 212.764 140.845 214.171C142.11 213.652 143.416 213.253 144.762 212.974L144.764 212.974C147.113 212.492 149.411 212.399 151.652 212.705C153.905 213.011 155.951 213.683 157.774 214.735C159.571 215.773 160.9 217.038 161.526 218.594C162.2 220.221 161.962 221.872 160.995 223.421C160.068 224.936 158.507 226.266 156.449 227.454L155.552 227.972C153.467 229.176 151.264 230.021 148.948 230.505C146.632 230.988 144.343 231.08 142.086 230.774C139.839 230.474 137.793 229.801 135.962 228.744C134.17 227.71 132.842 226.449 132.198 224.9C131.526 223.285 131.733 221.643 132.664 220.094L132.666 220.091C133.581 218.581 135.114 217.259 137.13 216.084L137.135 216.081L138.128 215.508C138.494 215.296 138.864 215.096 139.238 214.907C139.102 214.883 138.969 214.836 138.846 214.764L134.706 212.375C134.348 212.168 134.122 211.791 134.108 211.378C134.093 210.965 134.293 210.574 134.635 210.343C135.176 209.978 135.503 209.672 135.682 209.439C135.813 209.267 135.832 209.178 135.834 209.159C135.833 209.15 135.833 209.14 135.833 209.131C135.83 209.116 135.806 209.018 135.636 208.83C135.426 208.6 135.063 208.311 134.486 207.977C133.339 207.316 132.064 207.049 130.616 207.2C129.171 207.352 127.453 207.955 125.443 209.095L123.929 209.969C122.882 210.574 122.097 211.119 121.547 211.601C120.987 212.092 120.754 212.445 120.678 212.651C120.632 212.782 120.638 212.87 120.724 213.012C120.845 213.212 121.139 213.514 121.763 213.875C122.906 214.535 123.952 214.84 124.915 214.861C125.91 214.883 126.988 214.63 128.164 214.046C128.523 213.868 128.949 213.881 129.296 214.082L133.436 216.472C133.818 216.692 134.048 217.105 134.034 217.546ZM124.889 216.06C123.684 216.033 122.442 215.651 121.164 214.913C119.747 214.095 119.209 213.206 119.55 212.244C119.899 211.289 121.159 210.184 123.33 208.931L124.848 208.054C126.945 206.865 128.826 206.182 130.491 206.007C132.174 205.832 133.705 206.143 135.085 206.939C136.354 207.672 137.003 208.386 137.03 209.082C137.061 209.541 136.821 210.024 136.31 210.532C136.047 210.794 135.713 211.062 135.306 211.336L139.445 213.726C141.469 212.303 142.393 210.824 142.218 209.289C142.043 207.754 140.797 206.318 138.479 204.98C136.805 204.013 134.938 203.392 132.878 203.116C130.836 202.84 128.738 202.93 126.586 203.387C124.434 203.843 122.392 204.629 120.46 205.744L119.232 206.453C116.206 208.2 114.56 210.001 114.293 211.854C114.045 213.707 115.208 215.378 117.784 216.865C120.138 218.224 122.654 218.96 125.331 219.071C127.499 219.166 129.547 218.844 131.475 218.108C131.936 217.932 132.389 217.733 132.836 217.51L128.697 215.12C127.382 215.773 126.112 216.087 124.889 216.06ZM159.975 222.791C160.775 221.511 160.922 220.263 160.417 219.047C159.929 217.831 158.848 216.74 157.174 215.773C155.5 214.807 153.605 214.18 151.49 213.893C149.393 213.607 147.231 213.692 145.005 214.148C142.798 214.605 140.705 215.404 138.728 216.546L137.734 217.119C135.812 218.24 134.464 219.438 133.692 220.712C132.928 221.981 132.799 223.224 133.305 224.44C133.811 225.656 134.897 226.745 136.561 227.706C138.245 228.678 140.139 229.304 142.246 229.586C144.361 229.873 146.514 229.788 148.703 229.331C150.892 228.874 152.975 228.075 154.953 226.933L155.85 226.416C157.818 225.279 159.193 224.071 159.975 222.791ZM149.034 218.025L149.031 218.025C147.412 218.19 145.61 218.81 143.616 219.951C143.615 219.952 143.615 219.952 143.614 219.952L142.638 220.516C140.616 221.683 139.753 222.633 139.529 223.279C139.444 223.526 139.468 223.684 139.556 223.844C139.67 224.053 139.948 224.358 140.555 224.708C141.692 225.365 143.039 225.636 144.655 225.463C146.289 225.283 148.098 224.653 150.093 223.512C150.093 223.512 150.094 223.511 150.094 223.511L151.07 222.948C152.076 222.367 152.826 221.829 153.348 221.341C153.879 220.846 154.113 220.461 154.197 220.197C154.271 219.966 154.247 219.811 154.154 219.646C154.035 219.435 153.753 219.133 153.153 218.787C152.015 218.13 150.662 217.856 149.034 218.025ZM144.784 226.654C142.954 226.851 141.344 226.548 139.955 225.746C138.539 224.929 138.019 223.975 138.396 222.887C138.774 221.798 139.988 220.662 142.039 219.477L143.018 218.912C145.116 217.712 147.079 217.019 148.91 216.833C150.749 216.642 152.364 216.947 153.753 217.749C155.151 218.556 155.68 219.493 155.339 220.561C154.999 221.628 153.776 222.77 151.669 223.986L150.69 224.552C148.592 225.752 146.624 226.453 144.784 226.654Z" fill="black"/>
<path d="M342.253 94.0605L282.848 59.7629L223.443 94.0605L282.848 128.358L342.253 94.0605Z" fill="#FFDBC0"/>
<path fill-rule="evenodd" clip-rule="evenodd" d="M342.627 94.2759C342.833 94.1569 342.833 93.9642 342.627 93.8452L283.221 59.5476C283.015 59.4287 282.681 59.4287 282.475 59.5476L223.07 93.8452C222.864 93.9642 222.864 94.1569 223.07 94.2759L282.475 128.573C282.681 128.692 283.015 128.692 283.221 128.573L342.627 94.2759ZM341.508 94.0605L282.848 127.928L224.189 94.0605L282.848 60.1935L341.508 94.0605Z" fill="black"/>
<path d="M316.934 79.4414L308.171 74.3823L248.766 108.68L257.528 113.739L316.934 79.4414Z" fill="white"/>
<path fill-rule="evenodd" clip-rule="evenodd" d="M317.306 79.6567C317.512 79.5378 317.512 79.345 317.306 79.2261L308.543 74.167C308.337 74.0481 308.003 74.0481 307.797 74.167L248.392 108.465C248.186 108.584 248.186 108.776 248.392 108.895L257.155 113.954C257.361 114.073 257.695 114.073 257.901 113.954L317.306 79.6567ZM316.187 79.4414L257.528 113.308L249.511 108.68L308.17 74.813L316.187 79.4414Z" fill="black"/>
<path d="M342.253 94.0605L282.848 128.358L282.848 196.953L342.253 162.656L342.253 94.0605Z" fill="#FFB681"/>
<path fill-rule="evenodd" clip-rule="evenodd" d="M342.626 93.8452C342.626 93.6073 342.459 93.5109 342.253 93.6299L282.848 127.927C282.642 128.046 282.475 128.336 282.475 128.573L282.475 197.169C282.475 197.407 282.642 197.503 282.848 197.384L342.253 163.086C342.459 162.967 342.626 162.678 342.626 162.44L342.626 93.8452ZM341.88 94.7064L341.88 162.44L283.221 196.307L283.221 128.573L341.88 94.7064Z" fill="black"/>
<path d="M340.054 101.042L327.671 108.192L327.671 122.713L340.054 115.563L340.054 101.042Z" fill="#FFDBC0"/>
<path fill-rule="evenodd" clip-rule="evenodd" d="M340.427 100.826C340.427 100.588 340.26 100.492 340.054 100.611L327.67 107.76C327.464 107.879 327.297 108.169 327.297 108.406L327.297 122.928C327.297 123.166 327.464 123.262 327.67 123.143L340.054 115.994C340.26 115.875 340.427 115.585 340.427 115.348L340.427 100.826ZM339.681 101.687L339.681 115.348L328.043 122.067L328.043 108.406L339.681 101.687Z" fill="black"/>
<path d="M313.223 123.744L282.848 128.359L282.848 196.954L313.223 192.339L313.223 123.744Z" fill="#E0A173"/>
<path fill-rule="evenodd" clip-rule="evenodd" d="M282.635 128.13C282.535 128.268 282.475 128.434 282.475 128.575L282.475 197.17C282.475 197.351 282.573 197.456 282.719 197.433L313.094 192.818C313.209 192.801 313.337 192.708 313.437 192.57C313.537 192.431 313.596 192.265 313.596 192.124L313.596 123.529C313.596 123.349 313.499 123.244 313.352 123.266L282.977 127.881C282.863 127.899 282.735 127.991 282.635 128.13ZM312.85 124.26L312.85 191.937L283.221 196.439L283.221 128.762L312.85 124.26Z" fill="black"/>
<path d="M223.443 94.0605L282.848 128.358L282.848 196.953L223.443 162.656L223.443 94.0605Z" fill="#4E4E4E"/>
<path fill-rule="evenodd" clip-rule="evenodd" d="M223.07 93.8452C223.07 93.6073 223.237 93.5109 223.443 93.6299L282.848 127.927C283.054 128.046 283.221 128.336 283.221 128.573L283.221 197.169C283.221 197.407 283.054 197.503 282.848 197.384L223.443 163.086C223.237 162.967 223.07 162.678 223.07 162.44L223.07 93.8452ZM223.816 94.7064L223.816 162.44L282.475 196.307L282.475 128.573L223.816 94.7064Z" fill="black"/>
<path d="M240.889 104.133L282.848 128.358L282.848 176.808L240.889 152.583L240.889 104.133Z" fill="black"/>
<path d="M249.241 108.956L257.497 113.722L257.497 125.475L249.241 120.709L249.241 108.956Z" fill="white"/>
<path fill-rule="evenodd" clip-rule="evenodd" d="M248.868 108.74C248.868 108.502 249.035 108.405 249.241 108.524L257.496 113.291C257.702 113.41 257.869 113.699 257.869 113.937L257.869 125.689C257.869 125.927 257.702 126.024 257.496 125.905L249.241 121.138C249.035 121.019 248.868 120.73 248.868 120.492L248.868 108.74ZM249.614 109.601L249.614 120.492L257.123 124.828L257.123 113.937L249.614 109.601Z" fill="black"/>
<path d="M260.135 187.828C260.135 195.914 248.953 202.469 235.16 202.469C221.366 202.469 210.184 195.914 210.184 187.828C210.184 179.742 221.366 173.188 235.16 173.188C248.953 173.188 260.135 179.742 260.135 187.828Z" fill="#D6D2CD"/>
<path d="M124.921 129.192C127.859 127.496 134.826 129.931 137.764 131.627L163.853 146.689C166.175 146.781 171.375 146.036 173.149 147.061L173.149 152.475C173.133 153.937 172.159 155.397 170.227 156.512C166.329 158.763 160.01 158.763 156.113 156.512C154.338 155.488 153.371 154.173 153.213 152.832L127.125 137.77C125.657 136.923 124.922 135.812 124.921 134.702L124.921 129.192Z" fill="#5E6FDB"/>
<path d="M127.125 126.232C130.063 124.535 134.827 124.535 137.765 126.232L163.853 141.294C166.175 141.385 168.452 141.943 170.227 142.968C174.124 145.218 174.124 148.867 170.227 151.117C166.329 153.367 160.01 153.367 156.113 151.117C154.338 150.092 153.371 148.777 153.213 147.437L127.125 132.375C124.187 130.678 124.187 127.928 127.125 126.232Z" fill="#B0B8ED"/>
<path fill-rule="evenodd" clip-rule="evenodd" d="M132.445 125.389C134.315 125.389 136.162 125.802 137.55 126.604L163.638 141.666C163.699 141.701 163.767 141.72 163.837 141.723C166.107 141.812 168.312 142.358 170.012 143.34C171.882 144.42 172.72 145.775 172.72 147.041C172.72 148.308 171.882 149.663 170.012 150.743C168.144 151.821 165.669 152.373 163.17 152.373C160.672 152.373 158.197 151.821 156.329 150.743C154.626 149.76 153.778 148.546 153.641 147.385C153.625 147.25 153.546 147.131 153.429 147.063L127.341 132.001C125.95 131.198 125.352 130.206 125.352 129.302C125.352 128.399 125.95 127.406 127.341 126.604C128.729 125.802 130.575 125.389 132.445 125.389ZM132.445 124.528C130.464 124.528 128.46 124.963 126.91 125.858C125.363 126.751 124.491 127.982 124.491 129.302C124.491 130.622 125.363 131.853 126.91 132.746L152.818 147.704C153.071 149.142 154.14 150.474 155.898 151.489C157.928 152.66 160.561 153.234 163.17 153.234C165.78 153.234 168.413 152.66 170.443 151.489C172.47 150.318 173.581 148.724 173.581 147.041C173.581 145.359 172.47 143.764 170.443 142.594C168.621 141.542 166.314 140.973 163.977 140.867L137.981 125.858C136.431 124.963 134.426 124.528 132.445 124.528Z" fill="black"/>
<path d="M137.747 132.361C138.79 131.759 140.48 131.759 141.523 132.361L162.567 144.511C164.09 144.336 165.731 144.589 166.912 145.271C168.791 146.356 168.791 148.115 166.912 149.2C165.033 150.284 161.986 150.284 160.107 149.2C158.926 148.518 158.487 147.57 158.791 146.69L137.747 134.54C136.705 133.938 136.705 132.963 137.747 132.361Z" fill="#5E6FDB"/>
<path fill-rule="evenodd" clip-rule="evenodd" d="M139.635 132.34C140.263 132.34 140.867 132.479 141.307 132.733L162.352 144.884C162.432 144.93 162.525 144.949 162.616 144.938C164.071 144.772 165.614 145.019 166.696 145.644C167.557 146.141 167.89 146.732 167.89 147.235C167.89 147.738 167.557 148.329 166.696 148.827C165.838 149.322 164.685 149.583 163.509 149.583C162.333 149.583 161.181 149.322 160.322 148.827C159.243 148.203 158.987 147.442 159.198 146.83C159.265 146.635 159.185 146.42 159.006 146.317L137.963 134.167C137.52 133.912 137.396 133.637 137.396 133.45C137.396 133.264 137.52 132.989 137.963 132.733C138.403 132.479 139.007 132.34 139.635 132.34ZM139.635 131.479C138.896 131.479 138.134 131.64 137.532 131.988C136.932 132.334 136.535 132.848 136.535 133.45C136.535 134.053 136.932 134.567 137.532 134.913L158.294 146.9C158.121 147.925 158.74 148.908 159.892 149.572C160.912 150.162 162.222 150.444 163.509 150.444C164.796 150.444 166.107 150.162 167.127 149.572C168.145 148.985 168.751 148.154 168.751 147.235C168.751 146.316 168.145 145.486 167.127 144.898C165.887 144.182 164.213 143.916 162.661 144.068L141.738 131.988C141.136 131.64 140.374 131.479 139.635 131.479Z" fill="black"/>
<path d="M128.25 114.699L68.8448 80.4016L9.43951 114.699L68.8448 148.997L128.25 114.699Z" fill="#FFDBC0"/>
<path fill-rule="evenodd" clip-rule="evenodd" d="M128.623 114.915C128.829 114.796 128.829 114.603 128.623 114.484L69.2179 80.1863C69.012 80.0674 68.678 80.0674 68.4721 80.1863L9.06682 114.484C8.86086 114.603 8.86086 114.796 9.06682 114.915L68.4721 149.212C68.678 149.331 69.012 149.331 69.2179 149.212L128.623 114.915ZM127.504 114.699L68.845 148.566L10.1856 114.699L68.845 80.8322L127.504 114.699Z" fill="black"/>
<path d="M128.25 114.7L100.21 98.5113L40.8048 132.809L68.8448 148.998L128.25 114.7Z" fill="#FFDBC0"/>
<path fill-rule="evenodd" clip-rule="evenodd" d="M128.623 114.916C128.829 114.797 128.829 114.604 128.623 114.485L100.583 98.296C100.377 98.1771 100.043 98.1771 99.8374 98.296L40.4322 132.594C40.2262 132.713 40.2262 132.905 40.4322 133.024L68.4721 149.213C68.678 149.332 69.012 149.332 69.2179 149.213L128.623 114.916ZM127.504 114.7L68.845 148.567L41.5509 132.809L100.21 98.942L127.504 114.7Z" fill="black"/>
<path d="M119.424 114.53L108.569 108.263L94.4487 116.416L105.304 122.683L119.424 114.53Z" fill="white"/>
<path fill-rule="evenodd" clip-rule="evenodd" d="M119.797 114.746C120.002 114.627 120.002 114.434 119.797 114.315L108.942 108.048C108.736 107.929 108.402 107.929 108.196 108.048L94.0751 116.2C93.8691 116.319 93.8691 116.512 94.0751 116.631L104.93 122.898C105.136 123.017 105.47 123.017 105.676 122.898L119.797 114.746ZM118.678 114.53L105.303 122.252L95.1939 116.416L108.569 108.694L118.678 114.53Z" fill="black"/>
<path d="M103.067 129.808L42.6765 94.9417L34.6253 99.59L95.0158 134.456L103.067 129.808Z" fill="white"/>
<path fill-rule="evenodd" clip-rule="evenodd" d="M103.44 130.023C103.646 129.905 103.646 129.712 103.44 129.593L43.0496 94.7264C42.8437 94.6075 42.5098 94.6075 42.3038 94.7264L34.2527 99.3747C34.0467 99.4936 34.0467 99.6864 34.2527 99.8053L94.6431 134.672C94.8491 134.791 95.183 134.791 95.3889 134.672L103.44 130.023ZM102.321 129.808L95.016 134.026L35.3714 99.59L42.6767 95.3723L102.321 129.808Z" fill="black"/>
<path d="M128.25 114.699L68.8448 148.997L68.8448 217.592L128.25 183.294L128.25 114.699Z" fill="#FFB681"/>
<path fill-rule="evenodd" clip-rule="evenodd" d="M128.623 114.483C128.623 114.246 128.456 114.149 128.25 114.268L68.8444 148.566C68.6384 148.685 68.4715 148.974 68.4715 149.212L68.4715 217.807C68.4715 218.045 68.6384 218.141 68.8444 218.022L128.25 183.725C128.456 183.606 128.623 183.316 128.623 183.079L128.623 114.483ZM127.877 115.345L127.877 183.079L69.2173 216.946L69.2173 149.212L127.877 115.345Z" fill="black"/>
<path d="M9.43848 114.699L68.8437 148.997L68.8437 217.592L9.43848 183.294L9.43848 114.699Z" fill="#E0A173"/>
<path fill-rule="evenodd" clip-rule="evenodd" d="M9.06592 114.483C9.06592 114.246 9.23288 114.149 9.43884 114.268L68.8441 148.566C69.0501 148.685 69.217 148.974 69.217 149.212L69.217 217.807C69.217 218.045 69.05 218.141 68.8441 218.022L9.43884 183.725C9.23288 183.606 9.06592 183.316 9.06592 183.079L9.06592 114.483ZM9.81176 115.345L9.81176 183.079L68.4712 216.946L68.4712 149.212L9.81176 115.345Z" fill="black"/>
<path d="M30.7393 138.191L47.545 147.894L47.545 156.23L30.7393 146.527L30.7393 138.191Z" fill="#4E4E4E"/>
<path fill-rule="evenodd" clip-rule="evenodd" d="M30.3667 137.975C30.3667 137.737 30.5337 137.641 30.7396 137.76L47.5454 147.463C47.7513 147.581 47.9183 147.871 47.9183 148.108L47.9183 156.445C47.9183 156.683 47.7513 156.779 47.5454 156.66L30.7396 146.957C30.5337 146.838 30.3667 146.549 30.3667 146.311L30.3667 137.975ZM31.1125 138.836L31.1125 146.311L47.1724 155.584L47.1724 148.108L31.1125 138.836Z" fill="black"/>
<path d="M102.704 129.431L94.4482 134.197L94.4482 157.383L102.704 152.617L102.704 129.431Z" fill="white"/>
<path fill-rule="evenodd" clip-rule="evenodd" d="M103.077 129.216C103.077 128.978 102.91 128.882 102.704 129L94.4479 133.767C94.2419 133.886 94.0749 134.175 94.0749 134.413L94.0749 157.599C94.0749 157.837 94.2419 157.933 94.4479 157.814L102.704 153.048C102.91 152.929 103.077 152.64 103.077 152.402L103.077 129.216ZM102.331 130.077L102.331 152.402L94.8208 156.738L94.8208 134.413L102.331 130.077Z" fill="black"/>
<path d="M256.627 189.7C246.791 195.378 230.843 195.378 221.007 189.7C216.204 186.926 213.746 183.312 213.634 179.677L213.633 173.56C214.85 171.611 218.302 170.697 221.007 169.135C230.843 163.456 246.791 163.456 256.627 169.135C259.689 170.903 262.844 171.321 264 173.56L264 179.677C263.888 183.312 261.43 186.926 256.627 189.7Z" fill="#5E6FDB"/>
<path fill-rule="evenodd" clip-rule="evenodd" d="M238.816 165.306C232.426 165.306 226.059 166.715 221.221 169.508C220.328 170.023 219.334 170.479 218.388 170.914C217.889 171.143 217.403 171.366 216.951 171.588C215.649 172.23 214.618 172.875 214.062 173.688L214.064 179.671C214.172 183.102 216.498 186.599 221.221 189.327C226.059 192.119 232.426 193.528 238.816 193.528C245.206 193.528 251.573 192.119 256.41 189.327C261.134 186.599 263.46 183.102 263.568 179.671L263.568 173.668C263.05 172.738 262.111 172.143 260.847 171.562C260.457 171.382 260.032 171.203 259.586 171.015C258.588 170.593 257.483 170.127 256.41 169.507C251.573 166.715 245.206 165.306 238.816 165.306ZM238.816 164.445C245.317 164.445 251.842 165.876 256.841 168.762C257.867 169.354 258.884 169.783 259.859 170.194C260.319 170.388 260.769 170.578 261.207 170.779C262.536 171.39 263.733 172.105 264.381 173.362C264.413 173.424 264.429 173.491 264.429 173.56L264.429 179.677C264.429 179.682 264.429 179.686 264.429 179.691C264.311 183.526 261.721 187.255 256.841 190.072C251.842 192.959 245.317 194.389 238.816 194.389C232.315 194.389 225.79 192.959 220.791 190.072C215.911 187.255 213.321 183.526 213.203 179.691C213.203 179.686 213.203 179.682 213.203 179.677L213.201 173.56C213.201 173.479 213.224 173.4 213.267 173.332C213.946 172.243 215.219 171.483 216.57 170.816C217.069 170.57 217.577 170.337 218.087 170.104C219.007 169.682 219.928 169.26 220.791 168.762C225.79 165.876 232.315 164.445 238.816 164.445Z" fill="black"/>
<path d="M256.626 184.232C246.79 189.911 230.842 189.911 221.006 184.232C211.17 178.553 211.17 169.346 221.006 163.667C230.842 157.988 246.79 157.988 256.626 163.667C266.462 169.346 266.462 178.553 256.626 184.232Z" fill="#B0B8ED"/>
<path fill-rule="evenodd" clip-rule="evenodd" d="M238.816 159.839C232.425 159.839 226.058 161.247 221.221 164.04C216.382 166.834 214.059 170.436 214.059 173.95C214.059 177.463 216.382 181.065 221.221 183.859C226.058 186.652 232.425 188.061 238.816 188.061C245.206 188.061 251.573 186.652 256.41 183.859C261.25 181.065 263.572 177.463 263.572 173.95C263.572 170.436 261.25 166.834 256.41 164.04C251.573 161.247 245.206 159.839 238.816 159.839ZM238.816 158.978C245.317 158.978 251.842 160.408 256.841 163.294C261.837 166.179 264.433 170.02 264.433 173.95C264.433 177.879 261.837 181.72 256.841 184.605C251.842 187.491 245.317 188.922 238.816 188.922C232.314 188.922 225.789 187.491 220.791 184.605C215.794 181.72 213.198 177.879 213.198 173.95C213.198 170.02 215.794 166.179 220.791 163.294C225.789 160.408 232.314 158.978 238.816 158.978Z" fill="black"/>
<path d="M256.34 163.693C246.686 157.979 231.034 157.979 221.38 163.693L256.34 184.383C265.994 178.67 265.994 169.406 256.34 163.693Z" fill="#5E6FDB"/>
<path fill-rule="evenodd" clip-rule="evenodd" d="M242.276 171.953C241.708 171.625 241.138 171.308 240.569 171.002C240.356 170.887 240.344 170.695 240.543 170.571C240.741 170.448 241.075 170.442 241.288 170.556C241.866 170.867 242.445 171.19 243.022 171.523C246.781 173.693 249.767 175.915 251.552 177.76C252.442 178.68 253.048 179.522 253.289 180.226C253.526 180.917 253.436 181.56 252.716 181.976C251.996 182.391 250.883 182.443 249.686 182.307C248.466 182.167 247.008 181.817 245.414 181.303C242.219 180.273 238.371 178.549 234.611 176.379C234.034 176.046 233.476 175.711 232.937 175.378C232.738 175.255 232.75 175.062 232.963 174.947C233.176 174.833 233.51 174.84 233.709 174.963C234.239 175.291 234.789 175.62 235.357 175.948C239.068 178.091 242.84 179.776 245.928 180.772C247.476 181.271 248.824 181.587 249.89 181.709C250.98 181.833 251.632 181.74 251.97 181.545C252.308 181.35 252.47 180.973 252.254 180.344C252.043 179.729 251.495 178.95 250.631 178.057C248.906 176.274 245.987 174.096 242.276 171.953ZM237.335 168.986C237.156 169.118 236.825 169.142 236.595 169.039C233.932 167.84 231.461 166.967 229.483 166.506C228.493 166.275 227.654 166.154 226.993 166.138C226.332 166.122 225.914 166.212 225.663 166.357C225.412 166.501 225.257 166.743 225.284 167.125C225.312 167.506 225.521 167.99 225.921 168.562C226.72 169.704 228.232 171.131 230.308 172.668C230.487 172.801 230.446 172.992 230.217 173.096C229.987 173.199 229.656 173.175 229.476 173.043C227.367 171.481 225.792 170.004 224.943 168.79C224.519 168.185 224.265 167.628 224.231 167.15C224.196 166.672 224.382 166.235 224.917 165.926C225.452 165.617 226.209 165.51 227.037 165.53C227.865 165.549 228.829 165.696 229.878 165.941C231.981 166.431 234.539 167.341 237.244 168.558C237.473 168.662 237.515 168.853 237.335 168.986Z" fill="black"/>
<path fill-rule="evenodd" clip-rule="evenodd" d="M248.398 172.36C248.163 172.26 248.111 172.07 248.283 171.934C250.024 170.555 251.263 169.296 251.889 168.293C252.202 167.791 252.352 167.369 252.35 167.036C252.349 166.704 252.199 166.49 251.969 166.356C251.63 166.161 250.978 166.068 249.889 166.192C248.823 166.314 247.474 166.631 245.927 167.13C242.839 168.125 239.067 169.811 235.356 171.953C231.645 174.096 228.726 176.274 227.001 178.057C226.137 178.95 225.588 179.728 225.377 180.344C225.162 180.973 225.323 181.349 225.662 181.545C225.892 181.678 226.264 181.764 226.838 181.765C227.415 181.766 228.147 181.679 229.017 181.498C230.754 181.137 232.933 180.422 235.323 179.417C235.558 179.318 235.888 179.347 236.059 179.483C236.231 179.619 236.179 179.81 235.944 179.909C233.513 180.932 231.243 181.683 229.374 182.071C228.441 182.265 227.581 182.375 226.835 182.374C226.088 182.373 225.408 182.259 224.916 181.975C224.196 181.56 224.106 180.917 224.343 180.226C224.584 179.522 225.19 178.68 226.08 177.76C227.864 175.915 230.85 173.693 234.61 171.523C238.369 169.352 242.218 167.628 245.413 166.598C247.007 166.084 248.465 165.734 249.685 165.595C250.881 165.458 251.995 165.51 252.714 165.926C253.206 166.21 253.403 166.602 253.405 167.034C253.407 167.464 253.217 167.961 252.881 168.5C252.208 169.578 250.907 170.889 249.135 172.293C248.963 172.429 248.634 172.459 248.398 172.36Z" fill="black"/>
<path d="M237.821 174.524C236.7 173.877 236.237 173.096 236.786 172.779C237.336 172.462 238.689 172.729 239.81 173.376C240.93 174.023 241.394 174.804 240.844 175.122C240.295 175.439 238.941 175.171 237.821 174.524Z" fill="black"/>
<path fill-rule="evenodd" clip-rule="evenodd" d="M240.454 174.471C240.298 174.208 239.953 173.889 239.437 173.591C238.921 173.293 238.369 173.094 237.913 173.004C237.421 172.907 237.212 172.963 237.159 172.994C237.106 173.025 237.008 173.145 237.176 173.429C237.332 173.692 237.677 174.011 238.193 174.309C238.709 174.607 239.261 174.806 239.717 174.896C240.209 174.994 240.418 174.937 240.471 174.906C240.525 174.875 240.622 174.755 240.454 174.471ZM241.452 174.274C241.658 174.621 241.713 175.051 241.217 175.337C240.721 175.623 239.978 175.592 239.376 175.473C238.737 175.347 238.052 175.089 237.448 174.74C236.843 174.391 236.397 173.995 236.178 173.626C235.972 173.279 235.917 172.85 236.413 172.563C236.909 172.277 237.652 172.309 238.254 172.428C238.893 172.554 239.578 172.812 240.183 173.161C240.787 173.51 241.234 173.905 241.452 174.274Z" fill="black"/>
<path fill-rule="evenodd" clip-rule="evenodd" d="M238.816 159.839C232.425 159.839 226.058 161.247 221.221 164.04C216.382 166.834 214.059 170.436 214.059 173.95C214.059 177.463 216.382 181.065 221.221 183.859C226.058 186.652 232.425 188.061 238.816 188.061C245.206 188.061 251.573 186.652 256.41 183.859C261.25 181.065 263.572 177.463 263.572 173.95C263.572 170.436 261.25 166.834 256.41 164.04C251.573 161.247 245.206 159.839 238.816 159.839ZM238.816 158.978C245.317 158.978 251.842 160.408 256.841 163.294C261.837 166.179 264.433 170.02 264.433 173.95C264.433 177.879 261.837 181.72 256.841 184.605C251.842 187.491 245.317 188.922 238.816 188.922C232.314 188.922 225.789 187.491 220.791 184.605C215.794 181.72 213.198 177.879 213.198 173.95C213.198 170.02 215.794 166.179 220.791 163.294C225.789 160.408 232.314 158.978 238.816 158.978Z" fill="black"/>
<path d="M257.892 225.118C267.559 230.699 286.04 230.765 292.007 230.629C293.12 230.603 293.982 230.106 294.026 229.463C294.061 228.953 294.088 223.769 294.078 222.982C294.078 222.982 292.716 214.522 284.481 209.767C277.138 205.528 265.234 205.528 257.892 209.767C255.385 211.215 253.181 211.344 252.386 213.196L252.386 217.524C252.422 220.275 254.257 223.019 257.892 225.118Z" fill="#FF8484"/>
<path fill-rule="evenodd" clip-rule="evenodd" d="M271.186 207.173C275.922 207.173 280.627 208.218 284.188 210.274C288.183 212.58 290.513 215.785 291.845 218.421C292.512 219.739 292.927 220.911 293.175 221.751C293.299 222.171 293.381 222.507 293.432 222.735C293.457 222.85 293.475 222.937 293.486 222.994C293.489 223.01 293.491 223.024 293.493 223.035C293.502 223.962 293.474 228.949 293.442 229.423C293.438 229.476 293.392 229.616 293.125 229.77C292.866 229.919 292.473 230.032 291.994 230.043C289.023 230.111 282.939 230.128 276.399 229.435C269.839 228.739 262.906 227.336 258.185 224.61C254.658 222.574 253.005 219.991 252.972 217.52L252.972 213.322C253.292 212.664 253.861 212.267 254.742 211.861C255.014 211.736 255.322 211.607 255.657 211.468C256.412 211.154 257.298 210.785 258.185 210.274C261.746 208.218 266.45 207.173 271.186 207.173ZM294.078 222.981L294.656 222.888C294.661 222.917 294.663 222.945 294.663 222.974C294.674 223.756 294.647 228.965 294.61 229.503C294.569 230.092 294.163 230.523 293.71 230.784C293.248 231.051 292.654 231.199 292.02 231.214C289.024 231.282 282.885 231.3 276.275 230.599C269.686 229.9 262.545 228.479 257.6 225.624C253.859 223.465 251.84 220.561 251.801 217.531L251.801 217.524L251.801 213.195C251.801 213.116 251.817 213.037 251.848 212.965C252.334 211.834 253.251 211.26 254.252 210.798C254.596 210.639 254.945 210.494 255.301 210.347C256.023 210.047 256.777 209.734 257.6 209.26C261.381 207.077 266.299 206.002 271.186 206.002C276.074 206.002 280.992 207.077 284.773 209.26C289.014 211.708 291.483 215.11 292.89 217.893C293.594 219.284 294.033 220.524 294.298 221.419C294.43 221.867 294.519 222.229 294.575 222.482C294.603 222.608 294.623 222.707 294.636 222.776C294.642 222.81 294.647 222.837 294.65 222.856L294.654 222.878L294.655 222.885L294.656 222.887L294.656 222.888C294.656 222.888 294.656 222.888 294.078 222.981Z" fill="black"/>
<path d="M257.892 220.999C267.559 226.58 286.04 226.646 292.007 226.51C293.12 226.484 293.982 225.987 294.026 225.344C294.262 221.899 294.147 211.229 284.481 205.648C277.138 201.409 265.234 201.409 257.892 205.648C250.55 209.887 250.55 216.76 257.892 220.999Z" fill="#FFB5B5"/>
<path fill-rule="evenodd" clip-rule="evenodd" d="M271.187 203.054C275.923 203.054 280.627 204.099 284.188 206.155C293.538 211.553 293.676 221.893 293.442 225.304C293.438 225.357 293.392 225.497 293.125 225.651C292.867 225.8 292.474 225.913 291.994 225.924C289.023 225.992 282.939 226.01 276.399 225.316C269.839 224.62 262.906 223.217 258.185 220.492C254.621 218.434 252.971 215.818 252.971 213.323C252.971 210.828 254.621 208.213 258.185 206.155C261.746 204.099 266.451 203.054 271.187 203.054ZM271.187 201.883C266.3 201.883 261.381 202.958 257.6 205.141C253.822 207.322 251.801 210.263 251.801 213.323C251.801 216.384 253.822 219.325 257.6 221.506C262.545 224.361 269.686 225.782 276.276 226.48C282.885 227.181 289.025 227.163 292.021 227.095C292.654 227.08 293.248 226.932 293.71 226.665C294.163 226.404 294.57 225.974 294.61 225.384C294.849 221.906 294.756 210.904 284.774 205.141C280.993 202.958 276.074 201.883 271.187 201.883Z" fill="black"/>
<path d="M266.039 216.293C268.881 217.934 273.489 217.934 276.331 216.293C279.173 214.653 279.173 211.992 276.331 210.351C273.489 208.71 268.881 208.71 266.039 210.351C263.197 211.992 263.197 214.653 266.039 216.293Z" fill="#FF8484"/>
<path fill-rule="evenodd" clip-rule="evenodd" d="M271.185 209.706C272.972 209.706 274.728 210.101 276.039 210.858C277.353 211.617 277.878 212.53 277.878 213.322C277.878 214.115 277.353 215.028 276.039 215.786C274.728 216.543 272.972 216.939 271.185 216.939C269.398 216.939 267.643 216.543 266.332 215.786C265.017 215.028 264.493 214.115 264.493 213.322C264.493 212.53 265.017 211.617 266.332 210.858C267.643 210.101 269.398 209.706 271.185 209.706ZM271.185 208.535C269.247 208.535 267.277 208.96 265.746 209.844C264.219 210.726 263.322 211.964 263.322 213.322C263.322 214.681 264.219 215.918 265.746 216.8C267.277 217.684 269.247 218.11 271.185 218.11C273.123 218.11 275.093 217.684 276.624 216.8C278.152 215.918 279.048 214.681 279.048 213.322C279.048 211.964 278.152 210.726 276.624 209.844C275.093 208.96 273.123 208.535 271.185 208.535Z" fill="black"/>
<path fill-rule="evenodd" clip-rule="evenodd" d="M276.33 216.292C273.488 217.933 268.88 217.933 266.037 216.292C265.592 216.035 265.216 215.752 264.91 215.453C265.216 215.153 265.592 214.871 266.037 214.614C268.88 212.973 273.488 212.973 276.33 214.614C276.775 214.871 277.151 215.153 277.457 215.453C277.151 215.752 276.775 216.035 276.33 216.292Z" fill="#BDDCD8"/>
<path fill-rule="evenodd" clip-rule="evenodd" d="M266.544 214.908C269.107 213.429 273.261 213.429 275.823 214.908C276.119 215.079 276.381 215.262 276.608 215.454C276.381 215.646 276.119 215.83 275.823 216.001C273.261 217.48 269.107 217.48 266.544 216.001C266.248 215.83 265.987 215.646 265.759 215.454C265.987 215.262 266.248 215.079 266.544 214.908ZM276.837 214.322C273.715 212.52 268.653 212.52 265.531 214.322C265.042 214.605 264.629 214.915 264.293 215.244C264.16 215.374 264.16 215.535 264.293 215.664C264.629 215.994 265.042 216.304 265.531 216.586C268.653 218.389 273.715 218.389 276.837 216.586C277.325 216.304 277.738 215.994 278.074 215.664C278.207 215.535 278.207 215.374 278.074 215.244C277.738 214.915 277.325 214.605 276.837 214.322Z" fill="black"/>
<path d="M203.338 213.295C208.569 212.349 214.104 212.112 219.515 212.6C219.761 212.622 219.927 212.757 219.885 212.899L222.24 217.52L217.266 221.837C217.225 221.979 216.992 222.074 216.745 222.054C213.917 221.817 208.606 227.361 205.876 227.855L200.656 228.716C199.743 230.282 197.264 232.161 195.065 234.306C195.095 234.449 194.925 234.582 194.678 234.603L179.145 235.924C178.898 235.945 178.668 235.846 178.635 235.704C177.905 232.57 178.435 229.38 180.184 226.381C181.982 223.3 185.017 220.508 189.041 218.234C193.065 215.959 197.965 214.267 203.338 213.295Z" fill="#D6D2CD"/>
<path d="M224.807 229.815C226.284 230.668 226.337 232.02 224.926 232.835C223.515 233.65 217.227 237.682 215.75 236.829C214.595 236.162 208.18 230.651 205.445 228.286C205.171 228.05 209.601 223.708 210.01 223.866C214.107 225.445 223.652 229.148 224.807 229.815Z" fill="#D6D2CD"/>
<path d="M224.378 207.328C224.42 207.186 224.631 203.352 224.384 203.329C218.973 202.842 213.923 205.917 208.693 206.863C203.319 207.835 198.419 209.527 194.395 211.801C190.371 214.076 186.721 214.62 184.923 217.701C183.173 220.701 183.227 226.025 183.989 229.272C184.023 229.415 184.252 229.512 184.499 229.491L200.033 228.17C200.279 228.149 200.45 228.017 200.419 227.874C200.07 226.237 200.361 224.574 201.274 223.009C202.236 221.361 203.859 219.868 206.011 218.652C208.163 217.436 210.783 216.531 213.656 216.011C216.386 215.517 218.41 216.246 221.238 216.482C221.485 216.503 221.718 216.408 221.759 216.266L224.378 207.328Z" fill="#55A398"/>
<path fill-rule="evenodd" clip-rule="evenodd" d="M216.079 203.328C218.705 202.492 221.526 201.775 224.501 202.044C224.955 202.085 225.246 202.338 225.384 202.499C225.519 202.655 225.589 202.809 225.622 202.889C225.688 203.052 225.717 203.208 225.731 203.292C225.763 203.481 225.777 203.698 225.784 203.894C225.8 204.302 225.795 204.822 225.781 205.32C225.767 205.824 225.744 206.33 225.722 206.721C225.71 206.916 225.699 207.087 225.689 207.217C225.684 207.282 225.679 207.343 225.673 207.395C225.671 207.421 225.667 207.452 225.662 207.485L225.662 207.487C225.66 207.501 225.648 207.591 225.618 207.692L222.999 216.63C222.819 217.244 222.324 217.524 222.069 217.63C221.767 217.755 221.439 217.796 221.13 217.771C220.205 217.693 219.293 217.555 218.477 217.431C218.036 217.365 217.623 217.302 217.251 217.256C216.12 217.114 215.074 217.068 213.886 217.283C211.13 217.782 208.652 218.644 206.647 219.777C204.636 220.914 203.207 222.261 202.39 223.661C201.625 224.972 201.406 226.309 201.683 227.605C201.837 228.327 201.429 228.853 201.119 229.092C200.808 229.331 200.45 229.432 200.142 229.458L184.609 230.779C184.297 230.806 183.963 230.763 183.655 230.631C183.396 230.52 182.885 230.219 182.732 229.568C182.321 227.818 182.108 225.553 182.224 223.328C182.339 221.126 182.783 218.808 183.808 217.051C184.898 215.182 186.535 214.135 188.255 213.29C188.877 212.984 189.547 212.688 190.217 212.393C190.46 212.286 190.703 212.178 190.943 212.071C191.866 211.658 192.806 211.216 193.76 210.677C197.931 208.32 202.972 206.585 208.463 205.592C210.312 205.258 212.107 204.653 214.008 204.013C214.683 203.786 215.371 203.554 216.079 203.328ZM224.385 203.33C224.631 203.352 224.42 207.186 224.379 207.328L221.76 216.266C221.718 216.409 221.485 216.504 221.238 216.483C220.345 216.408 219.531 216.285 218.751 216.166C217.061 215.908 215.524 215.674 213.657 216.012C210.783 216.532 208.163 217.437 206.011 218.653C203.859 219.869 202.236 221.362 201.275 223.01C200.361 224.575 200.07 226.238 200.419 227.875C200.45 228.018 200.28 228.15 200.033 228.171L184.499 229.492C184.253 229.513 184.023 229.416 183.989 229.273C183.228 226.026 183.173 220.702 184.924 217.702C186.149 215.601 188.237 214.679 190.716 213.585C191.873 213.074 193.115 212.525 194.396 211.802C198.42 209.528 203.319 207.835 208.693 206.863C210.643 206.511 212.567 205.862 214.495 205.213C217.739 204.12 220.991 203.024 224.385 203.33Z" fill="black"/>
<path d="M225.794 223.701C226.563 224.145 226.133 228.419 226.133 228.419C226.126 228.943 225.785 229.457 225.109 229.848C223.697 230.663 221.356 230.632 219.879 229.779C218.723 229.112 212.308 223.601 209.573 221.236C209.512 221.183 209.489 221.128 209.494 221.077C209.494 221.077 209.449 217.432 209.495 217.394C209.622 217.288 211.313 219.112 211.547 219.202C215.643 220.781 224.639 223.034 225.794 223.701Z" fill="#55A398"/>
<path fill-rule="evenodd" clip-rule="evenodd" d="M210.767 218.501C211.131 218.855 211.454 219.165 211.548 219.201C213.678 220.022 217.134 221.026 220.123 221.894C222.88 222.695 225.241 223.38 225.795 223.7C226.564 224.144 226.134 228.419 226.134 228.419C226.126 228.942 225.786 229.456 225.11 229.847C223.698 230.662 221.357 230.631 219.88 229.778C218.724 229.111 212.309 223.6 209.574 221.235C209.513 221.183 209.49 221.128 209.495 221.076C209.495 221.076 209.482 220.027 209.477 219.049C209.476 218.924 209.476 218.801 209.475 218.68C209.473 217.986 209.477 217.408 209.495 217.393C209.559 217.34 210.015 217.771 210.483 218.226C210.542 218.283 210.601 218.34 210.66 218.397C210.696 218.432 210.732 218.467 210.767 218.501ZM208.203 221.051C208.187 221.59 208.471 221.989 208.729 222.213C210.098 223.396 212.391 225.37 214.488 227.133C215.536 228.013 216.54 228.846 217.358 229.502C218.138 230.128 218.84 230.67 219.234 230.897C220.205 231.458 221.388 231.715 222.502 231.73C223.613 231.744 224.797 231.519 225.755 230.966C226.66 230.444 227.382 229.597 227.424 228.499L227.425 228.492C227.428 228.458 227.433 228.408 227.438 228.346C227.449 228.222 227.463 228.046 227.478 227.833C227.507 227.41 227.539 226.835 227.545 226.239C227.551 225.654 227.533 225 227.451 224.438C227.41 224.16 227.346 223.85 227.235 223.563C227.139 223.316 226.924 222.86 226.441 222.582C226.18 222.431 225.805 222.288 225.449 222.162C225.06 222.025 224.579 221.87 224.038 221.703C223.043 221.397 221.803 221.037 220.486 220.654C220.369 220.62 220.252 220.586 220.135 220.552C217.288 219.725 214.171 218.812 212.176 218.058C212.138 218.024 212.09 217.98 212.031 217.925C211.896 217.797 211.739 217.645 211.568 217.479C211.507 217.419 211.445 217.359 211.381 217.296C211.149 217.072 210.896 216.829 210.687 216.646C210.588 216.56 210.462 216.454 210.335 216.368C210.28 216.33 210.161 216.252 210.005 216.191C209.929 216.162 209.776 216.109 209.577 216.099C209.372 216.088 209.005 216.121 208.67 216.4C208.452 216.58 208.354 216.784 208.326 216.844C208.285 216.93 208.263 217.003 208.252 217.041C208.229 217.118 208.219 217.182 208.215 217.208C208.206 217.267 208.202 217.318 208.2 217.344C208.195 217.402 208.193 217.466 208.191 217.523C208.187 217.643 208.185 217.801 208.184 217.977C208.182 218.332 208.183 218.797 208.186 219.257C208.189 219.717 208.193 220.176 208.197 220.519C208.199 220.691 208.2 220.834 208.201 220.934L208.203 221.051Z" fill="black"/>
<path d="M223.517 203.426C223.559 203.284 223.393 203.149 223.146 203.127C217.735 202.639 213.923 202.015 208.692 202.961C203.319 203.933 198.419 205.625 194.395 207.899C190.371 210.174 187.336 212.965 185.538 216.047C183.789 219.045 183.259 222.235 183.989 225.369C184.022 225.512 184.252 225.61 184.499 225.589L200.032 224.268C200.279 224.247 200.449 224.115 200.419 223.972C200.069 222.335 200.361 220.672 201.274 219.107C202.235 217.459 203.858 215.966 206.01 214.75C208.162 213.534 211.478 212.215 213.656 212.109C216.213 211.985 218.366 212.364 220.376 212.58C220.623 212.601 220.856 212.506 220.898 212.364L223.517 203.426Z" fill="#BDDCD8"/>
<path fill-rule="evenodd" clip-rule="evenodd" d="M220.254 213.866L220.238 213.864C219.788 213.816 219.344 213.762 218.899 213.707C217.263 213.507 215.625 213.307 213.719 213.399C212.819 213.443 211.586 213.75 210.263 214.228C208.959 214.699 207.658 215.303 206.646 215.874C204.636 217.01 203.207 218.358 202.39 219.758C201.625 221.069 201.406 222.406 201.683 223.702C201.837 224.424 201.429 224.95 201.119 225.188C200.808 225.428 200.45 225.529 200.142 225.555L184.609 226.876C184.295 226.903 183.96 226.859 183.653 226.727C183.395 226.615 182.883 226.313 182.731 225.662C181.921 222.18 182.521 218.655 184.423 215.395C186.365 212.066 189.594 209.129 193.76 206.774C197.931 204.417 202.972 202.682 208.463 201.689C213.117 200.847 216.737 201.204 221.015 201.625C221.743 201.696 222.489 201.77 223.263 201.84C223.571 201.867 223.938 201.972 224.253 202.227C224.576 202.488 224.972 203.056 224.757 203.789L222.138 212.727C221.958 213.341 221.463 213.621 221.208 213.727C220.906 213.851 220.577 213.893 220.269 213.867L220.254 213.866ZM220.377 212.58C219.96 212.535 219.537 212.483 219.106 212.43C217.456 212.228 215.683 212.011 213.657 212.109C211.479 212.214 208.163 213.533 206.011 214.75C203.859 215.966 202.236 217.459 201.275 219.107C200.361 220.672 200.07 222.334 200.419 223.971C200.45 224.114 200.28 224.247 200.033 224.268L184.499 225.589C184.253 225.61 184.023 225.512 183.989 225.369C183.26 222.235 183.789 219.045 185.539 216.046C187.336 212.965 190.371 210.173 194.395 207.899C198.42 205.625 203.319 203.932 208.693 202.96C213.158 202.153 216.591 202.489 220.866 202.909C221.599 202.981 222.356 203.055 223.147 203.126C223.393 203.148 223.559 203.283 223.517 203.425L220.898 212.363C220.857 212.505 220.624 212.601 220.377 212.58Z" fill="black"/>
<path fill-rule="evenodd" clip-rule="evenodd" d="M202.319 219.67L184.257 216.45L184.724 215.577L202.786 218.798L202.319 219.67Z" fill="black"/>
<path d="M224.994 222.925C226.471 223.778 226.524 225.129 225.113 225.944C223.701 226.759 221.36 226.729 219.883 225.876C218.727 225.209 212.313 219.698 209.577 217.333C209.304 217.096 209.788 216.817 210.197 216.975C214.294 218.554 223.839 222.258 224.994 222.925Z" fill="#BDDCD8"/>
<path fill-rule="evenodd" clip-rule="evenodd" d="M211.906 217.635C216.488 219.409 223.979 222.339 224.995 222.925C226.472 223.778 226.525 225.13 225.113 225.945C223.702 226.759 221.36 226.729 219.883 225.876C218.923 225.321 214.327 221.419 211.233 218.76C210.939 218.508 210.66 218.267 210.398 218.041C210.238 217.903 210.085 217.771 209.939 217.646C209.813 217.536 209.692 217.432 209.578 217.333C209.364 217.148 209.613 216.937 209.927 216.929C210.015 216.927 210.108 216.941 210.198 216.975C210.385 217.047 210.583 217.124 210.791 217.204C211.137 217.338 211.511 217.482 211.906 217.635ZM227.428 224.398C227.474 225.584 226.72 226.508 225.759 227.063C224.8 227.617 223.617 227.842 222.506 227.827C221.391 227.813 220.208 227.555 219.237 226.995C218.844 226.768 218.141 226.226 217.362 225.6C216.544 224.943 215.54 224.111 214.492 223.23C212.395 221.468 210.102 219.494 208.733 218.31C208.415 218.036 208.091 217.517 208.244 216.862C208.371 216.317 208.759 216.018 208.986 215.887C209.462 215.612 210.094 215.551 210.662 215.77C212.712 216.56 216.127 217.882 219.175 219.091C220.699 219.696 222.136 220.273 223.267 220.743C224.352 221.194 225.261 221.587 225.641 221.806C226.596 222.358 227.383 223.246 227.428 224.398Z" fill="black"/>
<path d="M221.379 213.214L224.393 202.879L224.824 207.185L221.809 216.228L220.948 217.089V213.214H221.379Z" fill="black"/>
</svg>
