<svg width="60" height="60" fill="none" xmlns="http://www.w3.org/2000/svg"><path d="M55.0341 46.2443C56.1169 45.6275 56.769 44.5026 56.769 43.2809V16.707C56.769 15.4853 56.1046 14.3484 55.0341 13.7436L31.6317 0.462655C30.5489 -0.154218 29.2324 -0.154218 28.1496 0.462655L4.73488 13.7436C3.65212 14.3604 3 15.4853 3 16.707V43.2809C3 44.5026 3.66442 45.6396 4.73488 46.2443L28.1496 59.5373C29.2324 60.1542 30.5489 60.1542 31.6317 59.5373L37.0086 56.4893L11.859 42.2165C10.7762 41.5996 10.1241 40.4748 10.1241 39.2531V20.7469C10.1241 19.5253 10.7885 18.3883 11.859 17.7835L28.1496 8.53039C29.2324 7.91352 30.5489 7.91352 31.6317 8.53039L47.9223 17.7835C49.0051 18.4004 49.6572 19.5253 49.6572 20.7469V39.241C49.6572 40.4627 48.9928 41.5996 47.9223 42.2044L39.3956 47.0426C38.2636 47.6837 38.2636 49.2924 39.3956 49.9335L43.9604 52.5219" fill="#F88F62"></path><path d="M40.9601 21.739L31.6336 16.4412C30.5509 15.8243 29.2343 15.8243 28.1516 16.4412L18.825 21.739C18.2837 22.0414 17.853 22.4769 17.5454 22.997L29.8987 30.0003V44.019C30.5016 44.019 31.1045 43.8618 31.6336 43.5594L40.9601 38.2616C42.0429 37.6447 42.6954 36.5198 42.6954 35.2981V24.7024C42.7073 23.4808 42.0429 22.3438 40.9601 21.739Z" fill="#F88F62"></path><path d="M17.5349 22.9854C17.2396 23.4934 17.0674 24.086 17.0674 24.7029V35.2986C17.0674 36.5203 17.7318 37.6573 18.8023 38.262L28.1534 43.5599C28.6948 43.8623 29.2977 44.0195 29.8883 44.0195V30.0008L17.5349 22.9854Z" fill="#F88F62"></path><path d="M29.8883 29.9965L17.5349 22.9932C17.2396 23.5012 17.0674 24.0939 17.0674 24.6986V35.2943C17.0674 36.516 17.7318 37.653 18.8023 38.2578L28.1534 43.5556C29.2362 44.1725 30.5527 44.1725 31.6355 43.5556L40.962 38.2578C42.0447 37.6409 42.6969 36.516 42.6969 35.2943V24.6986C42.6969 24.0818 42.5369 23.5012 42.2293 22.9932L29.8883 29.9965Z" fill="#F88F62"></path><path d="M42.2434 22.9843C41.9481 22.4763 41.5052 22.0408 40.9638 21.7263L31.6373 16.4285C30.5545 15.8116 29.238 15.8116 28.1552 16.4285L18.8287 21.7263C18.2873 22.0287 17.8567 22.4642 17.5491 22.9843L29.9024 29.9876L42.2434 22.9843Z" fill="#F88F62"></path><path d="M29.8856 44.0161L42.239 22.994C41.9437 22.486 41.5007 22.0506 40.9594 21.7361L31.6328 16.4382C30.5501 15.8214 29.2335 15.8214 28.1508 16.4382L18.8242 21.7361C17.7415 22.353 17.0894 23.4779 17.0894 24.6995V35.2952C17.0894 36.5169 17.7538 37.6538 18.8242 38.2586L28.1508 43.5565C28.6798 43.8589 29.2827 44.0161 29.8856 44.0161Z" fill="#F88F62"></path></svg>
