<svg width="400" height="400" viewBox="0 0 400 400" fill="none" xmlns="http://www.w3.org/2000/svg">
<path fill-rule="evenodd" clip-rule="evenodd" d="M48.3068 108.532C49.5398 103.375 54.1872 99.9243 59.2822 100.001C60.1932 99.9876 61.1207 100.086 62.0476 100.308L178.486 128.171L178.49 128.172L178.493 128.173C179.176 128.336 179.852 128.515 180.52 128.709C193.183 131.929 206.817 131.929 219.48 128.709C220.148 128.515 220.824 128.336 221.507 128.173L221.51 128.172L221.514 128.171L337.952 100.308C338.879 100.086 339.807 99.9876 340.718 100.001C345.813 99.9243 350.46 103.375 351.693 108.532C353.12 114.501 349.434 120.495 343.459 121.92L226.876 149.739C226.396 149.871 225.915 150 225.433 150.125C216.963 152.72 211.122 160.532 211.122 169.43V183.654C211.122 190.369 213.064 196.943 216.718 202.588L261.032 271.049C266.245 279.103 277.695 280.11 284.243 273.074L332.73 220.969C336.912 216.474 343.95 216.218 348.448 220.396C352.947 224.574 353.203 231.605 349.021 236.099L300.534 288.204C284.123 305.84 255.445 303.341 242.354 283.116L202.052 220.854C201.089 219.365 198.911 219.365 197.948 220.854L157.646 283.116C144.555 303.341 115.877 305.84 99.4658 288.204L50.9788 236.099C46.7965 231.605 47.0531 224.574 51.5517 220.396C56.0504 216.218 63.0876 216.474 67.2698 220.969L115.757 273.074C122.305 280.11 133.755 279.103 138.968 271.049L183.282 202.588C186.936 196.943 188.878 190.369 188.878 183.654V169.43C188.878 160.532 183.037 152.72 174.567 150.125C174.085 150 173.604 149.871 173.124 149.739L56.5406 121.92C50.5663 120.495 46.8799 114.501 48.3068 108.532Z" fill="black"/>
</svg>
